G75*
%MOIN*%
%OFA0B0*%
%FSLAX25Y25*%
%IPPOS*%
%LPD*%
%AMOC8*
5,1,8,0,0,1.08239X$1,22.5*
%
%ADD10C,0.00000*%
D10*
X0157312Y0290501D02*
X0165973Y0290501D01*
X0167942Y0292469D02*
X0167940Y0292555D01*
X0167935Y0292641D01*
X0167925Y0292726D01*
X0167912Y0292811D01*
X0167895Y0292895D01*
X0167875Y0292979D01*
X0167851Y0293061D01*
X0167823Y0293142D01*
X0167792Y0293223D01*
X0167758Y0293301D01*
X0167720Y0293378D01*
X0167678Y0293454D01*
X0167634Y0293527D01*
X0167586Y0293598D01*
X0167535Y0293668D01*
X0167481Y0293735D01*
X0167425Y0293799D01*
X0167365Y0293861D01*
X0167303Y0293921D01*
X0167239Y0293977D01*
X0167172Y0294031D01*
X0167102Y0294082D01*
X0167031Y0294130D01*
X0166958Y0294174D01*
X0166882Y0294216D01*
X0166805Y0294254D01*
X0166727Y0294288D01*
X0166646Y0294319D01*
X0166565Y0294347D01*
X0166483Y0294371D01*
X0166399Y0294391D01*
X0166315Y0294408D01*
X0166230Y0294421D01*
X0166145Y0294431D01*
X0166059Y0294436D01*
X0165973Y0294438D01*
X0157312Y0294438D01*
X0157226Y0294436D01*
X0157140Y0294431D01*
X0157055Y0294421D01*
X0156970Y0294408D01*
X0156886Y0294391D01*
X0156802Y0294371D01*
X0156720Y0294347D01*
X0156639Y0294319D01*
X0156558Y0294288D01*
X0156480Y0294254D01*
X0156403Y0294216D01*
X0156328Y0294174D01*
X0156254Y0294130D01*
X0156183Y0294082D01*
X0156113Y0294031D01*
X0156046Y0293977D01*
X0155982Y0293921D01*
X0155920Y0293861D01*
X0155860Y0293799D01*
X0155804Y0293735D01*
X0155750Y0293668D01*
X0155699Y0293598D01*
X0155651Y0293527D01*
X0155607Y0293454D01*
X0155565Y0293378D01*
X0155527Y0293301D01*
X0155493Y0293223D01*
X0155462Y0293142D01*
X0155434Y0293061D01*
X0155410Y0292979D01*
X0155390Y0292895D01*
X0155373Y0292811D01*
X0155360Y0292726D01*
X0155350Y0292641D01*
X0155345Y0292555D01*
X0155343Y0292469D01*
X0167942Y0292469D01*
X0167940Y0292383D01*
X0167935Y0292297D01*
X0167925Y0292212D01*
X0167912Y0292127D01*
X0167895Y0292043D01*
X0167875Y0291959D01*
X0167851Y0291877D01*
X0167823Y0291796D01*
X0167792Y0291715D01*
X0167758Y0291637D01*
X0167720Y0291560D01*
X0167678Y0291485D01*
X0167634Y0291411D01*
X0167586Y0291340D01*
X0167535Y0291270D01*
X0167481Y0291203D01*
X0167425Y0291139D01*
X0167365Y0291077D01*
X0167303Y0291017D01*
X0167239Y0290961D01*
X0167172Y0290907D01*
X0167102Y0290856D01*
X0167031Y0290808D01*
X0166958Y0290764D01*
X0166882Y0290722D01*
X0166805Y0290684D01*
X0166727Y0290650D01*
X0166646Y0290619D01*
X0166565Y0290591D01*
X0166483Y0290567D01*
X0166399Y0290547D01*
X0166315Y0290530D01*
X0166230Y0290517D01*
X0166145Y0290507D01*
X0166059Y0290502D01*
X0165973Y0290500D01*
X0157312Y0290500D02*
X0157226Y0290502D01*
X0157140Y0290507D01*
X0157055Y0290517D01*
X0156970Y0290530D01*
X0156886Y0290547D01*
X0156802Y0290567D01*
X0156720Y0290591D01*
X0156639Y0290619D01*
X0156558Y0290650D01*
X0156480Y0290684D01*
X0156403Y0290722D01*
X0156328Y0290764D01*
X0156254Y0290808D01*
X0156183Y0290856D01*
X0156113Y0290907D01*
X0156046Y0290961D01*
X0155982Y0291017D01*
X0155920Y0291077D01*
X0155860Y0291139D01*
X0155804Y0291203D01*
X0155750Y0291270D01*
X0155699Y0291340D01*
X0155651Y0291411D01*
X0155607Y0291485D01*
X0155565Y0291560D01*
X0155527Y0291637D01*
X0155493Y0291715D01*
X0155462Y0291796D01*
X0155434Y0291877D01*
X0155410Y0291959D01*
X0155390Y0292043D01*
X0155373Y0292127D01*
X0155360Y0292212D01*
X0155350Y0292297D01*
X0155345Y0292383D01*
X0155343Y0292469D01*
X0143926Y0299950D02*
X0143926Y0308611D01*
X0143924Y0308697D01*
X0143919Y0308783D01*
X0143909Y0308868D01*
X0143896Y0308953D01*
X0143879Y0309037D01*
X0143859Y0309121D01*
X0143835Y0309203D01*
X0143807Y0309284D01*
X0143776Y0309365D01*
X0143742Y0309443D01*
X0143704Y0309520D01*
X0143662Y0309596D01*
X0143618Y0309669D01*
X0143570Y0309740D01*
X0143519Y0309810D01*
X0143465Y0309877D01*
X0143409Y0309941D01*
X0143349Y0310003D01*
X0143287Y0310063D01*
X0143223Y0310119D01*
X0143156Y0310173D01*
X0143086Y0310224D01*
X0143015Y0310272D01*
X0142942Y0310316D01*
X0142866Y0310358D01*
X0142789Y0310396D01*
X0142711Y0310430D01*
X0142630Y0310461D01*
X0142549Y0310489D01*
X0142467Y0310513D01*
X0142383Y0310533D01*
X0142299Y0310550D01*
X0142214Y0310563D01*
X0142129Y0310573D01*
X0142043Y0310578D01*
X0141957Y0310580D01*
X0141871Y0310578D01*
X0141785Y0310573D01*
X0141700Y0310563D01*
X0141615Y0310550D01*
X0141531Y0310533D01*
X0141447Y0310513D01*
X0141365Y0310489D01*
X0141284Y0310461D01*
X0141203Y0310430D01*
X0141125Y0310396D01*
X0141048Y0310358D01*
X0140973Y0310316D01*
X0140899Y0310272D01*
X0140828Y0310224D01*
X0140758Y0310173D01*
X0140691Y0310119D01*
X0140627Y0310063D01*
X0140565Y0310003D01*
X0140505Y0309941D01*
X0140449Y0309877D01*
X0140395Y0309810D01*
X0140344Y0309740D01*
X0140296Y0309669D01*
X0140252Y0309596D01*
X0140210Y0309520D01*
X0140172Y0309443D01*
X0140138Y0309365D01*
X0140107Y0309284D01*
X0140079Y0309203D01*
X0140055Y0309121D01*
X0140035Y0309037D01*
X0140018Y0308953D01*
X0140005Y0308868D01*
X0139995Y0308783D01*
X0139990Y0308697D01*
X0139988Y0308611D01*
X0139989Y0308611D02*
X0139989Y0299950D01*
X0141957Y0297981D02*
X0142043Y0297983D01*
X0142129Y0297988D01*
X0142214Y0297998D01*
X0142299Y0298011D01*
X0142383Y0298028D01*
X0142467Y0298048D01*
X0142549Y0298072D01*
X0142630Y0298100D01*
X0142711Y0298131D01*
X0142789Y0298165D01*
X0142866Y0298203D01*
X0142942Y0298245D01*
X0143015Y0298289D01*
X0143086Y0298337D01*
X0143156Y0298388D01*
X0143223Y0298442D01*
X0143287Y0298498D01*
X0143349Y0298558D01*
X0143409Y0298620D01*
X0143465Y0298684D01*
X0143519Y0298751D01*
X0143570Y0298821D01*
X0143618Y0298892D01*
X0143662Y0298966D01*
X0143704Y0299041D01*
X0143742Y0299118D01*
X0143776Y0299196D01*
X0143807Y0299277D01*
X0143835Y0299358D01*
X0143859Y0299440D01*
X0143879Y0299524D01*
X0143896Y0299608D01*
X0143909Y0299693D01*
X0143919Y0299778D01*
X0143924Y0299864D01*
X0143926Y0299950D01*
X0141957Y0297981D02*
X0141871Y0297983D01*
X0141785Y0297988D01*
X0141700Y0297998D01*
X0141615Y0298011D01*
X0141531Y0298028D01*
X0141447Y0298048D01*
X0141365Y0298072D01*
X0141284Y0298100D01*
X0141203Y0298131D01*
X0141125Y0298165D01*
X0141048Y0298203D01*
X0140973Y0298245D01*
X0140899Y0298289D01*
X0140828Y0298337D01*
X0140758Y0298388D01*
X0140691Y0298442D01*
X0140627Y0298498D01*
X0140565Y0298558D01*
X0140505Y0298620D01*
X0140449Y0298684D01*
X0140395Y0298751D01*
X0140344Y0298821D01*
X0140296Y0298892D01*
X0140252Y0298966D01*
X0140210Y0299041D01*
X0140172Y0299118D01*
X0140138Y0299196D01*
X0140107Y0299277D01*
X0140079Y0299358D01*
X0140055Y0299440D01*
X0140035Y0299524D01*
X0140018Y0299608D01*
X0140005Y0299693D01*
X0139995Y0299778D01*
X0139990Y0299864D01*
X0139988Y0299950D01*
X0157312Y0315304D02*
X0165973Y0315304D01*
X0167942Y0317272D02*
X0167940Y0317358D01*
X0167935Y0317444D01*
X0167925Y0317529D01*
X0167912Y0317614D01*
X0167895Y0317698D01*
X0167875Y0317782D01*
X0167851Y0317864D01*
X0167823Y0317945D01*
X0167792Y0318026D01*
X0167758Y0318104D01*
X0167720Y0318181D01*
X0167678Y0318257D01*
X0167634Y0318330D01*
X0167586Y0318401D01*
X0167535Y0318471D01*
X0167481Y0318538D01*
X0167425Y0318602D01*
X0167365Y0318664D01*
X0167303Y0318724D01*
X0167239Y0318780D01*
X0167172Y0318834D01*
X0167102Y0318885D01*
X0167031Y0318933D01*
X0166958Y0318977D01*
X0166882Y0319019D01*
X0166805Y0319057D01*
X0166727Y0319091D01*
X0166646Y0319122D01*
X0166565Y0319150D01*
X0166483Y0319174D01*
X0166399Y0319194D01*
X0166315Y0319211D01*
X0166230Y0319224D01*
X0166145Y0319234D01*
X0166059Y0319239D01*
X0165973Y0319241D01*
X0157312Y0319241D01*
X0157226Y0319239D01*
X0157140Y0319234D01*
X0157055Y0319224D01*
X0156970Y0319211D01*
X0156886Y0319194D01*
X0156802Y0319174D01*
X0156720Y0319150D01*
X0156639Y0319122D01*
X0156558Y0319091D01*
X0156480Y0319057D01*
X0156403Y0319019D01*
X0156328Y0318977D01*
X0156254Y0318933D01*
X0156183Y0318885D01*
X0156113Y0318834D01*
X0156046Y0318780D01*
X0155982Y0318724D01*
X0155920Y0318664D01*
X0155860Y0318602D01*
X0155804Y0318538D01*
X0155750Y0318471D01*
X0155699Y0318401D01*
X0155651Y0318330D01*
X0155607Y0318257D01*
X0155565Y0318181D01*
X0155527Y0318104D01*
X0155493Y0318026D01*
X0155462Y0317945D01*
X0155434Y0317864D01*
X0155410Y0317782D01*
X0155390Y0317698D01*
X0155373Y0317614D01*
X0155360Y0317529D01*
X0155350Y0317444D01*
X0155345Y0317358D01*
X0155343Y0317272D01*
X0155345Y0317186D01*
X0155350Y0317100D01*
X0155360Y0317015D01*
X0155373Y0316930D01*
X0155390Y0316846D01*
X0155410Y0316762D01*
X0155434Y0316680D01*
X0155462Y0316599D01*
X0155493Y0316518D01*
X0155527Y0316440D01*
X0155565Y0316363D01*
X0155607Y0316288D01*
X0155651Y0316214D01*
X0155699Y0316143D01*
X0155750Y0316073D01*
X0155804Y0316006D01*
X0155860Y0315942D01*
X0155920Y0315880D01*
X0155982Y0315820D01*
X0156046Y0315764D01*
X0156113Y0315710D01*
X0156183Y0315659D01*
X0156254Y0315611D01*
X0156328Y0315567D01*
X0156403Y0315525D01*
X0156480Y0315487D01*
X0156558Y0315453D01*
X0156639Y0315422D01*
X0156720Y0315394D01*
X0156802Y0315370D01*
X0156886Y0315350D01*
X0156970Y0315333D01*
X0157055Y0315320D01*
X0157140Y0315310D01*
X0157226Y0315305D01*
X0157312Y0315303D01*
X0165973Y0315303D02*
X0166059Y0315305D01*
X0166145Y0315310D01*
X0166230Y0315320D01*
X0166315Y0315333D01*
X0166399Y0315350D01*
X0166483Y0315370D01*
X0166565Y0315394D01*
X0166646Y0315422D01*
X0166727Y0315453D01*
X0166805Y0315487D01*
X0166882Y0315525D01*
X0166958Y0315567D01*
X0167031Y0315611D01*
X0167102Y0315659D01*
X0167172Y0315710D01*
X0167239Y0315764D01*
X0167303Y0315820D01*
X0167365Y0315880D01*
X0167425Y0315942D01*
X0167481Y0316006D01*
X0167535Y0316073D01*
X0167586Y0316143D01*
X0167634Y0316214D01*
X0167678Y0316288D01*
X0167720Y0316363D01*
X0167758Y0316440D01*
X0167792Y0316518D01*
X0167823Y0316599D01*
X0167851Y0316680D01*
X0167875Y0316762D01*
X0167895Y0316846D01*
X0167912Y0316930D01*
X0167925Y0317015D01*
X0167935Y0317100D01*
X0167940Y0317186D01*
X0167942Y0317272D01*
M02*
