G75*
%MOIN*%
%OFA0B0*%
%FSLAX25Y25*%
%IPPOS*%
%LPD*%
%AMOC8*
5,1,8,0,0,1.08239X$1,22.5*
%
%ADD10R,0.07087X0.06299*%
%ADD11R,0.05000X0.05787*%
%ADD12R,0.05000X0.02500*%
%ADD13R,0.09000X0.09600*%
%ADD14C,0.01600*%
%ADD15C,0.00900*%
%ADD16C,0.01400*%
%ADD17C,0.01200*%
%ADD18R,0.06299X0.07087*%
%ADD19R,0.08661X0.02362*%
D10*
X0111800Y0036288D03*
X0111800Y0047312D03*
X0261800Y0191288D03*
X0261800Y0202312D03*
X0321800Y0192312D03*
X0321800Y0181288D03*
X0336800Y0181288D03*
X0336800Y0192312D03*
X0336800Y0122312D03*
X0336800Y0111288D03*
X0321800Y0111288D03*
X0321800Y0122312D03*
X0116800Y0316288D03*
X0116800Y0327312D03*
D11*
X0123335Y0166800D03*
X0140265Y0166800D03*
D12*
X0241800Y0225178D03*
X0241800Y0228422D03*
D13*
X0241800Y0226800D03*
D14*
X0242600Y0163600D02*
X0251000Y0163600D01*
X0242600Y0163600D02*
X0242600Y0170000D01*
X0251000Y0170000D01*
X0251000Y0163600D01*
X0251000Y0165199D02*
X0242600Y0165199D01*
X0242600Y0166798D02*
X0251000Y0166798D01*
X0251000Y0168397D02*
X0242600Y0168397D01*
X0242600Y0169996D02*
X0251000Y0169996D01*
X0251000Y0153600D02*
X0242600Y0153600D01*
X0242600Y0160000D01*
X0251000Y0160000D01*
X0251000Y0153600D01*
X0251000Y0155199D02*
X0242600Y0155199D01*
X0242600Y0156798D02*
X0251000Y0156798D01*
X0251000Y0158397D02*
X0242600Y0158397D01*
X0242600Y0159996D02*
X0251000Y0159996D01*
X0251000Y0143600D02*
X0242600Y0143600D01*
X0242600Y0150000D01*
X0251000Y0150000D01*
X0251000Y0143600D01*
X0251000Y0145199D02*
X0242600Y0145199D01*
X0242600Y0146798D02*
X0251000Y0146798D01*
X0251000Y0148397D02*
X0242600Y0148397D01*
X0242600Y0149996D02*
X0251000Y0149996D01*
X0251000Y0133600D02*
X0242600Y0133600D01*
X0242600Y0140000D01*
X0251000Y0140000D01*
X0251000Y0133600D01*
X0251000Y0135199D02*
X0242600Y0135199D01*
X0242600Y0136798D02*
X0251000Y0136798D01*
X0251000Y0138397D02*
X0242600Y0138397D01*
X0242600Y0139996D02*
X0251000Y0139996D01*
X0251000Y0123600D02*
X0242600Y0123600D01*
X0242600Y0130000D01*
X0251000Y0130000D01*
X0251000Y0123600D01*
X0251000Y0125199D02*
X0242600Y0125199D01*
X0242600Y0126798D02*
X0251000Y0126798D01*
X0251000Y0128397D02*
X0242600Y0128397D01*
X0242600Y0129996D02*
X0251000Y0129996D01*
X0251000Y0113600D02*
X0242600Y0113600D01*
X0242600Y0120000D01*
X0251000Y0120000D01*
X0251000Y0113600D01*
X0251000Y0115199D02*
X0242600Y0115199D01*
X0242600Y0116798D02*
X0251000Y0116798D01*
X0251000Y0118397D02*
X0242600Y0118397D01*
X0242600Y0119996D02*
X0251000Y0119996D01*
X0251000Y0103600D02*
X0242600Y0103600D01*
X0242600Y0110000D01*
X0251000Y0110000D01*
X0251000Y0103600D01*
X0251000Y0105199D02*
X0242600Y0105199D01*
X0242600Y0106798D02*
X0251000Y0106798D01*
X0251000Y0108397D02*
X0242600Y0108397D01*
X0242600Y0109996D02*
X0251000Y0109996D01*
X0251000Y0093600D02*
X0242600Y0093600D01*
X0242600Y0100000D01*
X0251000Y0100000D01*
X0251000Y0093600D01*
X0251000Y0095199D02*
X0242600Y0095199D01*
X0242600Y0096798D02*
X0251000Y0096798D01*
X0251000Y0098397D02*
X0242600Y0098397D01*
X0242600Y0099996D02*
X0251000Y0099996D01*
X0251000Y0083600D02*
X0242600Y0083600D01*
X0242600Y0090000D01*
X0251000Y0090000D01*
X0251000Y0083600D01*
X0251000Y0085199D02*
X0242600Y0085199D01*
X0242600Y0086798D02*
X0251000Y0086798D01*
X0251000Y0088397D02*
X0242600Y0088397D01*
X0242600Y0089996D02*
X0251000Y0089996D01*
X0251000Y0073600D02*
X0242600Y0073600D01*
X0242600Y0080000D01*
X0251000Y0080000D01*
X0251000Y0073600D01*
X0251000Y0075199D02*
X0242600Y0075199D01*
X0242600Y0076798D02*
X0251000Y0076798D01*
X0251000Y0078397D02*
X0242600Y0078397D01*
X0242600Y0079996D02*
X0251000Y0079996D01*
X0251000Y0063600D02*
X0242600Y0063600D01*
X0242600Y0070000D01*
X0251000Y0070000D01*
X0251000Y0063600D01*
X0251000Y0065199D02*
X0242600Y0065199D01*
X0242600Y0066798D02*
X0251000Y0066798D01*
X0251000Y0068397D02*
X0242600Y0068397D01*
X0242600Y0069996D02*
X0251000Y0069996D01*
X0251000Y0053600D02*
X0242600Y0053600D01*
X0242600Y0060000D01*
X0251000Y0060000D01*
X0251000Y0053600D01*
X0251000Y0055199D02*
X0242600Y0055199D01*
X0242600Y0056798D02*
X0251000Y0056798D01*
X0251000Y0058397D02*
X0242600Y0058397D01*
X0242600Y0059996D02*
X0251000Y0059996D01*
X0171000Y0053600D02*
X0162600Y0053600D01*
X0162600Y0060000D01*
X0171000Y0060000D01*
X0171000Y0053600D01*
X0171000Y0055199D02*
X0162600Y0055199D01*
X0162600Y0056798D02*
X0171000Y0056798D01*
X0171000Y0058397D02*
X0162600Y0058397D01*
X0162600Y0059996D02*
X0171000Y0059996D01*
X0171000Y0063600D02*
X0162600Y0063600D01*
X0162600Y0070000D01*
X0171000Y0070000D01*
X0171000Y0063600D01*
X0171000Y0065199D02*
X0162600Y0065199D01*
X0162600Y0066798D02*
X0171000Y0066798D01*
X0171000Y0068397D02*
X0162600Y0068397D01*
X0162600Y0069996D02*
X0171000Y0069996D01*
X0171000Y0073600D02*
X0162600Y0073600D01*
X0162600Y0080000D01*
X0171000Y0080000D01*
X0171000Y0073600D01*
X0171000Y0075199D02*
X0162600Y0075199D01*
X0162600Y0076798D02*
X0171000Y0076798D01*
X0171000Y0078397D02*
X0162600Y0078397D01*
X0162600Y0079996D02*
X0171000Y0079996D01*
X0171000Y0083600D02*
X0162600Y0083600D01*
X0162600Y0090000D01*
X0171000Y0090000D01*
X0171000Y0083600D01*
X0171000Y0085199D02*
X0162600Y0085199D01*
X0162600Y0086798D02*
X0171000Y0086798D01*
X0171000Y0088397D02*
X0162600Y0088397D01*
X0162600Y0089996D02*
X0171000Y0089996D01*
X0171000Y0093600D02*
X0162600Y0093600D01*
X0162600Y0100000D01*
X0171000Y0100000D01*
X0171000Y0093600D01*
X0171000Y0095199D02*
X0162600Y0095199D01*
X0162600Y0096798D02*
X0171000Y0096798D01*
X0171000Y0098397D02*
X0162600Y0098397D01*
X0162600Y0099996D02*
X0171000Y0099996D01*
X0171000Y0103600D02*
X0162600Y0103600D01*
X0162600Y0110000D01*
X0171000Y0110000D01*
X0171000Y0103600D01*
X0171000Y0105199D02*
X0162600Y0105199D01*
X0162600Y0106798D02*
X0171000Y0106798D01*
X0171000Y0108397D02*
X0162600Y0108397D01*
X0162600Y0109996D02*
X0171000Y0109996D01*
X0171000Y0113600D02*
X0162600Y0113600D01*
X0162600Y0120000D01*
X0171000Y0120000D01*
X0171000Y0113600D01*
X0171000Y0115199D02*
X0162600Y0115199D01*
X0162600Y0116798D02*
X0171000Y0116798D01*
X0171000Y0118397D02*
X0162600Y0118397D01*
X0162600Y0119996D02*
X0171000Y0119996D01*
X0171000Y0123600D02*
X0162600Y0123600D01*
X0162600Y0130000D01*
X0171000Y0130000D01*
X0171000Y0123600D01*
X0171000Y0125199D02*
X0162600Y0125199D01*
X0162600Y0126798D02*
X0171000Y0126798D01*
X0171000Y0128397D02*
X0162600Y0128397D01*
X0162600Y0129996D02*
X0171000Y0129996D01*
X0171000Y0133600D02*
X0162600Y0133600D01*
X0162600Y0140000D01*
X0171000Y0140000D01*
X0171000Y0133600D01*
X0171000Y0135199D02*
X0162600Y0135199D01*
X0162600Y0136798D02*
X0171000Y0136798D01*
X0171000Y0138397D02*
X0162600Y0138397D01*
X0162600Y0139996D02*
X0171000Y0139996D01*
X0171000Y0143600D02*
X0162600Y0143600D01*
X0162600Y0150000D01*
X0171000Y0150000D01*
X0171000Y0143600D01*
X0171000Y0145199D02*
X0162600Y0145199D01*
X0162600Y0146798D02*
X0171000Y0146798D01*
X0171000Y0148397D02*
X0162600Y0148397D01*
X0162600Y0149996D02*
X0171000Y0149996D01*
X0171000Y0153600D02*
X0162600Y0153600D01*
X0162600Y0160000D01*
X0171000Y0160000D01*
X0171000Y0153600D01*
X0171000Y0155199D02*
X0162600Y0155199D01*
X0162600Y0156798D02*
X0171000Y0156798D01*
X0171000Y0158397D02*
X0162600Y0158397D01*
X0162600Y0159996D02*
X0171000Y0159996D01*
X0171000Y0163600D02*
X0162600Y0163600D01*
X0162600Y0170000D01*
X0171000Y0170000D01*
X0171000Y0163600D01*
X0171000Y0165199D02*
X0162600Y0165199D01*
X0162600Y0166798D02*
X0171000Y0166798D01*
X0171000Y0168397D02*
X0162600Y0168397D01*
X0162600Y0169996D02*
X0171000Y0169996D01*
D15*
X0230000Y0165000D02*
X0233600Y0165000D01*
X0230000Y0165000D02*
X0230000Y0168600D01*
X0233600Y0168600D01*
X0233600Y0165000D01*
X0233600Y0165899D02*
X0230000Y0165899D01*
X0230000Y0166798D02*
X0233600Y0166798D01*
X0233600Y0167697D02*
X0230000Y0167697D01*
X0230000Y0168596D02*
X0233600Y0168596D01*
X0233600Y0155000D02*
X0230000Y0155000D01*
X0230000Y0158600D01*
X0233600Y0158600D01*
X0233600Y0155000D01*
X0233600Y0155899D02*
X0230000Y0155899D01*
X0230000Y0156798D02*
X0233600Y0156798D01*
X0233600Y0157697D02*
X0230000Y0157697D01*
X0230000Y0158596D02*
X0233600Y0158596D01*
X0183600Y0095000D02*
X0180000Y0095000D01*
X0180000Y0098600D01*
X0183600Y0098600D01*
X0183600Y0095000D01*
X0183600Y0095899D02*
X0180000Y0095899D01*
X0180000Y0096798D02*
X0183600Y0096798D01*
X0183600Y0097697D02*
X0180000Y0097697D01*
X0180000Y0098596D02*
X0183600Y0098596D01*
D16*
X0184600Y0134000D02*
X0179000Y0134000D01*
X0179000Y0139600D01*
X0184600Y0139600D01*
X0184600Y0134000D01*
X0184600Y0135399D02*
X0179000Y0135399D01*
X0179000Y0136798D02*
X0184600Y0136798D01*
X0184600Y0138197D02*
X0179000Y0138197D01*
X0179000Y0139596D02*
X0184600Y0139596D01*
X0184600Y0164000D02*
X0179000Y0164000D01*
X0179000Y0169600D01*
X0184600Y0169600D01*
X0184600Y0164000D01*
X0184600Y0165399D02*
X0179000Y0165399D01*
X0179000Y0166798D02*
X0184600Y0166798D01*
X0184600Y0168197D02*
X0179000Y0168197D01*
X0179000Y0169596D02*
X0184600Y0169596D01*
D17*
X0200400Y0174900D02*
X0205200Y0174900D01*
X0200400Y0174900D02*
X0200400Y0180700D01*
X0205200Y0180700D01*
X0205200Y0174900D01*
X0205200Y0176099D02*
X0200400Y0176099D01*
X0200400Y0177298D02*
X0205200Y0177298D01*
X0205200Y0178497D02*
X0200400Y0178497D01*
X0200400Y0179696D02*
X0205200Y0179696D01*
X0208400Y0174900D02*
X0213200Y0174900D01*
X0208400Y0174900D02*
X0208400Y0180700D01*
X0213200Y0180700D01*
X0213200Y0174900D01*
X0213200Y0176099D02*
X0208400Y0176099D01*
X0208400Y0177298D02*
X0213200Y0177298D01*
X0213200Y0178497D02*
X0208400Y0178497D01*
X0208400Y0179696D02*
X0213200Y0179696D01*
D18*
X0152312Y0221800D03*
X0141288Y0221800D03*
X0276288Y0076800D03*
X0287312Y0076800D03*
D19*
X0301564Y0074300D03*
X0301564Y0079300D03*
X0301564Y0084300D03*
X0301564Y0069300D03*
X0322036Y0069300D03*
X0322036Y0074300D03*
X0322036Y0079300D03*
X0322036Y0084300D03*
M02*
