G75*
%MOIN*%
%OFA0B0*%
%FSLAX25Y25*%
%IPPOS*%
%LPD*%
%AMOC8*
5,1,8,0,0,1.08239X$1,22.5*
%
%ADD10R,0.07887X0.07099*%
%ADD11R,0.05800X0.06587*%
%ADD12R,0.08800X0.08800*%
%ADD13C,0.08800*%
%ADD14C,0.08200*%
%ADD15R,0.05800X0.03300*%
%ADD16C,0.01760*%
%ADD17C,0.01060*%
%ADD18C,0.01560*%
%ADD19C,0.01360*%
%ADD20R,0.07099X0.07887*%
%ADD21R,0.09461X0.03162*%
%ADD22R,0.10300X0.10300*%
%ADD23C,0.10300*%
%ADD24C,0.08674*%
%ADD25R,0.08200X0.08200*%
%ADD26C,0.13800*%
%ADD27C,0.07300*%
%ADD28R,0.07300X0.07300*%
%ADD29C,0.00500*%
%ADD30C,0.04762*%
%ADD31C,0.06800*%
D10*
X0111800Y0036288D03*
X0111800Y0047312D03*
X0261800Y0191288D03*
X0261800Y0202312D03*
X0321800Y0192312D03*
X0321800Y0181288D03*
X0336800Y0181288D03*
X0336800Y0192312D03*
X0336800Y0122312D03*
X0336800Y0111288D03*
X0321800Y0111288D03*
X0321800Y0122312D03*
X0116800Y0316288D03*
X0116800Y0327312D03*
D11*
X0123335Y0166800D03*
X0140265Y0166800D03*
D12*
X0051800Y0146800D03*
X0051800Y0216800D03*
X0361800Y0186800D03*
X0361800Y0116800D03*
X0361800Y0076800D03*
X0361800Y0036800D03*
D13*
X0361800Y0050580D03*
X0361800Y0090580D03*
X0361800Y0130580D03*
X0361800Y0144359D03*
X0361800Y0158139D03*
X0361800Y0200580D03*
X0361800Y0214359D03*
X0361800Y0228139D03*
X0051800Y0203020D03*
X0051800Y0189241D03*
X0051800Y0175461D03*
X0051800Y0133020D03*
X0051800Y0119241D03*
X0051800Y0105461D03*
D14*
X0081800Y0041800D03*
X0091800Y0041800D03*
X0151800Y0056800D03*
X0151800Y0066800D03*
X0151800Y0076800D03*
X0151800Y0086800D03*
X0151800Y0096800D03*
X0151800Y0106800D03*
X0151800Y0116800D03*
X0151800Y0126800D03*
X0151800Y0136800D03*
X0151800Y0146800D03*
X0151800Y0156800D03*
X0151800Y0166800D03*
X0261800Y0166800D03*
X0261800Y0156800D03*
X0261800Y0146800D03*
X0261800Y0136800D03*
X0261800Y0126800D03*
X0261800Y0116800D03*
X0261800Y0106800D03*
X0261800Y0096800D03*
X0261800Y0086800D03*
X0261800Y0076800D03*
X0261800Y0066800D03*
X0261800Y0056800D03*
X0296800Y0121800D03*
X0306800Y0121800D03*
X0306800Y0191800D03*
X0296800Y0191800D03*
X0261800Y0211800D03*
X0261800Y0221800D03*
X0261800Y0231800D03*
X0101800Y0326800D03*
X0091800Y0326800D03*
X0081800Y0326800D03*
D15*
X0241800Y0228422D03*
X0241800Y0225178D03*
X0241800Y0203572D03*
X0241800Y0200028D03*
D16*
X0242280Y0163280D02*
X0251320Y0163280D01*
X0242280Y0163280D02*
X0242280Y0170320D01*
X0251320Y0170320D01*
X0251320Y0163280D01*
X0251320Y0165039D02*
X0242280Y0165039D01*
X0242280Y0166798D02*
X0251320Y0166798D01*
X0251320Y0168557D02*
X0242280Y0168557D01*
X0242280Y0170316D02*
X0251320Y0170316D01*
X0251320Y0153280D02*
X0242280Y0153280D01*
X0242280Y0160320D01*
X0251320Y0160320D01*
X0251320Y0153280D01*
X0251320Y0155039D02*
X0242280Y0155039D01*
X0242280Y0156798D02*
X0251320Y0156798D01*
X0251320Y0158557D02*
X0242280Y0158557D01*
X0242280Y0160316D02*
X0251320Y0160316D01*
X0251320Y0143280D02*
X0242280Y0143280D01*
X0242280Y0150320D01*
X0251320Y0150320D01*
X0251320Y0143280D01*
X0251320Y0145039D02*
X0242280Y0145039D01*
X0242280Y0146798D02*
X0251320Y0146798D01*
X0251320Y0148557D02*
X0242280Y0148557D01*
X0242280Y0150316D02*
X0251320Y0150316D01*
X0251320Y0133280D02*
X0242280Y0133280D01*
X0242280Y0140320D01*
X0251320Y0140320D01*
X0251320Y0133280D01*
X0251320Y0135039D02*
X0242280Y0135039D01*
X0242280Y0136798D02*
X0251320Y0136798D01*
X0251320Y0138557D02*
X0242280Y0138557D01*
X0242280Y0140316D02*
X0251320Y0140316D01*
X0251320Y0123280D02*
X0242280Y0123280D01*
X0242280Y0130320D01*
X0251320Y0130320D01*
X0251320Y0123280D01*
X0251320Y0125039D02*
X0242280Y0125039D01*
X0242280Y0126798D02*
X0251320Y0126798D01*
X0251320Y0128557D02*
X0242280Y0128557D01*
X0242280Y0130316D02*
X0251320Y0130316D01*
X0251320Y0113280D02*
X0242280Y0113280D01*
X0242280Y0120320D01*
X0251320Y0120320D01*
X0251320Y0113280D01*
X0251320Y0115039D02*
X0242280Y0115039D01*
X0242280Y0116798D02*
X0251320Y0116798D01*
X0251320Y0118557D02*
X0242280Y0118557D01*
X0242280Y0120316D02*
X0251320Y0120316D01*
X0251320Y0103280D02*
X0242280Y0103280D01*
X0242280Y0110320D01*
X0251320Y0110320D01*
X0251320Y0103280D01*
X0251320Y0105039D02*
X0242280Y0105039D01*
X0242280Y0106798D02*
X0251320Y0106798D01*
X0251320Y0108557D02*
X0242280Y0108557D01*
X0242280Y0110316D02*
X0251320Y0110316D01*
X0251320Y0093280D02*
X0242280Y0093280D01*
X0242280Y0100320D01*
X0251320Y0100320D01*
X0251320Y0093280D01*
X0251320Y0095039D02*
X0242280Y0095039D01*
X0242280Y0096798D02*
X0251320Y0096798D01*
X0251320Y0098557D02*
X0242280Y0098557D01*
X0242280Y0100316D02*
X0251320Y0100316D01*
X0251320Y0083280D02*
X0242280Y0083280D01*
X0242280Y0090320D01*
X0251320Y0090320D01*
X0251320Y0083280D01*
X0251320Y0085039D02*
X0242280Y0085039D01*
X0242280Y0086798D02*
X0251320Y0086798D01*
X0251320Y0088557D02*
X0242280Y0088557D01*
X0242280Y0090316D02*
X0251320Y0090316D01*
X0251320Y0073280D02*
X0242280Y0073280D01*
X0242280Y0080320D01*
X0251320Y0080320D01*
X0251320Y0073280D01*
X0251320Y0075039D02*
X0242280Y0075039D01*
X0242280Y0076798D02*
X0251320Y0076798D01*
X0251320Y0078557D02*
X0242280Y0078557D01*
X0242280Y0080316D02*
X0251320Y0080316D01*
X0251320Y0063280D02*
X0242280Y0063280D01*
X0242280Y0070320D01*
X0251320Y0070320D01*
X0251320Y0063280D01*
X0251320Y0065039D02*
X0242280Y0065039D01*
X0242280Y0066798D02*
X0251320Y0066798D01*
X0251320Y0068557D02*
X0242280Y0068557D01*
X0242280Y0070316D02*
X0251320Y0070316D01*
X0251320Y0053280D02*
X0242280Y0053280D01*
X0242280Y0060320D01*
X0251320Y0060320D01*
X0251320Y0053280D01*
X0251320Y0055039D02*
X0242280Y0055039D01*
X0242280Y0056798D02*
X0251320Y0056798D01*
X0251320Y0058557D02*
X0242280Y0058557D01*
X0242280Y0060316D02*
X0251320Y0060316D01*
X0171320Y0053280D02*
X0162280Y0053280D01*
X0162280Y0060320D01*
X0171320Y0060320D01*
X0171320Y0053280D01*
X0171320Y0055039D02*
X0162280Y0055039D01*
X0162280Y0056798D02*
X0171320Y0056798D01*
X0171320Y0058557D02*
X0162280Y0058557D01*
X0162280Y0060316D02*
X0171320Y0060316D01*
X0171320Y0063280D02*
X0162280Y0063280D01*
X0162280Y0070320D01*
X0171320Y0070320D01*
X0171320Y0063280D01*
X0171320Y0065039D02*
X0162280Y0065039D01*
X0162280Y0066798D02*
X0171320Y0066798D01*
X0171320Y0068557D02*
X0162280Y0068557D01*
X0162280Y0070316D02*
X0171320Y0070316D01*
X0171320Y0073280D02*
X0162280Y0073280D01*
X0162280Y0080320D01*
X0171320Y0080320D01*
X0171320Y0073280D01*
X0171320Y0075039D02*
X0162280Y0075039D01*
X0162280Y0076798D02*
X0171320Y0076798D01*
X0171320Y0078557D02*
X0162280Y0078557D01*
X0162280Y0080316D02*
X0171320Y0080316D01*
X0171320Y0083280D02*
X0162280Y0083280D01*
X0162280Y0090320D01*
X0171320Y0090320D01*
X0171320Y0083280D01*
X0171320Y0085039D02*
X0162280Y0085039D01*
X0162280Y0086798D02*
X0171320Y0086798D01*
X0171320Y0088557D02*
X0162280Y0088557D01*
X0162280Y0090316D02*
X0171320Y0090316D01*
X0171320Y0093280D02*
X0162280Y0093280D01*
X0162280Y0100320D01*
X0171320Y0100320D01*
X0171320Y0093280D01*
X0171320Y0095039D02*
X0162280Y0095039D01*
X0162280Y0096798D02*
X0171320Y0096798D01*
X0171320Y0098557D02*
X0162280Y0098557D01*
X0162280Y0100316D02*
X0171320Y0100316D01*
X0171320Y0103280D02*
X0162280Y0103280D01*
X0162280Y0110320D01*
X0171320Y0110320D01*
X0171320Y0103280D01*
X0171320Y0105039D02*
X0162280Y0105039D01*
X0162280Y0106798D02*
X0171320Y0106798D01*
X0171320Y0108557D02*
X0162280Y0108557D01*
X0162280Y0110316D02*
X0171320Y0110316D01*
X0171320Y0113280D02*
X0162280Y0113280D01*
X0162280Y0120320D01*
X0171320Y0120320D01*
X0171320Y0113280D01*
X0171320Y0115039D02*
X0162280Y0115039D01*
X0162280Y0116798D02*
X0171320Y0116798D01*
X0171320Y0118557D02*
X0162280Y0118557D01*
X0162280Y0120316D02*
X0171320Y0120316D01*
X0171320Y0123280D02*
X0162280Y0123280D01*
X0162280Y0130320D01*
X0171320Y0130320D01*
X0171320Y0123280D01*
X0171320Y0125039D02*
X0162280Y0125039D01*
X0162280Y0126798D02*
X0171320Y0126798D01*
X0171320Y0128557D02*
X0162280Y0128557D01*
X0162280Y0130316D02*
X0171320Y0130316D01*
X0171320Y0133280D02*
X0162280Y0133280D01*
X0162280Y0140320D01*
X0171320Y0140320D01*
X0171320Y0133280D01*
X0171320Y0135039D02*
X0162280Y0135039D01*
X0162280Y0136798D02*
X0171320Y0136798D01*
X0171320Y0138557D02*
X0162280Y0138557D01*
X0162280Y0140316D02*
X0171320Y0140316D01*
X0171320Y0143280D02*
X0162280Y0143280D01*
X0162280Y0150320D01*
X0171320Y0150320D01*
X0171320Y0143280D01*
X0171320Y0145039D02*
X0162280Y0145039D01*
X0162280Y0146798D02*
X0171320Y0146798D01*
X0171320Y0148557D02*
X0162280Y0148557D01*
X0162280Y0150316D02*
X0171320Y0150316D01*
X0171320Y0153280D02*
X0162280Y0153280D01*
X0162280Y0160320D01*
X0171320Y0160320D01*
X0171320Y0153280D01*
X0171320Y0155039D02*
X0162280Y0155039D01*
X0162280Y0156798D02*
X0171320Y0156798D01*
X0171320Y0158557D02*
X0162280Y0158557D01*
X0162280Y0160316D02*
X0171320Y0160316D01*
X0171320Y0163280D02*
X0162280Y0163280D01*
X0162280Y0170320D01*
X0171320Y0170320D01*
X0171320Y0163280D01*
X0171320Y0165039D02*
X0162280Y0165039D01*
X0162280Y0166798D02*
X0171320Y0166798D01*
X0171320Y0168557D02*
X0162280Y0168557D01*
X0162280Y0170316D02*
X0171320Y0170316D01*
D17*
X0229680Y0164680D02*
X0233920Y0164680D01*
X0229680Y0164680D02*
X0229680Y0168920D01*
X0233920Y0168920D01*
X0233920Y0164680D01*
X0233920Y0165739D02*
X0229680Y0165739D01*
X0229680Y0166798D02*
X0233920Y0166798D01*
X0233920Y0167857D02*
X0229680Y0167857D01*
X0229680Y0168916D02*
X0233920Y0168916D01*
X0233920Y0154680D02*
X0229680Y0154680D01*
X0229680Y0158920D01*
X0233920Y0158920D01*
X0233920Y0154680D01*
X0233920Y0155739D02*
X0229680Y0155739D01*
X0229680Y0156798D02*
X0233920Y0156798D01*
X0233920Y0157857D02*
X0229680Y0157857D01*
X0229680Y0158916D02*
X0233920Y0158916D01*
X0183920Y0094680D02*
X0179680Y0094680D01*
X0179680Y0098920D01*
X0183920Y0098920D01*
X0183920Y0094680D01*
X0183920Y0095739D02*
X0179680Y0095739D01*
X0179680Y0096798D02*
X0183920Y0096798D01*
X0183920Y0097857D02*
X0179680Y0097857D01*
X0179680Y0098916D02*
X0183920Y0098916D01*
D18*
X0184920Y0133680D02*
X0178680Y0133680D01*
X0178680Y0139920D01*
X0184920Y0139920D01*
X0184920Y0133680D01*
X0184920Y0135239D02*
X0178680Y0135239D01*
X0178680Y0136798D02*
X0184920Y0136798D01*
X0184920Y0138357D02*
X0178680Y0138357D01*
X0178680Y0139916D02*
X0184920Y0139916D01*
X0184920Y0163680D02*
X0178680Y0163680D01*
X0178680Y0169920D01*
X0184920Y0169920D01*
X0184920Y0163680D01*
X0184920Y0165239D02*
X0178680Y0165239D01*
X0178680Y0166798D02*
X0184920Y0166798D01*
X0184920Y0168357D02*
X0178680Y0168357D01*
X0178680Y0169916D02*
X0184920Y0169916D01*
D19*
X0200080Y0174580D02*
X0205520Y0174580D01*
X0200080Y0174580D02*
X0200080Y0181020D01*
X0205520Y0181020D01*
X0205520Y0174580D01*
X0205520Y0175939D02*
X0200080Y0175939D01*
X0200080Y0177298D02*
X0205520Y0177298D01*
X0205520Y0178657D02*
X0200080Y0178657D01*
X0200080Y0180016D02*
X0205520Y0180016D01*
X0208080Y0174580D02*
X0213520Y0174580D01*
X0208080Y0174580D02*
X0208080Y0181020D01*
X0213520Y0181020D01*
X0213520Y0174580D01*
X0213520Y0175939D02*
X0208080Y0175939D01*
X0208080Y0177298D02*
X0213520Y0177298D01*
X0213520Y0178657D02*
X0208080Y0178657D01*
X0208080Y0180016D02*
X0213520Y0180016D01*
D20*
X0152312Y0221800D03*
X0141288Y0221800D03*
X0276288Y0076800D03*
X0287312Y0076800D03*
D21*
X0301564Y0074300D03*
X0301564Y0079300D03*
X0301564Y0084300D03*
X0301564Y0069300D03*
X0322036Y0069300D03*
X0322036Y0074300D03*
X0322036Y0079300D03*
X0322036Y0084300D03*
D22*
X0051800Y0076800D03*
X0051800Y0271800D03*
X0051800Y0326800D03*
D23*
X0051800Y0313020D03*
X0051800Y0299241D03*
X0051800Y0258020D03*
X0051800Y0244241D03*
X0051800Y0063020D03*
X0051800Y0049241D03*
D24*
X0157706Y0292469D02*
X0165580Y0292469D01*
X0141957Y0300343D02*
X0141957Y0308217D01*
X0157706Y0317272D02*
X0165580Y0317272D01*
D25*
X0286800Y0191800D03*
X0286800Y0121800D03*
D26*
X0016800Y0016800D03*
X0016800Y0331800D03*
X0386800Y0331800D03*
X0386800Y0016800D03*
D27*
X0141800Y0196800D03*
D28*
X0151800Y0196800D03*
D29*
X0108498Y0187259D02*
X0108550Y0186880D01*
X0108515Y0186479D01*
X0108392Y0186097D01*
X0108186Y0185751D01*
X0107909Y0185460D01*
X0107574Y0185237D01*
X0107198Y0185095D01*
X0106800Y0185040D01*
X0106407Y0185091D01*
X0106035Y0185228D01*
X0105703Y0185445D01*
X0105428Y0185730D01*
X0105223Y0186069D01*
X0105098Y0186445D01*
X0105060Y0186840D01*
X0105107Y0187223D01*
X0105237Y0187587D01*
X0105446Y0187912D01*
X0105721Y0188183D01*
X0106050Y0188386D01*
X0106416Y0188510D01*
X0106800Y0188550D01*
X0107182Y0188516D01*
X0107546Y0188398D01*
X0107875Y0188202D01*
X0108152Y0187937D01*
X0108363Y0187618D01*
X0108498Y0187259D01*
X0108512Y0187157D02*
X0105099Y0187157D01*
X0105078Y0186658D02*
X0108531Y0186658D01*
X0108412Y0186160D02*
X0105192Y0186160D01*
X0105494Y0185661D02*
X0108101Y0185661D01*
X0107377Y0185163D02*
X0106213Y0185163D01*
X0105281Y0187655D02*
X0108339Y0187655D01*
X0107925Y0188154D02*
X0105692Y0188154D01*
X0106800Y0173550D02*
X0106416Y0173510D01*
X0106050Y0173386D01*
X0105721Y0173183D01*
X0105446Y0172912D01*
X0105237Y0172587D01*
X0105107Y0172223D01*
X0105060Y0171840D01*
X0105098Y0171445D01*
X0105223Y0171069D01*
X0105428Y0170730D01*
X0105703Y0170445D01*
X0106035Y0170228D01*
X0106407Y0170091D01*
X0106800Y0170040D01*
X0107198Y0170095D01*
X0107574Y0170237D01*
X0107909Y0170460D01*
X0108186Y0170751D01*
X0108392Y0171097D01*
X0108515Y0171479D01*
X0108550Y0171880D01*
X0108498Y0172259D01*
X0108363Y0172618D01*
X0108152Y0172937D01*
X0107875Y0173202D01*
X0107546Y0173398D01*
X0107182Y0173516D01*
X0106800Y0173550D01*
X0105747Y0173199D02*
X0107878Y0173199D01*
X0108309Y0172700D02*
X0105310Y0172700D01*
X0105104Y0172202D02*
X0108506Y0172202D01*
X0108535Y0171703D02*
X0105073Y0171703D01*
X0105178Y0171205D02*
X0108426Y0171205D01*
X0108144Y0170706D02*
X0105451Y0170706D01*
X0106092Y0170208D02*
X0107495Y0170208D01*
X0078520Y0171850D02*
X0078485Y0171449D01*
X0078362Y0171067D01*
X0078156Y0170721D01*
X0077879Y0170430D01*
X0077544Y0170207D01*
X0077168Y0170065D01*
X0076770Y0170010D01*
X0076377Y0170061D01*
X0076005Y0170198D01*
X0075673Y0170415D01*
X0075398Y0170700D01*
X0075193Y0171039D01*
X0075068Y0171415D01*
X0075030Y0171810D01*
X0075077Y0172193D01*
X0075207Y0172557D01*
X0075416Y0172882D01*
X0075691Y0173153D01*
X0076020Y0173356D01*
X0076386Y0173480D01*
X0076770Y0173520D01*
X0077152Y0173486D01*
X0077516Y0173368D01*
X0077845Y0173172D01*
X0078122Y0172908D01*
X0078333Y0172588D01*
X0078468Y0172230D01*
X0078520Y0171850D01*
X0078507Y0171703D02*
X0075041Y0171703D01*
X0075080Y0172202D02*
X0078472Y0172202D01*
X0078259Y0172700D02*
X0075299Y0172700D01*
X0075765Y0173199D02*
X0077800Y0173199D01*
X0078406Y0171205D02*
X0075138Y0171205D01*
X0075394Y0170706D02*
X0078142Y0170706D01*
X0077544Y0170208D02*
X0075991Y0170208D01*
X0076770Y0185010D02*
X0076377Y0185061D01*
X0076005Y0185198D01*
X0075673Y0185415D01*
X0075398Y0185700D01*
X0075193Y0186039D01*
X0075068Y0186415D01*
X0075030Y0186810D01*
X0075077Y0187193D01*
X0075207Y0187557D01*
X0075416Y0187882D01*
X0075691Y0188153D01*
X0076020Y0188356D01*
X0076386Y0188480D01*
X0076770Y0188520D01*
X0077152Y0188486D01*
X0077516Y0188368D01*
X0077845Y0188172D01*
X0078122Y0187908D01*
X0078333Y0187588D01*
X0078468Y0187230D01*
X0078520Y0186850D01*
X0078485Y0186449D01*
X0078362Y0186067D01*
X0078156Y0185721D01*
X0077879Y0185430D01*
X0077544Y0185207D01*
X0077168Y0185065D01*
X0076770Y0185010D01*
X0077426Y0185163D02*
X0076102Y0185163D01*
X0075435Y0185661D02*
X0078100Y0185661D01*
X0078392Y0186160D02*
X0075153Y0186160D01*
X0075045Y0186658D02*
X0078503Y0186658D01*
X0078478Y0187157D02*
X0075072Y0187157D01*
X0075271Y0187655D02*
X0078289Y0187655D01*
X0077864Y0188154D02*
X0075693Y0188154D01*
X0076770Y0118520D02*
X0076386Y0118480D01*
X0076020Y0118356D01*
X0075691Y0118153D01*
X0075416Y0117882D01*
X0075207Y0117557D01*
X0075077Y0117193D01*
X0075030Y0116810D01*
X0075068Y0116415D01*
X0075193Y0116039D01*
X0075398Y0115700D01*
X0075673Y0115415D01*
X0076005Y0115198D01*
X0076377Y0115061D01*
X0076770Y0115010D01*
X0077168Y0115065D01*
X0077544Y0115207D01*
X0077879Y0115430D01*
X0078156Y0115721D01*
X0078362Y0116067D01*
X0078485Y0116449D01*
X0078520Y0116850D01*
X0078468Y0117230D01*
X0078333Y0117588D01*
X0078122Y0117908D01*
X0077845Y0118172D01*
X0077516Y0118368D01*
X0077152Y0118486D01*
X0076770Y0118520D01*
X0076040Y0118362D02*
X0077526Y0118362D01*
X0078151Y0117864D02*
X0075404Y0117864D01*
X0075139Y0117365D02*
X0078417Y0117365D01*
X0078518Y0116867D02*
X0075037Y0116867D01*
X0075084Y0116368D02*
X0078459Y0116368D01*
X0078245Y0115870D02*
X0075295Y0115870D01*
X0075740Y0115371D02*
X0077791Y0115371D01*
X0076770Y0103520D02*
X0076386Y0103480D01*
X0076020Y0103356D01*
X0075691Y0103153D01*
X0075416Y0102882D01*
X0075207Y0102557D01*
X0075077Y0102193D01*
X0075030Y0101810D01*
X0075068Y0101415D01*
X0075193Y0101039D01*
X0075398Y0100700D01*
X0075673Y0100415D01*
X0076005Y0100198D01*
X0076377Y0100061D01*
X0076770Y0100010D01*
X0077168Y0100065D01*
X0077544Y0100207D01*
X0077879Y0100430D01*
X0078156Y0100721D01*
X0078362Y0101067D01*
X0078485Y0101449D01*
X0078520Y0101850D01*
X0078468Y0102230D01*
X0078333Y0102588D01*
X0078122Y0102908D01*
X0077845Y0103172D01*
X0077516Y0103368D01*
X0077152Y0103486D01*
X0076770Y0103520D01*
X0076171Y0103407D02*
X0077396Y0103407D01*
X0078121Y0102908D02*
X0075443Y0102908D01*
X0075155Y0102410D02*
X0078400Y0102410D01*
X0078512Y0101911D02*
X0075043Y0101911D01*
X0075069Y0101413D02*
X0078473Y0101413D01*
X0078271Y0100914D02*
X0075268Y0100914D01*
X0075672Y0100416D02*
X0077858Y0100416D01*
X0105060Y0101840D02*
X0105107Y0102223D01*
X0105237Y0102587D01*
X0105446Y0102912D01*
X0105721Y0103183D01*
X0106050Y0103386D01*
X0106416Y0103510D01*
X0106800Y0103550D01*
X0107182Y0103516D01*
X0107546Y0103398D01*
X0107875Y0103202D01*
X0108152Y0102937D01*
X0108363Y0102618D01*
X0108498Y0102259D01*
X0108550Y0101880D01*
X0108515Y0101479D01*
X0108392Y0101097D01*
X0108186Y0100751D01*
X0107909Y0100460D01*
X0107574Y0100237D01*
X0107198Y0100095D01*
X0106800Y0100040D01*
X0106407Y0100091D01*
X0106035Y0100228D01*
X0105703Y0100445D01*
X0105428Y0100730D01*
X0105223Y0101069D01*
X0105098Y0101445D01*
X0105060Y0101840D01*
X0105069Y0101911D02*
X0108546Y0101911D01*
X0108494Y0101413D02*
X0105109Y0101413D01*
X0105316Y0100914D02*
X0108283Y0100914D01*
X0107843Y0100416D02*
X0105748Y0100416D01*
X0105174Y0102410D02*
X0108442Y0102410D01*
X0108171Y0102908D02*
X0105443Y0102908D01*
X0106113Y0103407D02*
X0107518Y0103407D01*
X0106800Y0115040D02*
X0106407Y0115091D01*
X0106035Y0115228D01*
X0105703Y0115445D01*
X0105428Y0115730D01*
X0105223Y0116069D01*
X0105098Y0116445D01*
X0105060Y0116840D01*
X0105107Y0117223D01*
X0105237Y0117587D01*
X0105446Y0117912D01*
X0105721Y0118183D01*
X0106050Y0118386D01*
X0106416Y0118510D01*
X0106800Y0118550D01*
X0107182Y0118516D01*
X0107546Y0118398D01*
X0107875Y0118202D01*
X0108152Y0117937D01*
X0108363Y0117618D01*
X0108498Y0117259D01*
X0108550Y0116880D01*
X0108515Y0116479D01*
X0108392Y0116097D01*
X0108186Y0115751D01*
X0107909Y0115460D01*
X0107574Y0115237D01*
X0107198Y0115095D01*
X0106800Y0115040D01*
X0107776Y0115371D02*
X0105816Y0115371D01*
X0105343Y0115870D02*
X0108257Y0115870D01*
X0108479Y0116368D02*
X0105123Y0116368D01*
X0105064Y0116867D02*
X0108549Y0116867D01*
X0108458Y0117365D02*
X0105158Y0117365D01*
X0105415Y0117864D02*
X0108201Y0117864D01*
X0107606Y0118362D02*
X0106012Y0118362D01*
D30*
X0126800Y0116800D03*
X0136800Y0116800D03*
X0191800Y0091800D03*
X0261800Y0106800D03*
X0291800Y0086800D03*
X0276800Y0061800D03*
X0321800Y0101800D03*
X0321800Y0131800D03*
X0286800Y0166800D03*
X0301800Y0171800D03*
X0286800Y0181800D03*
X0276800Y0191800D03*
X0271800Y0186800D03*
X0261800Y0166800D03*
X0276800Y0141800D03*
X0241800Y0216800D03*
X0341800Y0241800D03*
X0126800Y0226800D03*
D31*
X0196800Y0251800D03*
X0196800Y0261800D03*
X0196800Y0271800D03*
X0196800Y0281800D03*
X0196800Y0291800D03*
X0196800Y0301800D03*
X0196800Y0311800D03*
X0196800Y0321800D03*
X0196800Y0331800D03*
X0206800Y0331800D03*
X0216800Y0331800D03*
X0216800Y0321800D03*
X0206800Y0321800D03*
X0206800Y0311800D03*
X0216800Y0311800D03*
X0216800Y0301800D03*
X0206800Y0301800D03*
X0206800Y0291800D03*
X0206800Y0281800D03*
X0216800Y0281800D03*
X0216800Y0291800D03*
X0226800Y0291800D03*
X0226800Y0281800D03*
X0236800Y0281800D03*
X0236800Y0291800D03*
X0236800Y0301800D03*
X0226800Y0301800D03*
X0226800Y0311800D03*
X0236800Y0311800D03*
X0236800Y0321800D03*
X0226800Y0321800D03*
X0226800Y0331800D03*
X0236800Y0331800D03*
X0246800Y0331800D03*
X0256800Y0331800D03*
X0256800Y0321800D03*
X0246800Y0321800D03*
X0246800Y0311800D03*
X0256800Y0311800D03*
X0256800Y0301800D03*
X0246800Y0301800D03*
X0246800Y0291800D03*
X0246800Y0281800D03*
X0256800Y0281800D03*
X0256800Y0291800D03*
X0266800Y0291800D03*
X0266800Y0281800D03*
X0276800Y0281800D03*
X0276800Y0291800D03*
X0276800Y0301800D03*
X0266800Y0301800D03*
X0266800Y0311800D03*
X0276800Y0311800D03*
X0276800Y0321800D03*
X0266800Y0321800D03*
X0266800Y0331800D03*
X0276800Y0331800D03*
X0286800Y0331800D03*
X0296800Y0331800D03*
X0296800Y0321800D03*
X0286800Y0321800D03*
X0286800Y0311800D03*
X0296800Y0311800D03*
X0296800Y0301800D03*
X0286800Y0301800D03*
X0286800Y0291800D03*
X0286800Y0281800D03*
X0296800Y0281800D03*
X0296800Y0291800D03*
X0306800Y0291800D03*
X0306800Y0281800D03*
X0316800Y0281800D03*
X0316800Y0291800D03*
X0326800Y0291800D03*
X0326800Y0281800D03*
X0326800Y0271800D03*
X0316800Y0271800D03*
X0306800Y0271800D03*
X0306800Y0261800D03*
X0316800Y0261800D03*
X0326800Y0261800D03*
X0326800Y0251800D03*
X0316800Y0251800D03*
X0306800Y0251800D03*
X0296800Y0251800D03*
X0286800Y0251800D03*
X0286800Y0261800D03*
X0296800Y0261800D03*
X0296800Y0271800D03*
X0286800Y0271800D03*
X0276800Y0271800D03*
X0266800Y0271800D03*
X0266800Y0261800D03*
X0276800Y0261800D03*
X0276800Y0251800D03*
X0266800Y0251800D03*
X0256800Y0251800D03*
X0246800Y0251800D03*
X0246800Y0261800D03*
X0256800Y0261800D03*
X0256800Y0271800D03*
X0246800Y0271800D03*
X0236800Y0271800D03*
X0226800Y0271800D03*
X0226800Y0261800D03*
X0236800Y0261800D03*
X0236800Y0251800D03*
X0226800Y0251800D03*
X0216800Y0251800D03*
X0206800Y0251800D03*
X0206800Y0261800D03*
X0216800Y0261800D03*
X0216800Y0271800D03*
X0206800Y0271800D03*
X0306800Y0301800D03*
X0316800Y0301800D03*
X0326800Y0301800D03*
X0326800Y0311800D03*
X0316800Y0311800D03*
X0306800Y0311800D03*
X0306800Y0321800D03*
X0316800Y0321800D03*
X0326800Y0321800D03*
X0326800Y0331800D03*
X0316800Y0331800D03*
X0306800Y0331800D03*
X0336800Y0331800D03*
X0346800Y0331800D03*
X0346800Y0321800D03*
X0336800Y0321800D03*
X0336800Y0311800D03*
X0346800Y0311800D03*
X0346800Y0301800D03*
X0336800Y0301800D03*
X0336800Y0291800D03*
X0336800Y0281800D03*
X0346800Y0281800D03*
X0346800Y0291800D03*
X0356800Y0291800D03*
X0356800Y0281800D03*
X0366800Y0281800D03*
X0366800Y0291800D03*
X0366800Y0301800D03*
X0356800Y0301800D03*
X0356800Y0311800D03*
X0366800Y0311800D03*
X0366800Y0321800D03*
X0356800Y0321800D03*
X0356800Y0331800D03*
X0366800Y0331800D03*
X0376800Y0311800D03*
X0386800Y0311800D03*
X0386800Y0301800D03*
X0376800Y0301800D03*
X0376800Y0291800D03*
X0376800Y0281800D03*
X0386800Y0281800D03*
X0386800Y0291800D03*
X0386800Y0271800D03*
X0376800Y0271800D03*
X0376800Y0261800D03*
X0386800Y0261800D03*
X0386800Y0251800D03*
X0376800Y0251800D03*
X0366800Y0251800D03*
X0356800Y0251800D03*
X0356800Y0261800D03*
X0366800Y0261800D03*
X0366800Y0271800D03*
X0356800Y0271800D03*
X0346800Y0271800D03*
X0336800Y0271800D03*
X0336800Y0261800D03*
X0346800Y0261800D03*
X0346800Y0251800D03*
X0336800Y0251800D03*
M02*
