G75*
%MOIN*%
%OFA0B0*%
%FSLAX25Y25*%
%IPPOS*%
%LPD*%
%AMOC8*
5,1,8,0,0,1.08239X$1,22.5*
%
%ADD10R,0.08800X0.08800*%
%ADD11C,0.08800*%
%ADD12C,0.08200*%
%ADD13R,0.10300X0.10300*%
%ADD14C,0.10300*%
%ADD15C,0.08674*%
%ADD16R,0.08200X0.08200*%
%ADD17C,0.13800*%
%ADD18C,0.07300*%
%ADD19R,0.07300X0.07300*%
%ADD20C,0.00500*%
%ADD21C,0.04762*%
%ADD22C,0.06800*%
D10*
X0051800Y0146800D03*
X0051800Y0216800D03*
X0361800Y0186800D03*
X0361800Y0116800D03*
X0361800Y0076800D03*
X0361800Y0036800D03*
D11*
X0361800Y0050580D03*
X0361800Y0090580D03*
X0361800Y0130580D03*
X0361800Y0144359D03*
X0361800Y0158139D03*
X0361800Y0200580D03*
X0361800Y0214359D03*
X0361800Y0228139D03*
X0051800Y0203020D03*
X0051800Y0189241D03*
X0051800Y0175461D03*
X0051800Y0133020D03*
X0051800Y0119241D03*
X0051800Y0105461D03*
D12*
X0081800Y0041800D03*
X0091800Y0041800D03*
X0151800Y0056800D03*
X0151800Y0066800D03*
X0151800Y0076800D03*
X0151800Y0086800D03*
X0151800Y0096800D03*
X0151800Y0106800D03*
X0151800Y0116800D03*
X0151800Y0126800D03*
X0151800Y0136800D03*
X0151800Y0146800D03*
X0151800Y0156800D03*
X0151800Y0166800D03*
X0261800Y0166800D03*
X0261800Y0156800D03*
X0261800Y0146800D03*
X0261800Y0136800D03*
X0261800Y0126800D03*
X0261800Y0116800D03*
X0261800Y0106800D03*
X0261800Y0096800D03*
X0261800Y0086800D03*
X0261800Y0076800D03*
X0261800Y0066800D03*
X0261800Y0056800D03*
X0296800Y0121800D03*
X0306800Y0121800D03*
X0306800Y0191800D03*
X0296800Y0191800D03*
X0261800Y0211800D03*
X0261800Y0221800D03*
X0261800Y0231800D03*
X0101800Y0326800D03*
X0091800Y0326800D03*
X0081800Y0326800D03*
D13*
X0051800Y0326800D03*
X0051800Y0271800D03*
X0051800Y0076800D03*
D14*
X0051800Y0063020D03*
X0051800Y0049241D03*
X0051800Y0244241D03*
X0051800Y0258020D03*
X0051800Y0299241D03*
X0051800Y0313020D03*
D15*
X0141957Y0308217D02*
X0141957Y0300343D01*
X0157706Y0292469D02*
X0165580Y0292469D01*
X0165580Y0317272D02*
X0157706Y0317272D01*
D16*
X0286800Y0191800D03*
X0286800Y0121800D03*
D17*
X0016800Y0016800D03*
X0016800Y0331800D03*
X0386800Y0331800D03*
X0386800Y0016800D03*
D18*
X0141800Y0196800D03*
D19*
X0151800Y0196800D03*
D20*
X0110469Y0187613D02*
X0110550Y0186890D01*
X0110500Y0186230D01*
X0110336Y0185589D01*
X0110064Y0184986D01*
X0109691Y0184440D01*
X0109229Y0183966D01*
X0108691Y0183581D01*
X0108095Y0183294D01*
X0107458Y0183115D01*
X0106800Y0183050D01*
X0106142Y0183117D01*
X0105505Y0183297D01*
X0104910Y0183586D01*
X0104373Y0183973D01*
X0103912Y0184448D01*
X0103541Y0184995D01*
X0103270Y0185599D01*
X0103108Y0186240D01*
X0103060Y0186900D01*
X0103138Y0187619D01*
X0103356Y0188309D01*
X0103704Y0188944D01*
X0104169Y0189498D01*
X0104733Y0189951D01*
X0105375Y0190285D01*
X0106069Y0190487D01*
X0106790Y0190550D01*
X0107515Y0190488D01*
X0108214Y0190287D01*
X0108860Y0189952D01*
X0109428Y0189498D01*
X0109897Y0188942D01*
X0110248Y0188306D01*
X0110469Y0187613D01*
X0110455Y0187655D02*
X0103150Y0187655D01*
X0103088Y0187157D02*
X0110520Y0187157D01*
X0110532Y0186658D02*
X0103077Y0186658D01*
X0103128Y0186160D02*
X0110482Y0186160D01*
X0110355Y0185661D02*
X0103254Y0185661D01*
X0103465Y0185163D02*
X0110144Y0185163D01*
X0109844Y0184664D02*
X0103765Y0184664D01*
X0104186Y0184166D02*
X0109424Y0184166D01*
X0108812Y0183667D02*
X0104797Y0183667D01*
X0105959Y0183169D02*
X0107650Y0183169D01*
X0110296Y0188154D02*
X0103307Y0188154D01*
X0103544Y0188652D02*
X0110057Y0188652D01*
X0109721Y0189151D02*
X0103878Y0189151D01*
X0104358Y0189649D02*
X0109239Y0189649D01*
X0108482Y0190148D02*
X0105112Y0190148D01*
X0106069Y0175487D02*
X0106790Y0175550D01*
X0107515Y0175488D01*
X0108214Y0175287D01*
X0108860Y0174952D01*
X0109428Y0174498D01*
X0109897Y0173942D01*
X0110248Y0173306D01*
X0110469Y0172613D01*
X0110550Y0171890D01*
X0110500Y0171230D01*
X0110336Y0170589D01*
X0110064Y0169986D01*
X0109691Y0169440D01*
X0109229Y0168966D01*
X0108691Y0168581D01*
X0108095Y0168294D01*
X0107458Y0168115D01*
X0106800Y0168050D01*
X0106142Y0168117D01*
X0105505Y0168297D01*
X0104910Y0168586D01*
X0104373Y0168973D01*
X0103912Y0169448D01*
X0103541Y0169995D01*
X0103270Y0170599D01*
X0103108Y0171240D01*
X0103060Y0171900D01*
X0103138Y0172619D01*
X0103356Y0173309D01*
X0103704Y0173944D01*
X0104169Y0174498D01*
X0104733Y0174951D01*
X0105375Y0175285D01*
X0106069Y0175487D01*
X0105198Y0175193D02*
X0108395Y0175193D01*
X0109183Y0174694D02*
X0104413Y0174694D01*
X0103915Y0174196D02*
X0109683Y0174196D01*
X0110032Y0173697D02*
X0103569Y0173697D01*
X0103321Y0173199D02*
X0110282Y0173199D01*
X0110441Y0172700D02*
X0103164Y0172700D01*
X0103093Y0172202D02*
X0110515Y0172202D01*
X0110536Y0171703D02*
X0103074Y0171703D01*
X0103117Y0171205D02*
X0110493Y0171205D01*
X0110366Y0170706D02*
X0103243Y0170706D01*
X0103445Y0170208D02*
X0110164Y0170208D01*
X0109875Y0169709D02*
X0103735Y0169709D01*
X0104143Y0169210D02*
X0109467Y0169210D01*
X0108874Y0168712D02*
X0104735Y0168712D01*
X0105801Y0168213D02*
X0107809Y0168213D01*
X0080470Y0171200D02*
X0080306Y0170559D01*
X0080034Y0169956D01*
X0079661Y0169410D01*
X0079199Y0168937D01*
X0078662Y0168551D01*
X0078065Y0168264D01*
X0077428Y0168085D01*
X0076770Y0168020D01*
X0076112Y0168087D01*
X0075475Y0168267D01*
X0074880Y0168556D01*
X0074343Y0168943D01*
X0073882Y0169418D01*
X0073511Y0169965D01*
X0073240Y0170569D01*
X0073078Y0171210D01*
X0073030Y0171870D01*
X0073109Y0172589D01*
X0073326Y0173279D01*
X0073674Y0173914D01*
X0074139Y0174468D01*
X0074703Y0174921D01*
X0075345Y0175255D01*
X0076039Y0175457D01*
X0076760Y0175520D01*
X0077485Y0175458D01*
X0078184Y0175257D01*
X0078830Y0174922D01*
X0079398Y0174469D01*
X0079867Y0173913D01*
X0080218Y0173276D01*
X0080439Y0172583D01*
X0080520Y0171860D01*
X0080470Y0171200D01*
X0080470Y0171205D02*
X0073079Y0171205D01*
X0073042Y0171703D02*
X0080508Y0171703D01*
X0080481Y0172202D02*
X0073066Y0172202D01*
X0073143Y0172700D02*
X0080401Y0172700D01*
X0080243Y0173199D02*
X0073301Y0173199D01*
X0073555Y0173697D02*
X0079986Y0173697D01*
X0079628Y0174196D02*
X0073910Y0174196D01*
X0074421Y0174694D02*
X0079116Y0174694D01*
X0078307Y0175193D02*
X0075225Y0175193D01*
X0073205Y0170706D02*
X0080344Y0170706D01*
X0080148Y0170208D02*
X0073402Y0170208D01*
X0073685Y0169709D02*
X0079865Y0169709D01*
X0079466Y0169210D02*
X0074084Y0169210D01*
X0074663Y0168712D02*
X0078886Y0168712D01*
X0077886Y0168213D02*
X0075666Y0168213D01*
X0076770Y0183020D02*
X0076112Y0183087D01*
X0075475Y0183267D01*
X0074880Y0183556D01*
X0074343Y0183943D01*
X0073882Y0184418D01*
X0073511Y0184965D01*
X0073240Y0185569D01*
X0073078Y0186210D01*
X0073030Y0186870D01*
X0073109Y0187589D01*
X0073326Y0188279D01*
X0073674Y0188914D01*
X0074139Y0189468D01*
X0074703Y0189921D01*
X0075345Y0190255D01*
X0076039Y0190457D01*
X0076760Y0190520D01*
X0077485Y0190458D01*
X0078184Y0190257D01*
X0078830Y0189922D01*
X0079398Y0189469D01*
X0079867Y0188913D01*
X0080218Y0188276D01*
X0080439Y0187583D01*
X0080520Y0186860D01*
X0080470Y0186200D01*
X0080306Y0185559D01*
X0080034Y0184956D01*
X0079661Y0184410D01*
X0079199Y0183937D01*
X0078662Y0183551D01*
X0078065Y0183264D01*
X0077428Y0183085D01*
X0076770Y0183020D01*
X0075823Y0183169D02*
X0077726Y0183169D01*
X0078824Y0183667D02*
X0074725Y0183667D01*
X0074127Y0184166D02*
X0079423Y0184166D01*
X0079835Y0184664D02*
X0073715Y0184664D01*
X0073422Y0185163D02*
X0080127Y0185163D01*
X0080332Y0185661D02*
X0073217Y0185661D01*
X0073091Y0186160D02*
X0080460Y0186160D01*
X0080505Y0186658D02*
X0073045Y0186658D01*
X0073061Y0187157D02*
X0080486Y0187157D01*
X0080416Y0187655D02*
X0073129Y0187655D01*
X0073286Y0188154D02*
X0080257Y0188154D01*
X0080010Y0188652D02*
X0073531Y0188652D01*
X0073873Y0189151D02*
X0079666Y0189151D01*
X0079172Y0189649D02*
X0074365Y0189649D01*
X0075140Y0190148D02*
X0078394Y0190148D01*
X0076760Y0120520D02*
X0076039Y0120457D01*
X0075345Y0120255D01*
X0074703Y0119921D01*
X0074139Y0119468D01*
X0073674Y0118914D01*
X0073326Y0118279D01*
X0073109Y0117589D01*
X0073030Y0116870D01*
X0073078Y0116210D01*
X0073240Y0115569D01*
X0073511Y0114965D01*
X0073882Y0114418D01*
X0074343Y0113943D01*
X0074880Y0113556D01*
X0075475Y0113267D01*
X0076112Y0113087D01*
X0076770Y0113020D01*
X0077428Y0113085D01*
X0078065Y0113264D01*
X0078662Y0113551D01*
X0079199Y0113937D01*
X0079661Y0114410D01*
X0080034Y0114956D01*
X0080306Y0115559D01*
X0080470Y0116200D01*
X0080520Y0116860D01*
X0080439Y0117583D01*
X0080218Y0118276D01*
X0079867Y0118913D01*
X0079398Y0119469D01*
X0078830Y0119922D01*
X0078184Y0120257D01*
X0077485Y0120458D01*
X0076760Y0120520D01*
X0075694Y0120356D02*
X0077838Y0120356D01*
X0078911Y0119858D02*
X0074625Y0119858D01*
X0074048Y0119359D02*
X0079490Y0119359D01*
X0079895Y0118861D02*
X0073645Y0118861D01*
X0073372Y0118362D02*
X0080171Y0118362D01*
X0080349Y0117864D02*
X0073195Y0117864D01*
X0073084Y0117365D02*
X0080463Y0117365D01*
X0080519Y0116867D02*
X0073030Y0116867D01*
X0073066Y0116368D02*
X0080483Y0116368D01*
X0080386Y0115870D02*
X0073164Y0115870D01*
X0073329Y0115371D02*
X0080222Y0115371D01*
X0079977Y0114873D02*
X0073573Y0114873D01*
X0073925Y0114374D02*
X0079626Y0114374D01*
X0079114Y0113876D02*
X0074437Y0113876D01*
X0075249Y0113377D02*
X0078301Y0113377D01*
X0077485Y0105458D02*
X0078184Y0105257D01*
X0078830Y0104922D01*
X0079398Y0104469D01*
X0079867Y0103913D01*
X0080218Y0103276D01*
X0080439Y0102583D01*
X0080520Y0101860D01*
X0080470Y0101200D01*
X0080306Y0100559D01*
X0080034Y0099956D01*
X0079661Y0099410D01*
X0079199Y0098937D01*
X0078662Y0098551D01*
X0078065Y0098264D01*
X0077428Y0098085D01*
X0076770Y0098020D01*
X0076112Y0098087D01*
X0075475Y0098267D01*
X0074880Y0098556D01*
X0074343Y0098943D01*
X0073882Y0099418D01*
X0073511Y0099965D01*
X0073240Y0100569D01*
X0073078Y0101210D01*
X0073030Y0101870D01*
X0073109Y0102589D01*
X0073326Y0103279D01*
X0073674Y0103914D01*
X0074139Y0104468D01*
X0074703Y0104921D01*
X0075345Y0105255D01*
X0076039Y0105457D01*
X0076760Y0105520D01*
X0077485Y0105458D01*
X0077684Y0105401D02*
X0075847Y0105401D01*
X0074680Y0104903D02*
X0078855Y0104903D01*
X0079452Y0104404D02*
X0074085Y0104404D01*
X0073669Y0103905D02*
X0079871Y0103905D01*
X0080146Y0103407D02*
X0073396Y0103407D01*
X0073209Y0102908D02*
X0080335Y0102908D01*
X0080458Y0102410D02*
X0073089Y0102410D01*
X0073034Y0101911D02*
X0080514Y0101911D01*
X0080486Y0101413D02*
X0073063Y0101413D01*
X0073153Y0100914D02*
X0080397Y0100914D01*
X0080242Y0100416D02*
X0073309Y0100416D01*
X0073543Y0099917D02*
X0080008Y0099917D01*
X0079667Y0099419D02*
X0073882Y0099419D01*
X0074375Y0098920D02*
X0079176Y0098920D01*
X0078394Y0098422D02*
X0075156Y0098422D01*
X0103108Y0101240D02*
X0103060Y0101900D01*
X0103138Y0102619D01*
X0103356Y0103309D01*
X0103704Y0103944D01*
X0104169Y0104498D01*
X0104733Y0104951D01*
X0105375Y0105285D01*
X0106069Y0105487D01*
X0106790Y0105550D01*
X0107515Y0105488D01*
X0108214Y0105287D01*
X0108860Y0104952D01*
X0109428Y0104498D01*
X0109897Y0103942D01*
X0110248Y0103306D01*
X0110469Y0102613D01*
X0110550Y0101890D01*
X0110500Y0101230D01*
X0110336Y0100589D01*
X0110064Y0099986D01*
X0109691Y0099440D01*
X0109229Y0098966D01*
X0108691Y0098581D01*
X0108095Y0098294D01*
X0107458Y0098115D01*
X0106800Y0098050D01*
X0106142Y0098117D01*
X0105505Y0098297D01*
X0104910Y0098586D01*
X0104373Y0098973D01*
X0103912Y0099448D01*
X0103541Y0099995D01*
X0103270Y0100599D01*
X0103108Y0101240D01*
X0103095Y0101413D02*
X0110514Y0101413D01*
X0110547Y0101911D02*
X0103061Y0101911D01*
X0103116Y0102410D02*
X0110491Y0102410D01*
X0110375Y0102908D02*
X0103230Y0102908D01*
X0103410Y0103407D02*
X0110192Y0103407D01*
X0109917Y0103905D02*
X0103683Y0103905D01*
X0104090Y0104404D02*
X0109508Y0104404D01*
X0108922Y0104903D02*
X0104673Y0104903D01*
X0105774Y0105401D02*
X0107817Y0105401D01*
X0110419Y0100914D02*
X0103190Y0100914D01*
X0103352Y0100416D02*
X0110258Y0100416D01*
X0110017Y0099917D02*
X0103593Y0099917D01*
X0103940Y0099419D02*
X0109671Y0099419D01*
X0109165Y0098920D02*
X0104446Y0098920D01*
X0105248Y0098422D02*
X0108361Y0098422D01*
X0106800Y0113050D02*
X0106142Y0113117D01*
X0105505Y0113297D01*
X0104910Y0113586D01*
X0104373Y0113973D01*
X0103912Y0114448D01*
X0103541Y0114995D01*
X0103270Y0115599D01*
X0103108Y0116240D01*
X0103060Y0116900D01*
X0103138Y0117619D01*
X0103356Y0118309D01*
X0103704Y0118944D01*
X0104169Y0119498D01*
X0104733Y0119951D01*
X0105375Y0120285D01*
X0106069Y0120487D01*
X0106790Y0120550D01*
X0107515Y0120488D01*
X0108214Y0120287D01*
X0108860Y0119952D01*
X0109428Y0119498D01*
X0109897Y0118942D01*
X0110248Y0118306D01*
X0110469Y0117613D01*
X0110550Y0116890D01*
X0110500Y0116230D01*
X0110336Y0115589D01*
X0110064Y0114986D01*
X0109691Y0114440D01*
X0109229Y0113966D01*
X0108691Y0113581D01*
X0108095Y0113294D01*
X0107458Y0113115D01*
X0106800Y0113050D01*
X0105340Y0113377D02*
X0108269Y0113377D01*
X0109103Y0113876D02*
X0104508Y0113876D01*
X0103984Y0114374D02*
X0109627Y0114374D01*
X0109987Y0114873D02*
X0103624Y0114873D01*
X0103372Y0115371D02*
X0110238Y0115371D01*
X0110408Y0115870D02*
X0103201Y0115870D01*
X0103099Y0116368D02*
X0110510Y0116368D01*
X0110548Y0116867D02*
X0103062Y0116867D01*
X0103111Y0117365D02*
X0110496Y0117365D01*
X0110389Y0117864D02*
X0103216Y0117864D01*
X0103385Y0118362D02*
X0110217Y0118362D01*
X0109942Y0118861D02*
X0103658Y0118861D01*
X0104053Y0119359D02*
X0109545Y0119359D01*
X0108978Y0119858D02*
X0104617Y0119858D01*
X0105621Y0120356D02*
X0107972Y0120356D01*
D21*
X0126800Y0116800D03*
X0136800Y0116800D03*
X0191800Y0091800D03*
X0261800Y0106800D03*
X0291800Y0086800D03*
X0276800Y0061800D03*
X0321800Y0101800D03*
X0321800Y0131800D03*
X0286800Y0166800D03*
X0301800Y0171800D03*
X0286800Y0181800D03*
X0276800Y0191800D03*
X0271800Y0186800D03*
X0261800Y0166800D03*
X0276800Y0141800D03*
X0241800Y0216800D03*
X0341800Y0241800D03*
X0126800Y0226800D03*
D22*
X0196800Y0251800D03*
X0196800Y0261800D03*
X0196800Y0271800D03*
X0196800Y0281800D03*
X0196800Y0291800D03*
X0196800Y0301800D03*
X0196800Y0311800D03*
X0196800Y0321800D03*
X0196800Y0331800D03*
X0206800Y0331800D03*
X0216800Y0331800D03*
X0216800Y0321800D03*
X0206800Y0321800D03*
X0206800Y0311800D03*
X0216800Y0311800D03*
X0216800Y0301800D03*
X0206800Y0301800D03*
X0206800Y0291800D03*
X0206800Y0281800D03*
X0216800Y0281800D03*
X0216800Y0291800D03*
X0226800Y0291800D03*
X0226800Y0281800D03*
X0236800Y0281800D03*
X0236800Y0291800D03*
X0236800Y0301800D03*
X0226800Y0301800D03*
X0226800Y0311800D03*
X0236800Y0311800D03*
X0236800Y0321800D03*
X0226800Y0321800D03*
X0226800Y0331800D03*
X0236800Y0331800D03*
X0246800Y0331800D03*
X0256800Y0331800D03*
X0256800Y0321800D03*
X0246800Y0321800D03*
X0246800Y0311800D03*
X0256800Y0311800D03*
X0256800Y0301800D03*
X0246800Y0301800D03*
X0246800Y0291800D03*
X0246800Y0281800D03*
X0256800Y0281800D03*
X0256800Y0291800D03*
X0266800Y0291800D03*
X0266800Y0281800D03*
X0276800Y0281800D03*
X0276800Y0291800D03*
X0276800Y0301800D03*
X0266800Y0301800D03*
X0266800Y0311800D03*
X0276800Y0311800D03*
X0276800Y0321800D03*
X0266800Y0321800D03*
X0266800Y0331800D03*
X0276800Y0331800D03*
X0286800Y0331800D03*
X0296800Y0331800D03*
X0296800Y0321800D03*
X0286800Y0321800D03*
X0286800Y0311800D03*
X0296800Y0311800D03*
X0296800Y0301800D03*
X0286800Y0301800D03*
X0286800Y0291800D03*
X0286800Y0281800D03*
X0296800Y0281800D03*
X0296800Y0291800D03*
X0306800Y0291800D03*
X0306800Y0281800D03*
X0316800Y0281800D03*
X0316800Y0291800D03*
X0326800Y0291800D03*
X0326800Y0281800D03*
X0326800Y0271800D03*
X0316800Y0271800D03*
X0306800Y0271800D03*
X0306800Y0261800D03*
X0316800Y0261800D03*
X0326800Y0261800D03*
X0326800Y0251800D03*
X0316800Y0251800D03*
X0306800Y0251800D03*
X0296800Y0251800D03*
X0286800Y0251800D03*
X0286800Y0261800D03*
X0296800Y0261800D03*
X0296800Y0271800D03*
X0286800Y0271800D03*
X0276800Y0271800D03*
X0266800Y0271800D03*
X0266800Y0261800D03*
X0276800Y0261800D03*
X0276800Y0251800D03*
X0266800Y0251800D03*
X0256800Y0251800D03*
X0246800Y0251800D03*
X0246800Y0261800D03*
X0256800Y0261800D03*
X0256800Y0271800D03*
X0246800Y0271800D03*
X0236800Y0271800D03*
X0226800Y0271800D03*
X0226800Y0261800D03*
X0236800Y0261800D03*
X0236800Y0251800D03*
X0226800Y0251800D03*
X0216800Y0251800D03*
X0206800Y0251800D03*
X0206800Y0261800D03*
X0216800Y0261800D03*
X0216800Y0271800D03*
X0206800Y0271800D03*
X0306800Y0301800D03*
X0316800Y0301800D03*
X0326800Y0301800D03*
X0326800Y0311800D03*
X0316800Y0311800D03*
X0306800Y0311800D03*
X0306800Y0321800D03*
X0316800Y0321800D03*
X0326800Y0321800D03*
X0326800Y0331800D03*
X0316800Y0331800D03*
X0306800Y0331800D03*
X0336800Y0331800D03*
X0346800Y0331800D03*
X0346800Y0321800D03*
X0336800Y0321800D03*
X0336800Y0311800D03*
X0346800Y0311800D03*
X0346800Y0301800D03*
X0336800Y0301800D03*
X0336800Y0291800D03*
X0336800Y0281800D03*
X0346800Y0281800D03*
X0346800Y0291800D03*
X0356800Y0291800D03*
X0356800Y0281800D03*
X0366800Y0281800D03*
X0366800Y0291800D03*
X0366800Y0301800D03*
X0356800Y0301800D03*
X0356800Y0311800D03*
X0366800Y0311800D03*
X0366800Y0321800D03*
X0356800Y0321800D03*
X0356800Y0331800D03*
X0366800Y0331800D03*
X0376800Y0311800D03*
X0386800Y0311800D03*
X0386800Y0301800D03*
X0376800Y0301800D03*
X0376800Y0291800D03*
X0376800Y0281800D03*
X0386800Y0281800D03*
X0386800Y0291800D03*
X0386800Y0271800D03*
X0376800Y0271800D03*
X0376800Y0261800D03*
X0386800Y0261800D03*
X0386800Y0251800D03*
X0376800Y0251800D03*
X0366800Y0251800D03*
X0356800Y0251800D03*
X0356800Y0261800D03*
X0366800Y0261800D03*
X0366800Y0271800D03*
X0356800Y0271800D03*
X0346800Y0271800D03*
X0336800Y0271800D03*
X0336800Y0261800D03*
X0346800Y0261800D03*
X0346800Y0251800D03*
X0336800Y0251800D03*
M02*
