%
M48
M72
T01C0.02362
T02C0.02756
T03C0.03200
T04C0.03937
T05C0.04000
T06C0.04724
T07C0.13000
%
T01
X126800Y116800
X136800Y116800
X191800Y91800
X261800Y106800
X291800Y86800
X276800Y61800
X321800Y101800
X321800Y131800
X286800Y166800
X301800Y171800
X286800Y181800
X276800Y191800
X271800Y186800
X261800Y166800
X276800Y141800
X241800Y216800
X341800Y236800
X126800Y226800
T02
X141800Y196800
X151800Y196800
T03
X254300Y221800
X261800Y226800
X261800Y216800
X96800Y326800
X91800Y319300
X86800Y326800
X81800Y41800
X91800Y41800
T04
X161643Y292469
X141957Y304280
X161643Y317272
T05
X196800Y321800
X196800Y311800
X196800Y301800
X196800Y291800
X196800Y281800
X196800Y271800
X196800Y261800
X196800Y251800
X206800Y251800
X216800Y251800
X216800Y261800
X206800Y261800
X206800Y271800
X216800Y271800
X216800Y281800
X216800Y291800
X206800Y291800
X206800Y281800
X206800Y301800
X216800Y301800
X216800Y311800
X206800Y311800
X206800Y321800
X216800Y321800
X216800Y331800
X206800Y331800
X196800Y331800
X226800Y331800
X236800Y331800
X236800Y321800
X226800Y321800
X226800Y311800
X236800Y311800
X236800Y301800
X226800Y301800
X226800Y291800
X226800Y281800
X236800Y281800
X236800Y291800
X246800Y291800
X246800Y281800
X256800Y281800
X256800Y291800
X256800Y301800
X246800Y301800
X246800Y311800
X256800Y311800
X256800Y321800
X246800Y321800
X246800Y331800
X256800Y331800
X266800Y331800
X276800Y331800
X276800Y321800
X266800Y321800
X266800Y311800
X276800Y311800
X276800Y301800
X266800Y301800
X266800Y291800
X266800Y281800
X276800Y281800
X276800Y291800
X286800Y291800
X286800Y281800
X296800Y281800
X296800Y291800
X296800Y301800
X286800Y301800
X286800Y311800
X296800Y311800
X296800Y321800
X286800Y321800
X286800Y331800
X296800Y331800
X306800Y331800
X316800Y331800
X326800Y331800
X326800Y321800
X316800Y321800
X306800Y321800
X306800Y311800
X316800Y311800
X326800Y311800
X326800Y301800
X316800Y301800
X306800Y301800
X306800Y291800
X306800Y281800
X316800Y281800
X316800Y291800
X326800Y291800
X326800Y281800
X326800Y271800
X316800Y271800
X306800Y271800
X306800Y261800
X316800Y261800
X326800Y261800
X326800Y251800
X316800Y251800
X306800Y251800
X296800Y251800
X286800Y251800
X286800Y261800
X296800Y261800
X296800Y271800
X286800Y271800
X276800Y271800
X266800Y271800
X266800Y261800
X276800Y261800
X276800Y251800
X266800Y251800
X256800Y251800
X246800Y251800
X246800Y261800
X256800Y261800
X256800Y271800
X246800Y271800
X236800Y271800
X226800Y271800
X226800Y261800
X236800Y261800
X236800Y251800
X226800Y251800
X286800Y191800
X296800Y191800
X306800Y191800
X261800Y166800
X261800Y156800
X261800Y146800
X261800Y136800
X261800Y126800
X261800Y116800
X261800Y106800
X261800Y96800
X261800Y86800
X261800Y76800
X261800Y66800
X261800Y56800
X286800Y121800
X296800Y121800
X306800Y121800
X336800Y251800
X346800Y251800
X346800Y261800
X336800Y261800
X336800Y271800
X346800Y271800
X346800Y281800
X346800Y291800
X336800Y291800
X336800Y281800
X336800Y301800
X346800Y301800
X346800Y311800
X336800Y311800
X336800Y321800
X346800Y321800
X346800Y331800
X336800Y331800
X356800Y331800
X366800Y331800
X366800Y321800
X356800Y321800
X356800Y311800
X366800Y311800
X366800Y301800
X356800Y301800
X356800Y291800
X356800Y281800
X366800Y281800
X366800Y291800
X376800Y291800
X376800Y281800
X386800Y281800
X386800Y291800
X386800Y301800
X376800Y301800
X376800Y311800
X386800Y311800
X386800Y271800
X376800Y271800
X376800Y261800
X386800Y261800
X386800Y251800
X376800Y251800
X366800Y251800
X356800Y251800
X356800Y261800
X366800Y261800
X366800Y271800
X356800Y271800
X151800Y166800
X151800Y156800
X151800Y146800
X151800Y136800
X151800Y126800
X151800Y116800
X151800Y106800
X151800Y96800
X151800Y86800
X151800Y76800
X151800Y66800
X151800Y56800
X106800Y101800
X106800Y116800
X76800Y116800
X76800Y101800
X76800Y171800
X76800Y186800
X106800Y186800
X106800Y171800
T06
X51800Y175461
X51800Y189241
X51800Y203020
X51800Y216800
X51800Y244241
X51800Y258020
X51800Y271800
X51800Y299241
X51800Y313020
X51800Y326800
X51800Y146800
X51800Y133020
X51800Y119241
X51800Y105461
X51800Y76800
X51800Y63020
X51800Y49241
X361800Y50580
X361800Y36800
X361800Y76800
X361800Y90580
X361800Y116800
X361800Y130580
X361800Y144359
X361800Y158139
X361800Y186800
X361800Y200580
X361800Y214359
X361800Y228139
T07
X16800Y16800
X16800Y331800
X386800Y331800
X386800Y16800
M30
