%
M48
M72
T01C0.02362
T02C0.02756
T03C0.03200
T04C0.04000
T05C0.05906
T06C0.13000
T07C0.15748
%
T01
X11800Y34300
X11800Y51800
X11800Y71800
X11800Y91800
X11800Y109300
X11800Y126800
X36800Y136800
X11800Y166800
X39300Y199300
X14300Y209300
X36800Y244300
X84300Y184300
X94300Y184300
X116800Y156800
X126800Y156800
X126800Y134300
X159300Y159300
X149300Y189300
X138050Y189300
X166800Y200550
X191800Y166800
X191800Y154300
X209300Y166800
X219300Y209300
X191800Y241800
X119300Y244300
X76800Y136800
X81800Y79300
X70550Y79300
X106800Y79300
X131800Y78050
X141800Y78050
X124300Y11800
X204300Y78050
X221800Y71800
X221800Y54300
X221800Y34300
X221800Y89300
X221800Y106800
X221800Y124300
T02
X176800Y141800
X176800Y151800
T03
X151800Y146800
X141800Y146800
X131800Y146800
T04
X116800Y146800
X106800Y146800
X96800Y146800
X76800Y146800
X66800Y146800
X56800Y146800
X36800Y146800
X26800Y146800
X16800Y146800
X31800Y121800
X31800Y111800
X31800Y101800
X41800Y101800
X41800Y111800
X41800Y121800
X51800Y121800
X51800Y111800
X51800Y101800
X61800Y101800
X61800Y111800
X61800Y121800
X71800Y121800
X71800Y111800
X71800Y101800
X81800Y101800
X81800Y111800
X81800Y121800
X91800Y121800
X91800Y111800
X91800Y101800
X101800Y101800
X101800Y111800
X101800Y121800
X111800Y121800
X111800Y111800
X111800Y101800
X121800Y101800
X121800Y111800
X121800Y121800
X131800Y121800
X131800Y111800
X131800Y101800
X141800Y101800
X141800Y111800
X141800Y121800
X151800Y121800
X151800Y111800
X151800Y101800
X161800Y101800
X161800Y111800
X161800Y121800
X171800Y121800
X171800Y111800
X171800Y101800
X181800Y101800
X181800Y111800
X181800Y121800
X191800Y121800
X191800Y111800
X191800Y101800
X201800Y101800
X201800Y111800
X201800Y121800
X201800Y51800
X201800Y41800
X201800Y31800
X191800Y31800
X191800Y41800
X191800Y51800
X181800Y51800
X181800Y41800
X181800Y31800
X171800Y31800
X171800Y41800
X171800Y51800
X161800Y51800
X161800Y41800
X161800Y31800
X151800Y31800
X151800Y41800
X151800Y51800
X141800Y51800
X141800Y41800
X141800Y31800
X131800Y31800
X131800Y41800
X131800Y51800
X121800Y51800
X121800Y41800
X121800Y31800
X111800Y31800
X111800Y41800
X111800Y51800
X101800Y51800
X101800Y41800
X101800Y31800
X91800Y31800
X91800Y41800
X91800Y51800
X81800Y51800
X81800Y41800
X81800Y31800
X71800Y31800
X71800Y41800
X71800Y51800
X61800Y51800
X61800Y41800
X61800Y31800
X51800Y31800
X51800Y41800
X51800Y51800
X41800Y51800
X41800Y41800
X41800Y31800
X31800Y31800
X31800Y41800
X31800Y51800
X139300Y196800
X149300Y196800
X159300Y196800
T05
X165028Y216800
X165028Y230580
X151249Y230580
X151249Y216800
X137469Y216800
X137469Y230580
X123690Y230580
X109910Y230580
X109910Y216800
X123690Y216800
X96131Y216800
X96131Y230580
X82351Y230580
X82351Y216800
X68572Y216800
X68572Y230580
X54792Y230580
X54792Y216800
X178808Y216800
X178808Y230580
T06
X16800Y16800
X16800Y186800
X216800Y186800
X216800Y16800
T07
X206367Y226485
X27233Y226485
M30
