G75*
%MOIN*%
%OFA0B0*%
%FSLAX25Y25*%
%IPPOS*%
%LPD*%
%AMOC8*
5,1,8,0,0,1.08239X$1,22.5*
%
%ADD10C,0.10643*%
%ADD11C,0.16548*%
%ADD12C,0.08200*%
%ADD13R,0.07887X0.07099*%
%ADD14R,0.03300X0.05800*%
%ADD15R,0.08200X0.08200*%
%ADD16C,0.07300*%
%ADD17R,0.07300X0.07300*%
%ADD18C,0.13800*%
%ADD19C,0.04762*%
D10*
X0054792Y0216800D03*
X0054792Y0230580D03*
X0068572Y0230580D03*
X0068572Y0216800D03*
X0082351Y0216800D03*
X0082351Y0230580D03*
X0096131Y0230580D03*
X0096131Y0216800D03*
X0109910Y0216800D03*
X0109910Y0230580D03*
X0123690Y0230580D03*
X0123690Y0216800D03*
X0137469Y0216800D03*
X0137469Y0230580D03*
X0151249Y0230580D03*
X0151249Y0216800D03*
X0165028Y0216800D03*
X0165028Y0230580D03*
X0178808Y0230580D03*
X0178808Y0216800D03*
D11*
X0206367Y0226485D03*
X0027233Y0226485D03*
D12*
X0026800Y0146800D03*
X0036800Y0146800D03*
X0031800Y0121800D03*
X0031800Y0111800D03*
X0031800Y0101800D03*
X0041800Y0101800D03*
X0041800Y0111800D03*
X0041800Y0121800D03*
X0051800Y0121800D03*
X0051800Y0111800D03*
X0051800Y0101800D03*
X0061800Y0101800D03*
X0061800Y0111800D03*
X0061800Y0121800D03*
X0071800Y0121800D03*
X0071800Y0111800D03*
X0071800Y0101800D03*
X0081800Y0101800D03*
X0081800Y0111800D03*
X0081800Y0121800D03*
X0091800Y0121800D03*
X0091800Y0111800D03*
X0091800Y0101800D03*
X0101800Y0101800D03*
X0101800Y0111800D03*
X0101800Y0121800D03*
X0111800Y0121800D03*
X0111800Y0111800D03*
X0111800Y0101800D03*
X0121800Y0101800D03*
X0121800Y0111800D03*
X0121800Y0121800D03*
X0131800Y0121800D03*
X0131800Y0111800D03*
X0131800Y0101800D03*
X0141800Y0101800D03*
X0141800Y0111800D03*
X0141800Y0121800D03*
X0151800Y0121800D03*
X0151800Y0111800D03*
X0151800Y0101800D03*
X0161800Y0101800D03*
X0161800Y0111800D03*
X0161800Y0121800D03*
X0171800Y0121800D03*
X0171800Y0111800D03*
X0171800Y0101800D03*
X0181800Y0101800D03*
X0181800Y0111800D03*
X0181800Y0121800D03*
X0191800Y0121800D03*
X0191800Y0111800D03*
X0191800Y0101800D03*
X0201800Y0101800D03*
X0201800Y0111800D03*
X0201800Y0121800D03*
X0151800Y0146800D03*
X0141800Y0146800D03*
X0131800Y0146800D03*
X0116800Y0146800D03*
X0106800Y0146800D03*
X0076800Y0146800D03*
X0066800Y0146800D03*
X0139300Y0196800D03*
X0149300Y0196800D03*
X0159300Y0196800D03*
X0161800Y0051800D03*
X0161800Y0041800D03*
X0161800Y0031800D03*
X0171800Y0031800D03*
X0171800Y0041800D03*
X0171800Y0051800D03*
X0181800Y0051800D03*
X0181800Y0041800D03*
X0181800Y0031800D03*
X0191800Y0031800D03*
X0191800Y0041800D03*
X0191800Y0051800D03*
X0201800Y0051800D03*
X0201800Y0041800D03*
X0201800Y0031800D03*
X0151800Y0031800D03*
X0151800Y0041800D03*
X0151800Y0051800D03*
X0141800Y0051800D03*
X0141800Y0041800D03*
X0141800Y0031800D03*
X0131800Y0031800D03*
X0131800Y0041800D03*
X0131800Y0051800D03*
X0121800Y0051800D03*
X0121800Y0041800D03*
X0121800Y0031800D03*
X0111800Y0031800D03*
X0111800Y0041800D03*
X0111800Y0051800D03*
X0101800Y0051800D03*
X0101800Y0041800D03*
X0101800Y0031800D03*
X0091800Y0031800D03*
X0091800Y0041800D03*
X0091800Y0051800D03*
X0081800Y0051800D03*
X0081800Y0041800D03*
X0081800Y0031800D03*
X0071800Y0031800D03*
X0071800Y0041800D03*
X0071800Y0051800D03*
X0061800Y0051800D03*
X0061800Y0041800D03*
X0061800Y0031800D03*
X0051800Y0031800D03*
X0051800Y0041800D03*
X0051800Y0051800D03*
X0041800Y0051800D03*
X0041800Y0041800D03*
X0041800Y0031800D03*
X0031800Y0031800D03*
X0031800Y0041800D03*
X0031800Y0051800D03*
D13*
X0041800Y0166288D03*
X0041800Y0177312D03*
X0056800Y0177312D03*
X0056800Y0166288D03*
X0071800Y0166288D03*
X0071800Y0177312D03*
X0086800Y0177312D03*
X0086800Y0166288D03*
X0101800Y0166288D03*
X0101800Y0177312D03*
X0116800Y0177312D03*
X0116800Y0166288D03*
X0131800Y0166288D03*
X0131800Y0177312D03*
D14*
X0116072Y0188050D03*
X0112528Y0188050D03*
X0112678Y0199300D03*
X0115922Y0199300D03*
D15*
X0096800Y0146800D03*
X0056800Y0146800D03*
X0016800Y0146800D03*
D16*
X0176800Y0151800D03*
D17*
X0176800Y0141800D03*
D18*
X0016800Y0016800D03*
X0016800Y0186800D03*
X0216800Y0186800D03*
X0216800Y0016800D03*
D19*
X0221800Y0034300D03*
X0221800Y0054300D03*
X0221800Y0071800D03*
X0221800Y0089300D03*
X0221800Y0106800D03*
X0221800Y0124300D03*
X0191800Y0154300D03*
X0191800Y0166800D03*
X0209300Y0166800D03*
X0219300Y0209300D03*
X0191800Y0241800D03*
X0166800Y0200550D03*
X0149300Y0189300D03*
X0138050Y0189300D03*
X0159300Y0159300D03*
X0126800Y0156800D03*
X0116800Y0156800D03*
X0126800Y0134300D03*
X0094300Y0184300D03*
X0084300Y0184300D03*
X0076800Y0136800D03*
X0036800Y0136800D03*
X0011800Y0126800D03*
X0011800Y0109300D03*
X0011800Y0091800D03*
X0011800Y0071800D03*
X0011800Y0051800D03*
X0011800Y0034300D03*
X0070550Y0079300D03*
X0081800Y0079300D03*
X0106800Y0079300D03*
X0131800Y0078050D03*
X0141800Y0078050D03*
X0124300Y0011800D03*
X0204300Y0078050D03*
X0119300Y0244300D03*
X0039300Y0199300D03*
X0014300Y0209300D03*
X0036800Y0244300D03*
X0011800Y0166800D03*
M02*
