G75*
%MOIN*%
%OFA0B0*%
%FSLAX25Y25*%
%IPPOS*%
%LPD*%
%AMOC8*
5,1,8,0,0,1.08239X$1,22.5*
%
%ADD10C,0.09843*%
%ADD11C,0.07400*%
%ADD12R,0.07087X0.06299*%
%ADD13R,0.02500X0.05000*%
%ADD14R,0.07400X0.07400*%
%ADD15C,0.06500*%
%ADD16R,0.06500X0.06500*%
%ADD17C,0.01600*%
%ADD18C,0.03962*%
%ADD19C,0.01000*%
D10*
X0054792Y0216800D03*
X0054792Y0230580D03*
X0068572Y0230580D03*
X0068572Y0216800D03*
X0082351Y0216800D03*
X0082351Y0230580D03*
X0096131Y0230580D03*
X0096131Y0216800D03*
X0109910Y0216800D03*
X0109910Y0230580D03*
X0123690Y0230580D03*
X0123690Y0216800D03*
X0137469Y0216800D03*
X0137469Y0230580D03*
X0151249Y0230580D03*
X0151249Y0216800D03*
X0165028Y0216800D03*
X0165028Y0230580D03*
X0178808Y0230580D03*
X0178808Y0216800D03*
D11*
X0159300Y0196800D03*
X0149300Y0196800D03*
X0139300Y0196800D03*
X0141800Y0146800D03*
X0131800Y0146800D03*
X0116800Y0146800D03*
X0106800Y0146800D03*
X0101800Y0121800D03*
X0101800Y0111800D03*
X0101800Y0101800D03*
X0091800Y0101800D03*
X0091800Y0111800D03*
X0091800Y0121800D03*
X0081800Y0121800D03*
X0081800Y0111800D03*
X0081800Y0101800D03*
X0071800Y0101800D03*
X0071800Y0111800D03*
X0071800Y0121800D03*
X0061800Y0121800D03*
X0061800Y0111800D03*
X0061800Y0101800D03*
X0051800Y0101800D03*
X0051800Y0111800D03*
X0051800Y0121800D03*
X0041800Y0121800D03*
X0041800Y0111800D03*
X0041800Y0101800D03*
X0031800Y0101800D03*
X0031800Y0111800D03*
X0031800Y0121800D03*
X0026800Y0146800D03*
X0036800Y0146800D03*
X0066800Y0146800D03*
X0076800Y0146800D03*
X0111800Y0121800D03*
X0111800Y0111800D03*
X0111800Y0101800D03*
X0121800Y0101800D03*
X0121800Y0111800D03*
X0121800Y0121800D03*
X0131800Y0121800D03*
X0131800Y0111800D03*
X0131800Y0101800D03*
X0141800Y0101800D03*
X0141800Y0111800D03*
X0141800Y0121800D03*
X0151800Y0121800D03*
X0151800Y0111800D03*
X0151800Y0101800D03*
X0161800Y0101800D03*
X0161800Y0111800D03*
X0161800Y0121800D03*
X0171800Y0121800D03*
X0171800Y0111800D03*
X0171800Y0101800D03*
X0181800Y0101800D03*
X0181800Y0111800D03*
X0181800Y0121800D03*
X0191800Y0121800D03*
X0191800Y0111800D03*
X0191800Y0101800D03*
X0201800Y0101800D03*
X0201800Y0111800D03*
X0201800Y0121800D03*
X0151800Y0146800D03*
X0151800Y0051800D03*
X0151800Y0041800D03*
X0151800Y0031800D03*
X0141800Y0031800D03*
X0141800Y0041800D03*
X0141800Y0051800D03*
X0131800Y0051800D03*
X0131800Y0041800D03*
X0131800Y0031800D03*
X0121800Y0031800D03*
X0121800Y0041800D03*
X0121800Y0051800D03*
X0111800Y0051800D03*
X0111800Y0041800D03*
X0111800Y0031800D03*
X0101800Y0031800D03*
X0101800Y0041800D03*
X0101800Y0051800D03*
X0091800Y0051800D03*
X0091800Y0041800D03*
X0091800Y0031800D03*
X0081800Y0031800D03*
X0081800Y0041800D03*
X0081800Y0051800D03*
X0071800Y0051800D03*
X0071800Y0041800D03*
X0071800Y0031800D03*
X0061800Y0031800D03*
X0061800Y0041800D03*
X0061800Y0051800D03*
X0051800Y0051800D03*
X0051800Y0041800D03*
X0051800Y0031800D03*
X0041800Y0031800D03*
X0041800Y0041800D03*
X0041800Y0051800D03*
X0031800Y0051800D03*
X0031800Y0041800D03*
X0031800Y0031800D03*
X0161800Y0031800D03*
X0161800Y0041800D03*
X0161800Y0051800D03*
X0171800Y0051800D03*
X0171800Y0041800D03*
X0171800Y0031800D03*
X0181800Y0031800D03*
X0181800Y0041800D03*
X0181800Y0051800D03*
X0191800Y0051800D03*
X0191800Y0041800D03*
X0191800Y0031800D03*
X0201800Y0031800D03*
X0201800Y0041800D03*
X0201800Y0051800D03*
D12*
X0131800Y0166288D03*
X0131800Y0177312D03*
X0116800Y0177312D03*
X0116800Y0166288D03*
X0101800Y0166288D03*
X0101800Y0177312D03*
X0086800Y0177312D03*
X0086800Y0166288D03*
X0071800Y0166288D03*
X0071800Y0177312D03*
X0056800Y0177312D03*
X0056800Y0166288D03*
X0041800Y0166288D03*
X0041800Y0177312D03*
D13*
X0112528Y0188050D03*
X0116072Y0188050D03*
X0115922Y0199300D03*
X0112678Y0199300D03*
D14*
X0096800Y0146800D03*
X0056800Y0146800D03*
X0016800Y0146800D03*
D15*
X0176800Y0151800D03*
D16*
X0176800Y0141800D03*
D17*
X0006600Y0181867D02*
X0006600Y0021733D01*
X0007758Y0023738D01*
X0009862Y0025842D01*
X0012438Y0027330D01*
X0015312Y0028100D01*
X0018288Y0028100D01*
X0021162Y0027330D01*
X0023738Y0025842D01*
X0025842Y0023738D01*
X0027330Y0021162D01*
X0028100Y0018288D01*
X0028100Y0015312D01*
X0027330Y0012438D01*
X0025842Y0009862D01*
X0023738Y0007758D01*
X0021733Y0006600D01*
X0211867Y0006600D01*
X0209862Y0007758D01*
X0207758Y0009862D01*
X0206270Y0012438D01*
X0205500Y0015312D01*
X0205500Y0018288D01*
X0206270Y0021162D01*
X0207758Y0023738D01*
X0209862Y0025842D01*
X0212438Y0027330D01*
X0215312Y0028100D01*
X0218288Y0028100D01*
X0221162Y0027330D01*
X0223738Y0025842D01*
X0225842Y0023738D01*
X0226928Y0021858D01*
X0226978Y0181829D01*
X0225842Y0179862D01*
X0223738Y0177758D01*
X0221162Y0176270D01*
X0218288Y0175500D01*
X0215312Y0175500D01*
X0212438Y0176270D01*
X0209862Y0177758D01*
X0207758Y0179862D01*
X0206270Y0182438D01*
X0205500Y0185312D01*
X0205500Y0188288D01*
X0206270Y0191162D01*
X0207758Y0193738D01*
X0209862Y0195842D01*
X0212438Y0197330D01*
X0215312Y0198100D01*
X0218288Y0198100D01*
X0221162Y0197330D01*
X0223738Y0195842D01*
X0225842Y0193738D01*
X0226981Y0191766D01*
X0226998Y0247000D01*
X0006600Y0247000D01*
X0006600Y0191733D01*
X0007758Y0193738D01*
X0009862Y0195842D01*
X0012438Y0197330D01*
X0015312Y0198100D01*
X0018288Y0198100D01*
X0021162Y0197330D01*
X0023738Y0195842D01*
X0025842Y0193738D01*
X0027330Y0191162D01*
X0028100Y0188288D01*
X0028100Y0185312D01*
X0027330Y0182438D01*
X0025842Y0179862D01*
X0023738Y0177758D01*
X0021162Y0176270D01*
X0018288Y0175500D01*
X0015312Y0175500D01*
X0012438Y0176270D01*
X0009862Y0177758D01*
X0007758Y0179862D01*
X0006600Y0181867D01*
X0006600Y0180833D02*
X0007197Y0180833D01*
X0006600Y0179235D02*
X0008385Y0179235D01*
X0010072Y0177636D02*
X0006600Y0177636D01*
X0006600Y0176038D02*
X0013305Y0176038D01*
X0006600Y0174439D02*
X0036657Y0174439D01*
X0036657Y0173499D02*
X0037594Y0172562D01*
X0044700Y0172562D01*
X0044700Y0171238D01*
X0042575Y0171238D01*
X0042575Y0167063D01*
X0041025Y0167063D01*
X0041025Y0165513D01*
X0042575Y0165513D01*
X0042575Y0161339D01*
X0044619Y0161339D01*
X0040930Y0157650D01*
X0034680Y0157650D01*
X0028756Y0151726D01*
X0027854Y0152100D01*
X0025746Y0152100D01*
X0023798Y0151293D01*
X0022307Y0149802D01*
X0022300Y0149786D01*
X0022300Y0150737D01*
X0022177Y0151195D01*
X0021940Y0151605D01*
X0021605Y0151940D01*
X0021195Y0152177D01*
X0020737Y0152300D01*
X0017000Y0152300D01*
X0017000Y0147000D01*
X0016600Y0147000D01*
X0016600Y0152300D01*
X0012863Y0152300D01*
X0012405Y0152177D01*
X0011995Y0151940D01*
X0011660Y0151605D01*
X0011423Y0151195D01*
X0011300Y0150737D01*
X0011300Y0147000D01*
X0016600Y0147000D01*
X0016600Y0146600D01*
X0017000Y0146600D01*
X0017000Y0141300D01*
X0020737Y0141300D01*
X0021195Y0141423D01*
X0021605Y0141660D01*
X0021940Y0141995D01*
X0022177Y0142405D01*
X0022300Y0142863D01*
X0022300Y0143814D01*
X0022307Y0143798D01*
X0023798Y0142307D01*
X0025746Y0141500D01*
X0027854Y0141500D01*
X0029802Y0142307D01*
X0031293Y0143798D01*
X0031800Y0145022D01*
X0032307Y0143798D01*
X0033798Y0142307D01*
X0035746Y0141500D01*
X0037854Y0141500D01*
X0039802Y0142307D01*
X0041293Y0143798D01*
X0042100Y0145746D01*
X0042100Y0147854D01*
X0041293Y0149802D01*
X0039802Y0151293D01*
X0037854Y0152100D01*
X0035746Y0152100D01*
X0034592Y0151622D01*
X0036420Y0153450D01*
X0042670Y0153450D01*
X0043900Y0154680D01*
X0048900Y0159680D01*
X0048900Y0174700D01*
X0051657Y0174700D01*
X0051657Y0173499D01*
X0052594Y0172562D01*
X0061006Y0172562D01*
X0061943Y0173499D01*
X0061943Y0181124D01*
X0061006Y0182061D01*
X0058900Y0182061D01*
X0058900Y0211685D01*
X0060321Y0213106D01*
X0061313Y0215503D01*
X0061313Y0218097D01*
X0060321Y0220494D01*
X0058486Y0222328D01*
X0056089Y0223321D01*
X0053495Y0223321D01*
X0051098Y0222328D01*
X0049264Y0220494D01*
X0048271Y0218097D01*
X0048271Y0215503D01*
X0049264Y0213106D01*
X0051098Y0211272D01*
X0053495Y0210279D01*
X0054700Y0210279D01*
X0054700Y0182061D01*
X0052594Y0182061D01*
X0051657Y0181124D01*
X0051657Y0178900D01*
X0046943Y0178900D01*
X0046943Y0181124D01*
X0046006Y0182061D01*
X0037594Y0182061D01*
X0036657Y0181124D01*
X0036657Y0173499D01*
X0037315Y0172841D02*
X0006600Y0172841D01*
X0006600Y0171242D02*
X0044700Y0171242D01*
X0042575Y0169644D02*
X0041025Y0169644D01*
X0041025Y0171238D02*
X0038020Y0171238D01*
X0037562Y0171115D01*
X0037151Y0170878D01*
X0036816Y0170543D01*
X0036579Y0170133D01*
X0036457Y0169675D01*
X0036457Y0167063D01*
X0041025Y0167063D01*
X0041025Y0171238D01*
X0041025Y0168045D02*
X0042575Y0168045D01*
X0041025Y0166447D02*
X0006600Y0166447D01*
X0006600Y0168045D02*
X0036457Y0168045D01*
X0036457Y0169644D02*
X0006600Y0169644D01*
X0006600Y0164848D02*
X0036457Y0164848D01*
X0036457Y0165513D02*
X0036457Y0162902D01*
X0036579Y0162444D01*
X0036816Y0162033D01*
X0037151Y0161698D01*
X0037562Y0161461D01*
X0038020Y0161339D01*
X0041025Y0161339D01*
X0041025Y0165513D01*
X0036457Y0165513D01*
X0036457Y0163250D02*
X0006600Y0163250D01*
X0006600Y0161651D02*
X0037233Y0161651D01*
X0041025Y0161651D02*
X0042575Y0161651D01*
X0042575Y0163250D02*
X0041025Y0163250D01*
X0041025Y0164848D02*
X0042575Y0164848D01*
X0043333Y0160053D02*
X0006600Y0160053D01*
X0006600Y0158454D02*
X0041734Y0158454D01*
X0044477Y0155257D02*
X0059700Y0155257D01*
X0059700Y0153659D02*
X0042878Y0153659D01*
X0040634Y0150462D02*
X0051300Y0150462D01*
X0051300Y0150737D02*
X0051300Y0147000D01*
X0056600Y0147000D01*
X0056600Y0152300D01*
X0052863Y0152300D01*
X0052405Y0152177D01*
X0051995Y0151940D01*
X0051660Y0151605D01*
X0051423Y0151195D01*
X0051300Y0150737D01*
X0052202Y0152060D02*
X0037951Y0152060D01*
X0035649Y0152060D02*
X0035030Y0152060D01*
X0030689Y0153659D02*
X0006600Y0153659D01*
X0006600Y0155257D02*
X0032287Y0155257D01*
X0033886Y0156856D02*
X0006600Y0156856D01*
X0006600Y0152060D02*
X0012202Y0152060D01*
X0011300Y0150462D02*
X0006600Y0150462D01*
X0006600Y0148863D02*
X0011300Y0148863D01*
X0011300Y0147265D02*
X0006600Y0147265D01*
X0006600Y0145666D02*
X0011300Y0145666D01*
X0011300Y0146600D02*
X0011300Y0142863D01*
X0011423Y0142405D01*
X0011660Y0141995D01*
X0011995Y0141660D01*
X0012405Y0141423D01*
X0012863Y0141300D01*
X0016600Y0141300D01*
X0016600Y0146600D01*
X0011300Y0146600D01*
X0011300Y0144068D02*
X0006600Y0144068D01*
X0006600Y0142469D02*
X0011406Y0142469D01*
X0006600Y0140870D02*
X0059700Y0140870D01*
X0059700Y0141300D02*
X0059700Y0138430D01*
X0071030Y0127100D01*
X0070746Y0127100D01*
X0068798Y0126293D01*
X0067307Y0124802D01*
X0066915Y0123856D01*
X0066897Y0123911D01*
X0066504Y0124683D01*
X0065995Y0125383D01*
X0065383Y0125995D01*
X0064683Y0126504D01*
X0063911Y0126897D01*
X0063088Y0127165D01*
X0062233Y0127300D01*
X0062000Y0127300D01*
X0062000Y0122000D01*
X0061600Y0122000D01*
X0061600Y0127300D01*
X0061367Y0127300D01*
X0060512Y0127165D01*
X0059689Y0126897D01*
X0058917Y0126504D01*
X0058217Y0125995D01*
X0057605Y0125383D01*
X0057096Y0124683D01*
X0056703Y0123911D01*
X0056685Y0123856D01*
X0056293Y0124802D01*
X0054802Y0126293D01*
X0052854Y0127100D01*
X0050746Y0127100D01*
X0048798Y0126293D01*
X0047307Y0124802D01*
X0046800Y0123578D01*
X0046293Y0124802D01*
X0044802Y0126293D01*
X0042854Y0127100D01*
X0040746Y0127100D01*
X0038798Y0126293D01*
X0037307Y0124802D01*
X0036800Y0123578D01*
X0036293Y0124802D01*
X0034802Y0126293D01*
X0032854Y0127100D01*
X0030746Y0127100D01*
X0028798Y0126293D01*
X0027307Y0124802D01*
X0026500Y0122854D01*
X0026500Y0120746D01*
X0027307Y0118798D01*
X0028798Y0117307D01*
X0030022Y0116800D01*
X0028798Y0116293D01*
X0027307Y0114802D01*
X0026500Y0112854D01*
X0026500Y0110746D01*
X0027307Y0108798D01*
X0028798Y0107307D01*
X0030022Y0106800D01*
X0028798Y0106293D01*
X0027307Y0104802D01*
X0026500Y0102854D01*
X0026500Y0100746D01*
X0027307Y0098798D01*
X0028798Y0097307D01*
X0030746Y0096500D01*
X0032854Y0096500D01*
X0034802Y0097307D01*
X0036293Y0098798D01*
X0036800Y0100022D01*
X0037307Y0098798D01*
X0038798Y0097307D01*
X0040746Y0096500D01*
X0042854Y0096500D01*
X0044802Y0097307D01*
X0046293Y0098798D01*
X0046800Y0100022D01*
X0047307Y0098798D01*
X0048798Y0097307D01*
X0050746Y0096500D01*
X0052854Y0096500D01*
X0054802Y0097307D01*
X0056293Y0098798D01*
X0056685Y0099744D01*
X0056703Y0099689D01*
X0057096Y0098917D01*
X0057605Y0098217D01*
X0058217Y0097605D01*
X0058917Y0097096D01*
X0059689Y0096703D01*
X0060512Y0096435D01*
X0061367Y0096300D01*
X0061600Y0096300D01*
X0061600Y0101600D01*
X0062000Y0101600D01*
X0062000Y0096300D01*
X0062233Y0096300D01*
X0063088Y0096435D01*
X0063911Y0096703D01*
X0064683Y0097096D01*
X0065383Y0097605D01*
X0065995Y0098217D01*
X0066504Y0098917D01*
X0066897Y0099689D01*
X0066915Y0099744D01*
X0067307Y0098798D01*
X0068798Y0097307D01*
X0070746Y0096500D01*
X0072854Y0096500D01*
X0074700Y0097265D01*
X0074700Y0073430D01*
X0091030Y0057100D01*
X0090746Y0057100D01*
X0088798Y0056293D01*
X0087307Y0054802D01*
X0086800Y0053578D01*
X0086293Y0054802D01*
X0084802Y0056293D01*
X0082854Y0057100D01*
X0080746Y0057100D01*
X0078798Y0056293D01*
X0077307Y0054802D01*
X0076800Y0053578D01*
X0076293Y0054802D01*
X0074802Y0056293D01*
X0072854Y0057100D01*
X0070746Y0057100D01*
X0068798Y0056293D01*
X0067307Y0054802D01*
X0066800Y0053578D01*
X0066293Y0054802D01*
X0064802Y0056293D01*
X0062854Y0057100D01*
X0060746Y0057100D01*
X0058798Y0056293D01*
X0057307Y0054802D01*
X0056800Y0053578D01*
X0056293Y0054802D01*
X0054802Y0056293D01*
X0052854Y0057100D01*
X0050746Y0057100D01*
X0048798Y0056293D01*
X0047307Y0054802D01*
X0046915Y0053856D01*
X0046897Y0053911D01*
X0046504Y0054683D01*
X0045995Y0055383D01*
X0045383Y0055995D01*
X0044683Y0056504D01*
X0043911Y0056897D01*
X0043088Y0057165D01*
X0042233Y0057300D01*
X0042000Y0057300D01*
X0042000Y0052000D01*
X0041600Y0052000D01*
X0041600Y0057300D01*
X0041367Y0057300D01*
X0040512Y0057165D01*
X0039689Y0056897D01*
X0038917Y0056504D01*
X0038217Y0055995D01*
X0037605Y0055383D01*
X0037096Y0054683D01*
X0036703Y0053911D01*
X0036685Y0053856D01*
X0036293Y0054802D01*
X0034802Y0056293D01*
X0032854Y0057100D01*
X0030746Y0057100D01*
X0028798Y0056293D01*
X0027307Y0054802D01*
X0026500Y0052854D01*
X0026500Y0050746D01*
X0027307Y0048798D01*
X0028798Y0047307D01*
X0030022Y0046800D01*
X0028798Y0046293D01*
X0027307Y0044802D01*
X0026500Y0042854D01*
X0026500Y0040746D01*
X0027307Y0038798D01*
X0028798Y0037307D01*
X0030022Y0036800D01*
X0028798Y0036293D01*
X0027307Y0034802D01*
X0026500Y0032854D01*
X0026500Y0030746D01*
X0027307Y0028798D01*
X0028798Y0027307D01*
X0030746Y0026500D01*
X0031206Y0026500D01*
X0037941Y0019765D01*
X0038823Y0019400D01*
X0202277Y0019400D01*
X0203159Y0019765D01*
X0203835Y0020441D01*
X0213835Y0030441D01*
X0214200Y0031323D01*
X0214200Y0132277D01*
X0213835Y0133159D01*
X0213159Y0133835D01*
X0210659Y0136335D01*
X0209777Y0136700D01*
X0185294Y0136700D01*
X0181650Y0140344D01*
X0181650Y0145713D01*
X0180713Y0146650D01*
X0172887Y0146650D01*
X0171950Y0145713D01*
X0171950Y0137887D01*
X0172887Y0136950D01*
X0178256Y0136950D01*
X0182265Y0132941D01*
X0182265Y0132941D01*
X0182941Y0132265D01*
X0183823Y0131900D01*
X0208306Y0131900D01*
X0209400Y0130806D01*
X0209400Y0032794D01*
X0206922Y0030316D01*
X0207100Y0030746D01*
X0207100Y0032854D01*
X0206293Y0034802D01*
X0204802Y0036293D01*
X0203578Y0036800D01*
X0204802Y0037307D01*
X0206293Y0038798D01*
X0207100Y0040746D01*
X0207100Y0042854D01*
X0206293Y0044802D01*
X0204802Y0046293D01*
X0203578Y0046800D01*
X0204802Y0047307D01*
X0206293Y0048798D01*
X0207100Y0050746D01*
X0207100Y0052854D01*
X0206293Y0054802D01*
X0204802Y0056293D01*
X0202854Y0057100D01*
X0200746Y0057100D01*
X0198798Y0056293D01*
X0197307Y0054802D01*
X0196800Y0053578D01*
X0196293Y0054802D01*
X0194802Y0056293D01*
X0192854Y0057100D01*
X0190746Y0057100D01*
X0188798Y0056293D01*
X0187307Y0054802D01*
X0186800Y0053578D01*
X0186293Y0054802D01*
X0184802Y0056293D01*
X0182854Y0057100D01*
X0180746Y0057100D01*
X0178798Y0056293D01*
X0177307Y0054802D01*
X0176800Y0053578D01*
X0176293Y0054802D01*
X0174802Y0056293D01*
X0172854Y0057100D01*
X0170746Y0057100D01*
X0168798Y0056293D01*
X0167307Y0054802D01*
X0166800Y0053578D01*
X0166293Y0054802D01*
X0164802Y0056293D01*
X0162854Y0057100D01*
X0160746Y0057100D01*
X0158798Y0056293D01*
X0157307Y0054802D01*
X0156800Y0053578D01*
X0156293Y0054802D01*
X0154802Y0056293D01*
X0152854Y0057100D01*
X0150746Y0057100D01*
X0148798Y0056293D01*
X0147307Y0054802D01*
X0146800Y0053578D01*
X0146293Y0054802D01*
X0144802Y0056293D01*
X0142854Y0057100D01*
X0140746Y0057100D01*
X0139844Y0056726D01*
X0138900Y0057670D01*
X0138900Y0097265D01*
X0140746Y0096500D01*
X0142854Y0096500D01*
X0144802Y0097307D01*
X0146293Y0098798D01*
X0146800Y0100022D01*
X0147307Y0098798D01*
X0148798Y0097307D01*
X0150746Y0096500D01*
X0152854Y0096500D01*
X0154802Y0097307D01*
X0156293Y0098798D01*
X0156800Y0100022D01*
X0157307Y0098798D01*
X0158798Y0097307D01*
X0160746Y0096500D01*
X0162854Y0096500D01*
X0164802Y0097307D01*
X0166293Y0098798D01*
X0166800Y0100022D01*
X0167307Y0098798D01*
X0168798Y0097307D01*
X0170746Y0096500D01*
X0172854Y0096500D01*
X0174802Y0097307D01*
X0176293Y0098798D01*
X0176800Y0100022D01*
X0177307Y0098798D01*
X0178798Y0097307D01*
X0180746Y0096500D01*
X0182854Y0096500D01*
X0184802Y0097307D01*
X0186293Y0098798D01*
X0186800Y0100022D01*
X0187307Y0098798D01*
X0188798Y0097307D01*
X0190746Y0096500D01*
X0192854Y0096500D01*
X0194802Y0097307D01*
X0196293Y0098798D01*
X0196800Y0100022D01*
X0197307Y0098798D01*
X0198798Y0097307D01*
X0200746Y0096500D01*
X0202854Y0096500D01*
X0204802Y0097307D01*
X0206293Y0098798D01*
X0207100Y0100746D01*
X0207100Y0102854D01*
X0206293Y0104802D01*
X0204802Y0106293D01*
X0203578Y0106800D01*
X0204802Y0107307D01*
X0206293Y0108798D01*
X0207100Y0110746D01*
X0207100Y0112854D01*
X0206293Y0114802D01*
X0204802Y0116293D01*
X0203578Y0116800D01*
X0204802Y0117307D01*
X0206293Y0118798D01*
X0207100Y0120746D01*
X0207100Y0122854D01*
X0206293Y0124802D01*
X0204802Y0126293D01*
X0202854Y0127100D01*
X0200746Y0127100D01*
X0198798Y0126293D01*
X0197307Y0124802D01*
X0196800Y0123578D01*
X0196293Y0124802D01*
X0194802Y0126293D01*
X0192854Y0127100D01*
X0190746Y0127100D01*
X0188798Y0126293D01*
X0187307Y0124802D01*
X0186800Y0123578D01*
X0186293Y0124802D01*
X0184802Y0126293D01*
X0182854Y0127100D01*
X0180746Y0127100D01*
X0178798Y0126293D01*
X0177307Y0124802D01*
X0176800Y0123578D01*
X0176293Y0124802D01*
X0174802Y0126293D01*
X0172854Y0127100D01*
X0170746Y0127100D01*
X0168798Y0126293D01*
X0167307Y0124802D01*
X0166800Y0123578D01*
X0166293Y0124802D01*
X0164802Y0126293D01*
X0162854Y0127100D01*
X0160746Y0127100D01*
X0159592Y0126622D01*
X0163900Y0130930D01*
X0163900Y0150930D01*
X0177670Y0164700D01*
X0188836Y0164700D01*
X0189771Y0163764D01*
X0191088Y0163219D01*
X0192512Y0163219D01*
X0193829Y0163764D01*
X0194836Y0164771D01*
X0195381Y0166088D01*
X0195381Y0167512D01*
X0194836Y0168829D01*
X0193829Y0169836D01*
X0192512Y0170381D01*
X0191088Y0170381D01*
X0189771Y0169836D01*
X0188836Y0168900D01*
X0175930Y0168900D01*
X0160930Y0153900D01*
X0159700Y0152670D01*
X0159700Y0132670D01*
X0153756Y0126726D01*
X0152854Y0127100D01*
X0150746Y0127100D01*
X0148798Y0126293D01*
X0147307Y0124802D01*
X0146800Y0123578D01*
X0146293Y0124802D01*
X0144802Y0126293D01*
X0142854Y0127100D01*
X0140746Y0127100D01*
X0138900Y0126335D01*
X0138900Y0142265D01*
X0140746Y0141500D01*
X0142854Y0141500D01*
X0144802Y0142307D01*
X0146293Y0143798D01*
X0146685Y0144744D01*
X0146703Y0144689D01*
X0147096Y0143917D01*
X0147605Y0143217D01*
X0148217Y0142605D01*
X0148917Y0142096D01*
X0149689Y0141703D01*
X0150512Y0141435D01*
X0151367Y0141300D01*
X0151800Y0141300D01*
X0152233Y0141300D01*
X0153088Y0141435D01*
X0153911Y0141703D01*
X0154683Y0142096D01*
X0155383Y0142605D01*
X0155995Y0143217D01*
X0156504Y0143917D01*
X0156897Y0144689D01*
X0157165Y0145512D01*
X0157300Y0146367D01*
X0157300Y0146800D01*
X0157300Y0147233D01*
X0157165Y0148088D01*
X0156897Y0148911D01*
X0156504Y0149683D01*
X0155995Y0150383D01*
X0155383Y0150995D01*
X0154683Y0151504D01*
X0153911Y0151897D01*
X0153088Y0152165D01*
X0152233Y0152300D01*
X0151800Y0152300D01*
X0151800Y0146800D01*
X0151800Y0146800D01*
X0157300Y0146800D01*
X0151800Y0146800D01*
X0151800Y0146800D01*
X0151800Y0152300D01*
X0151367Y0152300D01*
X0150512Y0152165D01*
X0149689Y0151897D01*
X0148917Y0151504D01*
X0148217Y0150995D01*
X0147605Y0150383D01*
X0147096Y0149683D01*
X0146703Y0148911D01*
X0146685Y0148856D01*
X0146293Y0149802D01*
X0144802Y0151293D01*
X0143900Y0151667D01*
X0143900Y0167670D01*
X0142670Y0168900D01*
X0136943Y0174627D01*
X0136943Y0181124D01*
X0136006Y0182061D01*
X0127594Y0182061D01*
X0126657Y0181124D01*
X0126657Y0173499D01*
X0127594Y0172562D01*
X0133068Y0172562D01*
X0134592Y0171038D01*
X0127594Y0171038D01*
X0126657Y0170101D01*
X0126657Y0162476D01*
X0127594Y0161539D01*
X0131592Y0161539D01*
X0134700Y0158430D01*
X0134700Y0151335D01*
X0132854Y0152100D01*
X0130746Y0152100D01*
X0128798Y0151293D01*
X0127307Y0149802D01*
X0126500Y0147854D01*
X0126500Y0145746D01*
X0127307Y0143798D01*
X0128798Y0142307D01*
X0130746Y0141500D01*
X0132854Y0141500D01*
X0134700Y0142265D01*
X0134700Y0126335D01*
X0133900Y0126667D01*
X0133900Y0130170D01*
X0132670Y0131400D01*
X0130381Y0133689D01*
X0130381Y0135012D01*
X0129836Y0136329D01*
X0128829Y0137336D01*
X0127512Y0137881D01*
X0126088Y0137881D01*
X0125150Y0137493D01*
X0125150Y0182180D01*
X0125170Y0182200D01*
X0143920Y0182200D01*
X0145150Y0183430D01*
X0146400Y0184680D01*
X0146400Y0192265D01*
X0148246Y0191500D01*
X0150354Y0191500D01*
X0152302Y0192307D01*
X0153793Y0193798D01*
X0154300Y0195022D01*
X0154807Y0193798D01*
X0156298Y0192307D01*
X0158246Y0191500D01*
X0160354Y0191500D01*
X0162302Y0192307D01*
X0163793Y0193798D01*
X0164600Y0195746D01*
X0164600Y0197854D01*
X0163793Y0199802D01*
X0162302Y0201293D01*
X0160354Y0202100D01*
X0158246Y0202100D01*
X0156298Y0201293D01*
X0154807Y0199802D01*
X0154300Y0198578D01*
X0153793Y0199802D01*
X0152302Y0201293D01*
X0150354Y0202100D01*
X0148246Y0202100D01*
X0146400Y0201335D01*
X0146400Y0212426D01*
X0147555Y0211272D01*
X0149952Y0210279D01*
X0152546Y0210279D01*
X0154943Y0211272D01*
X0156777Y0213106D01*
X0157770Y0215503D01*
X0157770Y0218097D01*
X0156777Y0220494D01*
X0154943Y0222328D01*
X0152546Y0223321D01*
X0149952Y0223321D01*
X0147555Y0222328D01*
X0146400Y0221174D01*
X0146400Y0225170D01*
X0145170Y0226400D01*
X0143492Y0228078D01*
X0143991Y0229282D01*
X0143991Y0231877D01*
X0142998Y0234274D01*
X0141163Y0236108D01*
X0138766Y0237101D01*
X0136172Y0237101D01*
X0133775Y0236108D01*
X0132650Y0234983D01*
X0132650Y0235930D01*
X0133920Y0237200D01*
X0163822Y0237200D01*
X0163714Y0237186D01*
X0162863Y0236958D01*
X0162049Y0236621D01*
X0161286Y0236180D01*
X0160587Y0235644D01*
X0159964Y0235021D01*
X0159428Y0234322D01*
X0158987Y0233559D01*
X0158650Y0232745D01*
X0158422Y0231894D01*
X0158338Y0231256D01*
X0164352Y0231256D01*
X0164352Y0229903D01*
X0165705Y0229903D01*
X0165705Y0231256D01*
X0171719Y0231256D01*
X0171635Y0231894D01*
X0171407Y0232745D01*
X0171069Y0233559D01*
X0170629Y0234322D01*
X0170092Y0235021D01*
X0169469Y0235644D01*
X0168770Y0236180D01*
X0168007Y0236621D01*
X0167193Y0236958D01*
X0166342Y0237186D01*
X0166234Y0237200D01*
X0175930Y0237200D01*
X0175950Y0237180D01*
X0175950Y0236454D01*
X0175114Y0236108D01*
X0173279Y0234274D01*
X0172287Y0231877D01*
X0172287Y0229282D01*
X0173279Y0226886D01*
X0175114Y0225051D01*
X0177511Y0224058D01*
X0180105Y0224058D01*
X0182502Y0225051D01*
X0184336Y0226886D01*
X0185329Y0229282D01*
X0185329Y0231877D01*
X0184336Y0234274D01*
X0182502Y0236108D01*
X0180150Y0237082D01*
X0180150Y0238920D01*
X0178920Y0240150D01*
X0177670Y0241400D01*
X0132180Y0241400D01*
X0130950Y0240170D01*
X0128450Y0237670D01*
X0128450Y0235042D01*
X0127384Y0236108D01*
X0124987Y0237101D01*
X0122393Y0237101D01*
X0119996Y0236108D01*
X0118161Y0234274D01*
X0117169Y0231877D01*
X0117169Y0229282D01*
X0117829Y0227688D01*
X0115290Y0225150D01*
X0113875Y0225150D01*
X0114351Y0225515D01*
X0114974Y0226138D01*
X0115511Y0226837D01*
X0115951Y0227600D01*
X0116288Y0228414D01*
X0116516Y0229265D01*
X0116600Y0229903D01*
X0110587Y0229903D01*
X0110587Y0231256D01*
X0116600Y0231256D01*
X0116516Y0231894D01*
X0116288Y0232745D01*
X0115951Y0233559D01*
X0115511Y0234322D01*
X0114974Y0235021D01*
X0114351Y0235644D01*
X0113652Y0236180D01*
X0112889Y0236621D01*
X0112075Y0236958D01*
X0111224Y0237186D01*
X0110587Y0237270D01*
X0110587Y0231256D01*
X0109234Y0231256D01*
X0109234Y0237270D01*
X0108596Y0237186D01*
X0107745Y0236958D01*
X0106931Y0236621D01*
X0106168Y0236180D01*
X0105469Y0235644D01*
X0104846Y0235021D01*
X0104310Y0234322D01*
X0103869Y0233559D01*
X0103532Y0232745D01*
X0103304Y0231894D01*
X0103220Y0231256D01*
X0109234Y0231256D01*
X0109234Y0229903D01*
X0103220Y0229903D01*
X0103304Y0229265D01*
X0103532Y0228414D01*
X0103869Y0227600D01*
X0104310Y0226837D01*
X0104846Y0226138D01*
X0105469Y0225515D01*
X0105945Y0225150D01*
X0103430Y0225150D01*
X0102200Y0223920D01*
X0100217Y0221936D01*
X0099825Y0222328D01*
X0097428Y0223321D01*
X0094834Y0223321D01*
X0092437Y0222328D01*
X0090602Y0220494D01*
X0089609Y0218097D01*
X0089609Y0215503D01*
X0090347Y0213723D01*
X0088783Y0215287D01*
X0088872Y0215503D01*
X0088872Y0218097D01*
X0087880Y0220494D01*
X0086045Y0222328D01*
X0083648Y0223321D01*
X0081054Y0223321D01*
X0078657Y0222328D01*
X0076823Y0220494D01*
X0075830Y0218097D01*
X0075830Y0215503D01*
X0076823Y0213106D01*
X0078657Y0211272D01*
X0081054Y0210279D01*
X0083648Y0210279D01*
X0086045Y0211272D01*
X0086452Y0211678D01*
X0099700Y0198430D01*
X0099700Y0182061D01*
X0097594Y0182061D01*
X0096657Y0181124D01*
X0096657Y0173499D01*
X0097594Y0172562D01*
X0104700Y0172562D01*
X0104700Y0171238D01*
X0102575Y0171238D01*
X0102575Y0167063D01*
X0101025Y0167063D01*
X0101025Y0165513D01*
X0102575Y0165513D01*
X0102575Y0161339D01*
X0104700Y0161339D01*
X0104700Y0151667D01*
X0103798Y0151293D01*
X0102307Y0149802D01*
X0102300Y0149786D01*
X0102300Y0150737D01*
X0102177Y0151195D01*
X0101940Y0151605D01*
X0101605Y0151940D01*
X0101195Y0152177D01*
X0100737Y0152300D01*
X0097000Y0152300D01*
X0097000Y0147000D01*
X0096600Y0147000D01*
X0096600Y0152300D01*
X0092863Y0152300D01*
X0092405Y0152177D01*
X0091995Y0151940D01*
X0091660Y0151605D01*
X0091423Y0151195D01*
X0091300Y0150737D01*
X0091300Y0147000D01*
X0096600Y0147000D01*
X0096600Y0146600D01*
X0097000Y0146600D01*
X0097000Y0141300D01*
X0100737Y0141300D01*
X0101195Y0141423D01*
X0101605Y0141660D01*
X0101940Y0141995D01*
X0102177Y0142405D01*
X0102300Y0142863D01*
X0102300Y0143814D01*
X0102307Y0143798D01*
X0103798Y0142307D01*
X0105746Y0141500D01*
X0107854Y0141500D01*
X0109700Y0142265D01*
X0109700Y0128430D01*
X0111030Y0127100D01*
X0110746Y0127100D01*
X0108798Y0126293D01*
X0107307Y0124802D01*
X0106800Y0123578D01*
X0106293Y0124802D01*
X0104802Y0126293D01*
X0102854Y0127100D01*
X0100746Y0127100D01*
X0098798Y0126293D01*
X0097307Y0124802D01*
X0096800Y0123578D01*
X0096293Y0124802D01*
X0094802Y0126293D01*
X0092854Y0127100D01*
X0090746Y0127100D01*
X0088900Y0126335D01*
X0088900Y0161539D01*
X0091006Y0161539D01*
X0091943Y0162476D01*
X0091943Y0170101D01*
X0091006Y0171038D01*
X0082594Y0171038D01*
X0081657Y0170101D01*
X0081657Y0162476D01*
X0082594Y0161539D01*
X0084700Y0161539D01*
X0084700Y0126335D01*
X0082854Y0127100D01*
X0080746Y0127100D01*
X0078798Y0126293D01*
X0078287Y0125783D01*
X0077670Y0126400D01*
X0063900Y0140170D01*
X0063900Y0142265D01*
X0065746Y0141500D01*
X0067854Y0141500D01*
X0069802Y0142307D01*
X0071293Y0143798D01*
X0071800Y0145022D01*
X0072307Y0143798D01*
X0073798Y0142307D01*
X0075746Y0141500D01*
X0077854Y0141500D01*
X0079802Y0142307D01*
X0081293Y0143798D01*
X0082100Y0145746D01*
X0082100Y0147854D01*
X0081293Y0149802D01*
X0079802Y0151293D01*
X0077854Y0152100D01*
X0075746Y0152100D01*
X0074592Y0151622D01*
X0077670Y0154700D01*
X0078900Y0155930D01*
X0078900Y0174700D01*
X0081657Y0174700D01*
X0081657Y0173499D01*
X0082594Y0172562D01*
X0091006Y0172562D01*
X0091943Y0173499D01*
X0091943Y0181124D01*
X0091006Y0182061D01*
X0082594Y0182061D01*
X0081657Y0181124D01*
X0081657Y0178900D01*
X0076943Y0178900D01*
X0076943Y0181124D01*
X0076006Y0182061D01*
X0072008Y0182061D01*
X0071400Y0182670D01*
X0071400Y0210913D01*
X0072266Y0211272D01*
X0074100Y0213106D01*
X0075093Y0215503D01*
X0075093Y0218097D01*
X0074100Y0220494D01*
X0072266Y0222328D01*
X0069869Y0223321D01*
X0067274Y0223321D01*
X0064878Y0222328D01*
X0063043Y0220494D01*
X0062050Y0218097D01*
X0062050Y0215503D01*
X0063043Y0213106D01*
X0064878Y0211272D01*
X0067200Y0210310D01*
X0067200Y0181667D01*
X0066657Y0181124D01*
X0066657Y0173499D01*
X0067594Y0172562D01*
X0074700Y0172562D01*
X0074700Y0171238D01*
X0072575Y0171238D01*
X0072575Y0167063D01*
X0071025Y0167063D01*
X0071025Y0165513D01*
X0072575Y0165513D01*
X0072575Y0161339D01*
X0074700Y0161339D01*
X0074700Y0157670D01*
X0068756Y0151726D01*
X0067854Y0152100D01*
X0065746Y0152100D01*
X0063900Y0151335D01*
X0063900Y0160170D01*
X0062670Y0161400D01*
X0061769Y0162301D01*
X0061943Y0162476D01*
X0061943Y0170101D01*
X0061006Y0171038D01*
X0052594Y0171038D01*
X0051657Y0170101D01*
X0051657Y0162476D01*
X0052594Y0161539D01*
X0056592Y0161539D01*
X0059700Y0158430D01*
X0059700Y0152300D01*
X0057000Y0152300D01*
X0057000Y0147000D01*
X0056600Y0147000D01*
X0056600Y0146600D01*
X0057000Y0146600D01*
X0057000Y0141300D01*
X0059700Y0141300D01*
X0059700Y0139272D02*
X0006600Y0139272D01*
X0006600Y0137673D02*
X0060457Y0137673D01*
X0062055Y0136075D02*
X0006600Y0136075D01*
X0006600Y0134476D02*
X0063654Y0134476D01*
X0065252Y0132878D02*
X0006600Y0132878D01*
X0006600Y0131279D02*
X0066851Y0131279D01*
X0068449Y0129681D02*
X0006600Y0129681D01*
X0006600Y0128082D02*
X0070048Y0128082D01*
X0069258Y0126484D02*
X0064710Y0126484D01*
X0066357Y0124885D02*
X0067390Y0124885D01*
X0062000Y0124885D02*
X0061600Y0124885D01*
X0061600Y0123287D02*
X0062000Y0123287D01*
X0062000Y0121600D02*
X0062000Y0117300D01*
X0062000Y0112000D01*
X0061600Y0112000D01*
X0061600Y0121600D01*
X0062000Y0121600D01*
X0062000Y0120090D02*
X0061600Y0120090D01*
X0061600Y0118491D02*
X0062000Y0118491D01*
X0062000Y0116893D02*
X0061600Y0116893D01*
X0061600Y0115294D02*
X0062000Y0115294D01*
X0062000Y0113696D02*
X0061600Y0113696D01*
X0061600Y0112097D02*
X0062000Y0112097D01*
X0062000Y0111600D02*
X0062000Y0102000D01*
X0061600Y0102000D01*
X0061600Y0107300D01*
X0061600Y0111600D01*
X0062000Y0111600D01*
X0062000Y0110499D02*
X0061600Y0110499D01*
X0061600Y0108900D02*
X0062000Y0108900D01*
X0062000Y0107302D02*
X0061600Y0107302D01*
X0061600Y0105703D02*
X0062000Y0105703D01*
X0062000Y0104105D02*
X0061600Y0104105D01*
X0061600Y0102506D02*
X0062000Y0102506D01*
X0062000Y0100908D02*
X0061600Y0100908D01*
X0061600Y0099309D02*
X0062000Y0099309D01*
X0062000Y0097711D02*
X0061600Y0097711D01*
X0058111Y0097711D02*
X0055206Y0097711D01*
X0056505Y0099309D02*
X0056896Y0099309D01*
X0048394Y0097711D02*
X0045206Y0097711D01*
X0046505Y0099309D02*
X0047095Y0099309D01*
X0038394Y0097711D02*
X0035206Y0097711D01*
X0036505Y0099309D02*
X0037095Y0099309D01*
X0028394Y0097711D02*
X0006600Y0097711D01*
X0006600Y0099309D02*
X0027095Y0099309D01*
X0026500Y0100908D02*
X0006600Y0100908D01*
X0006600Y0102506D02*
X0026500Y0102506D01*
X0027018Y0104105D02*
X0006600Y0104105D01*
X0006600Y0105703D02*
X0028208Y0105703D01*
X0028810Y0107302D02*
X0006600Y0107302D01*
X0006600Y0108900D02*
X0027264Y0108900D01*
X0026602Y0110499D02*
X0006600Y0110499D01*
X0006600Y0112097D02*
X0026500Y0112097D01*
X0026849Y0113696D02*
X0006600Y0113696D01*
X0006600Y0115294D02*
X0027799Y0115294D01*
X0029797Y0116893D02*
X0006600Y0116893D01*
X0006600Y0118491D02*
X0027613Y0118491D01*
X0026772Y0120090D02*
X0006600Y0120090D01*
X0006600Y0121688D02*
X0026500Y0121688D01*
X0026679Y0123287D02*
X0006600Y0123287D01*
X0006600Y0124885D02*
X0027390Y0124885D01*
X0029258Y0126484D02*
X0006600Y0126484D01*
X0016600Y0142469D02*
X0017000Y0142469D01*
X0017000Y0144068D02*
X0016600Y0144068D01*
X0016600Y0145666D02*
X0017000Y0145666D01*
X0017000Y0147265D02*
X0016600Y0147265D01*
X0016600Y0148863D02*
X0017000Y0148863D01*
X0017000Y0150462D02*
X0016600Y0150462D01*
X0016600Y0152060D02*
X0017000Y0152060D01*
X0021398Y0152060D02*
X0025649Y0152060D01*
X0027951Y0152060D02*
X0029090Y0152060D01*
X0022966Y0150462D02*
X0022300Y0150462D01*
X0022194Y0142469D02*
X0023636Y0142469D01*
X0029964Y0142469D02*
X0033636Y0142469D01*
X0032195Y0144068D02*
X0031405Y0144068D01*
X0039964Y0142469D02*
X0051406Y0142469D01*
X0051423Y0142405D02*
X0051660Y0141995D01*
X0051995Y0141660D01*
X0052405Y0141423D01*
X0052863Y0141300D01*
X0056600Y0141300D01*
X0056600Y0146600D01*
X0051300Y0146600D01*
X0051300Y0142863D01*
X0051423Y0142405D01*
X0051300Y0144068D02*
X0041405Y0144068D01*
X0042067Y0145666D02*
X0051300Y0145666D01*
X0051300Y0147265D02*
X0042100Y0147265D01*
X0041682Y0148863D02*
X0051300Y0148863D01*
X0056600Y0148863D02*
X0057000Y0148863D01*
X0057000Y0147265D02*
X0056600Y0147265D01*
X0056600Y0145666D02*
X0057000Y0145666D01*
X0057000Y0144068D02*
X0056600Y0144068D01*
X0056600Y0142469D02*
X0057000Y0142469D01*
X0063900Y0140870D02*
X0084700Y0140870D01*
X0084700Y0139272D02*
X0064798Y0139272D01*
X0066396Y0137673D02*
X0084700Y0137673D01*
X0084700Y0136075D02*
X0067995Y0136075D01*
X0069593Y0134476D02*
X0084700Y0134476D01*
X0084700Y0132878D02*
X0071192Y0132878D01*
X0072790Y0131279D02*
X0084700Y0131279D01*
X0084700Y0129681D02*
X0074389Y0129681D01*
X0075987Y0128082D02*
X0084700Y0128082D01*
X0084700Y0126484D02*
X0084342Y0126484D01*
X0088900Y0126484D02*
X0089258Y0126484D01*
X0088900Y0128082D02*
X0110048Y0128082D01*
X0109700Y0129681D02*
X0088900Y0129681D01*
X0088900Y0131279D02*
X0109700Y0131279D01*
X0109700Y0132878D02*
X0088900Y0132878D01*
X0088900Y0134476D02*
X0109700Y0134476D01*
X0109700Y0136075D02*
X0088900Y0136075D01*
X0088900Y0137673D02*
X0109700Y0137673D01*
X0109700Y0139272D02*
X0088900Y0139272D01*
X0088900Y0140870D02*
X0109700Y0140870D01*
X0103636Y0142469D02*
X0102194Y0142469D01*
X0097000Y0142469D02*
X0096600Y0142469D01*
X0096600Y0141300D02*
X0096600Y0146600D01*
X0091300Y0146600D01*
X0091300Y0142863D01*
X0091423Y0142405D01*
X0091660Y0141995D01*
X0091995Y0141660D01*
X0092405Y0141423D01*
X0092863Y0141300D01*
X0096600Y0141300D01*
X0096600Y0144068D02*
X0097000Y0144068D01*
X0097000Y0145666D02*
X0096600Y0145666D01*
X0096600Y0147265D02*
X0097000Y0147265D01*
X0097000Y0148863D02*
X0096600Y0148863D01*
X0096600Y0150462D02*
X0097000Y0150462D01*
X0097000Y0152060D02*
X0096600Y0152060D01*
X0092202Y0152060D02*
X0088900Y0152060D01*
X0088900Y0150462D02*
X0091300Y0150462D01*
X0091300Y0148863D02*
X0088900Y0148863D01*
X0088900Y0147265D02*
X0091300Y0147265D01*
X0091300Y0145666D02*
X0088900Y0145666D01*
X0088900Y0144068D02*
X0091300Y0144068D01*
X0091406Y0142469D02*
X0088900Y0142469D01*
X0084700Y0142469D02*
X0079964Y0142469D01*
X0081405Y0144068D02*
X0084700Y0144068D01*
X0084700Y0145666D02*
X0082067Y0145666D01*
X0082100Y0147265D02*
X0084700Y0147265D01*
X0084700Y0148863D02*
X0081682Y0148863D01*
X0080634Y0150462D02*
X0084700Y0150462D01*
X0084700Y0152060D02*
X0077951Y0152060D01*
X0076628Y0153659D02*
X0084700Y0153659D01*
X0084700Y0155257D02*
X0078227Y0155257D01*
X0078900Y0156856D02*
X0084700Y0156856D01*
X0084700Y0158454D02*
X0078900Y0158454D01*
X0078900Y0160053D02*
X0084700Y0160053D01*
X0082481Y0161651D02*
X0078900Y0161651D01*
X0078900Y0163250D02*
X0081657Y0163250D01*
X0081657Y0164848D02*
X0078900Y0164848D01*
X0078900Y0166447D02*
X0081657Y0166447D01*
X0081657Y0168045D02*
X0078900Y0168045D01*
X0078900Y0169644D02*
X0081657Y0169644D01*
X0078900Y0171242D02*
X0104700Y0171242D01*
X0102575Y0169644D02*
X0101025Y0169644D01*
X0101025Y0171238D02*
X0101025Y0167063D01*
X0096457Y0167063D01*
X0096457Y0169675D01*
X0096579Y0170133D01*
X0096816Y0170543D01*
X0097151Y0170878D01*
X0097562Y0171115D01*
X0098020Y0171238D01*
X0101025Y0171238D01*
X0101025Y0168045D02*
X0102575Y0168045D01*
X0101025Y0166447D02*
X0091943Y0166447D01*
X0091943Y0168045D02*
X0096457Y0168045D01*
X0096457Y0169644D02*
X0091943Y0169644D01*
X0091285Y0172841D02*
X0097315Y0172841D01*
X0096657Y0174439D02*
X0091943Y0174439D01*
X0091943Y0176038D02*
X0096657Y0176038D01*
X0096657Y0177636D02*
X0091943Y0177636D01*
X0091943Y0179235D02*
X0096657Y0179235D01*
X0096657Y0180833D02*
X0091943Y0180833D01*
X0099700Y0182432D02*
X0071638Y0182432D01*
X0071400Y0184030D02*
X0099700Y0184030D01*
X0099700Y0185629D02*
X0071400Y0185629D01*
X0071400Y0187227D02*
X0099700Y0187227D01*
X0099700Y0188826D02*
X0071400Y0188826D01*
X0071400Y0190424D02*
X0099700Y0190424D01*
X0099700Y0192023D02*
X0071400Y0192023D01*
X0071400Y0193621D02*
X0099700Y0193621D01*
X0099700Y0195220D02*
X0071400Y0195220D01*
X0071400Y0196818D02*
X0099700Y0196818D01*
X0099700Y0198417D02*
X0071400Y0198417D01*
X0071400Y0200015D02*
X0098115Y0200015D01*
X0096516Y0201614D02*
X0071400Y0201614D01*
X0071400Y0203212D02*
X0094918Y0203212D01*
X0093319Y0204811D02*
X0071400Y0204811D01*
X0071400Y0206409D02*
X0091721Y0206409D01*
X0090122Y0208008D02*
X0071400Y0208008D01*
X0071400Y0209606D02*
X0088524Y0209606D01*
X0086925Y0211205D02*
X0085884Y0211205D01*
X0089668Y0214402D02*
X0090065Y0214402D01*
X0089609Y0216001D02*
X0088872Y0216001D01*
X0088872Y0217599D02*
X0089609Y0217599D01*
X0090065Y0219198D02*
X0088417Y0219198D01*
X0087578Y0220796D02*
X0090904Y0220796D01*
X0092596Y0222395D02*
X0085886Y0222395D01*
X0086045Y0225051D02*
X0083648Y0224058D01*
X0081054Y0224058D01*
X0078657Y0225051D01*
X0076823Y0226886D01*
X0075830Y0229282D01*
X0075830Y0231877D01*
X0076823Y0234274D01*
X0078657Y0236108D01*
X0081054Y0237101D01*
X0083648Y0237101D01*
X0086045Y0236108D01*
X0087880Y0234274D01*
X0088872Y0231877D01*
X0088872Y0229282D01*
X0087880Y0226886D01*
X0086045Y0225051D01*
X0086586Y0225592D02*
X0091896Y0225592D01*
X0092437Y0225051D02*
X0094834Y0224058D01*
X0097428Y0224058D01*
X0099825Y0225051D01*
X0101659Y0226886D01*
X0102652Y0229282D01*
X0102652Y0231877D01*
X0101659Y0234274D01*
X0099825Y0236108D01*
X0097428Y0237101D01*
X0094834Y0237101D01*
X0092437Y0236108D01*
X0090602Y0234274D01*
X0089609Y0231877D01*
X0089609Y0229282D01*
X0090602Y0226886D01*
X0092437Y0225051D01*
X0090476Y0227190D02*
X0088006Y0227190D01*
X0088668Y0228789D02*
X0089814Y0228789D01*
X0089609Y0230387D02*
X0088872Y0230387D01*
X0088827Y0231986D02*
X0089655Y0231986D01*
X0090317Y0233584D02*
X0088165Y0233584D01*
X0086970Y0235183D02*
X0091511Y0235183D01*
X0094062Y0236781D02*
X0084420Y0236781D01*
X0080282Y0236781D02*
X0070640Y0236781D01*
X0069869Y0237101D02*
X0072266Y0236108D01*
X0074100Y0234274D01*
X0075093Y0231877D01*
X0075093Y0229282D01*
X0074100Y0226886D01*
X0072266Y0225051D01*
X0069869Y0224058D01*
X0067274Y0224058D01*
X0064878Y0225051D01*
X0063043Y0226886D01*
X0062050Y0229282D01*
X0062050Y0231877D01*
X0063043Y0234274D01*
X0064878Y0236108D01*
X0067274Y0237101D01*
X0069869Y0237101D01*
X0066503Y0236781D02*
X0056861Y0236781D01*
X0056089Y0237101D02*
X0053495Y0237101D01*
X0051098Y0236108D01*
X0049264Y0234274D01*
X0048271Y0231877D01*
X0048271Y0229282D01*
X0049264Y0226886D01*
X0051098Y0225051D01*
X0053495Y0224058D01*
X0056089Y0224058D01*
X0058486Y0225051D01*
X0060321Y0226886D01*
X0061313Y0229282D01*
X0061313Y0231877D01*
X0060321Y0234274D01*
X0058486Y0236108D01*
X0056089Y0237101D01*
X0059411Y0235183D02*
X0063952Y0235183D01*
X0062758Y0233584D02*
X0060606Y0233584D01*
X0061268Y0231986D02*
X0062096Y0231986D01*
X0062050Y0230387D02*
X0061313Y0230387D01*
X0061109Y0228789D02*
X0062255Y0228789D01*
X0062917Y0227190D02*
X0060447Y0227190D01*
X0059027Y0225592D02*
X0064337Y0225592D01*
X0065037Y0222395D02*
X0058327Y0222395D01*
X0060019Y0220796D02*
X0063345Y0220796D01*
X0062506Y0219198D02*
X0060858Y0219198D01*
X0061313Y0217599D02*
X0062050Y0217599D01*
X0062050Y0216001D02*
X0061313Y0216001D01*
X0060857Y0214402D02*
X0062506Y0214402D01*
X0063346Y0212803D02*
X0060018Y0212803D01*
X0058900Y0211205D02*
X0065038Y0211205D01*
X0067200Y0209606D02*
X0058900Y0209606D01*
X0058900Y0208008D02*
X0067200Y0208008D01*
X0067200Y0206409D02*
X0058900Y0206409D01*
X0058900Y0204811D02*
X0067200Y0204811D01*
X0067200Y0203212D02*
X0058900Y0203212D01*
X0058900Y0201614D02*
X0067200Y0201614D01*
X0067200Y0200015D02*
X0058900Y0200015D01*
X0058900Y0198417D02*
X0067200Y0198417D01*
X0067200Y0196818D02*
X0058900Y0196818D01*
X0058900Y0195220D02*
X0067200Y0195220D01*
X0067200Y0193621D02*
X0058900Y0193621D01*
X0058900Y0192023D02*
X0067200Y0192023D01*
X0067200Y0190424D02*
X0058900Y0190424D01*
X0058900Y0188826D02*
X0067200Y0188826D01*
X0067200Y0187227D02*
X0058900Y0187227D01*
X0058900Y0185629D02*
X0067200Y0185629D01*
X0067200Y0184030D02*
X0058900Y0184030D01*
X0058900Y0182432D02*
X0067200Y0182432D01*
X0066657Y0180833D02*
X0061943Y0180833D01*
X0061943Y0179235D02*
X0066657Y0179235D01*
X0066657Y0177636D02*
X0061943Y0177636D01*
X0061943Y0176038D02*
X0066657Y0176038D01*
X0066657Y0174439D02*
X0061943Y0174439D01*
X0061285Y0172841D02*
X0067315Y0172841D01*
X0067562Y0171115D02*
X0067151Y0170878D01*
X0066816Y0170543D01*
X0066579Y0170133D01*
X0066457Y0169675D01*
X0066457Y0167063D01*
X0071025Y0167063D01*
X0071025Y0171238D01*
X0068020Y0171238D01*
X0067562Y0171115D01*
X0066457Y0169644D02*
X0061943Y0169644D01*
X0061943Y0168045D02*
X0066457Y0168045D01*
X0066457Y0165513D02*
X0066457Y0162902D01*
X0066579Y0162444D01*
X0066816Y0162033D01*
X0067151Y0161698D01*
X0067562Y0161461D01*
X0068020Y0161339D01*
X0071025Y0161339D01*
X0071025Y0165513D01*
X0066457Y0165513D01*
X0066457Y0164848D02*
X0061943Y0164848D01*
X0061943Y0163250D02*
X0066457Y0163250D01*
X0067233Y0161651D02*
X0062419Y0161651D01*
X0063900Y0160053D02*
X0074700Y0160053D01*
X0074700Y0158454D02*
X0063900Y0158454D01*
X0063900Y0156856D02*
X0073886Y0156856D01*
X0072287Y0155257D02*
X0063900Y0155257D01*
X0063900Y0153659D02*
X0070689Y0153659D01*
X0069090Y0152060D02*
X0067951Y0152060D01*
X0065649Y0152060D02*
X0063900Y0152060D01*
X0059700Y0156856D02*
X0046075Y0156856D01*
X0047674Y0158454D02*
X0059676Y0158454D01*
X0058078Y0160053D02*
X0048900Y0160053D01*
X0048900Y0161651D02*
X0052481Y0161651D01*
X0051657Y0163250D02*
X0048900Y0163250D01*
X0048900Y0164848D02*
X0051657Y0164848D01*
X0051657Y0166447D02*
X0048900Y0166447D01*
X0048900Y0168045D02*
X0051657Y0168045D01*
X0051657Y0169644D02*
X0048900Y0169644D01*
X0048900Y0171242D02*
X0074700Y0171242D01*
X0072575Y0169644D02*
X0071025Y0169644D01*
X0071025Y0168045D02*
X0072575Y0168045D01*
X0071025Y0166447D02*
X0061943Y0166447D01*
X0071025Y0164848D02*
X0072575Y0164848D01*
X0072575Y0163250D02*
X0071025Y0163250D01*
X0071025Y0161651D02*
X0072575Y0161651D01*
X0075030Y0152060D02*
X0075649Y0152060D01*
X0072195Y0144068D02*
X0071405Y0144068D01*
X0069964Y0142469D02*
X0073636Y0142469D01*
X0077586Y0126484D02*
X0079258Y0126484D01*
X0094342Y0126484D02*
X0099258Y0126484D01*
X0097390Y0124885D02*
X0096210Y0124885D01*
X0104342Y0126484D02*
X0109258Y0126484D01*
X0107390Y0124885D02*
X0106210Y0124885D01*
X0125150Y0137673D02*
X0125586Y0137673D01*
X0125150Y0139272D02*
X0134700Y0139272D01*
X0134700Y0140870D02*
X0125150Y0140870D01*
X0125150Y0142469D02*
X0128636Y0142469D01*
X0127195Y0144068D02*
X0125150Y0144068D01*
X0125150Y0145666D02*
X0126533Y0145666D01*
X0126500Y0147265D02*
X0125150Y0147265D01*
X0125150Y0148863D02*
X0126918Y0148863D01*
X0127966Y0150462D02*
X0125150Y0150462D01*
X0125150Y0152060D02*
X0130649Y0152060D01*
X0132951Y0152060D02*
X0134700Y0152060D01*
X0134700Y0153659D02*
X0125150Y0153659D01*
X0125150Y0155257D02*
X0134700Y0155257D01*
X0134700Y0156856D02*
X0125150Y0156856D01*
X0125150Y0158454D02*
X0134676Y0158454D01*
X0133078Y0160053D02*
X0125150Y0160053D01*
X0125150Y0161651D02*
X0127481Y0161651D01*
X0126657Y0163250D02*
X0125150Y0163250D01*
X0125150Y0164848D02*
X0126657Y0164848D01*
X0126657Y0166447D02*
X0125150Y0166447D01*
X0125150Y0168045D02*
X0126657Y0168045D01*
X0126657Y0169644D02*
X0125150Y0169644D01*
X0125150Y0171242D02*
X0134388Y0171242D01*
X0137131Y0174439D02*
X0226976Y0174439D01*
X0226975Y0172841D02*
X0138729Y0172841D01*
X0140328Y0171242D02*
X0226975Y0171242D01*
X0226974Y0169644D02*
X0194021Y0169644D01*
X0195160Y0168045D02*
X0226974Y0168045D01*
X0226973Y0166447D02*
X0195381Y0166447D01*
X0194868Y0164848D02*
X0226973Y0164848D01*
X0226972Y0163250D02*
X0192587Y0163250D01*
X0191013Y0163250D02*
X0176219Y0163250D01*
X0174621Y0161651D02*
X0226972Y0161651D01*
X0226971Y0160053D02*
X0173022Y0160053D01*
X0171424Y0158454D02*
X0226971Y0158454D01*
X0226970Y0156856D02*
X0169825Y0156856D01*
X0168227Y0155257D02*
X0173115Y0155257D01*
X0172948Y0155090D02*
X0172481Y0154447D01*
X0172120Y0153739D01*
X0171874Y0152983D01*
X0171750Y0152197D01*
X0171750Y0151800D01*
X0176800Y0151800D01*
X0176800Y0151800D01*
X0176800Y0156850D01*
X0177197Y0156850D01*
X0177983Y0156726D01*
X0178739Y0156480D01*
X0179447Y0156119D01*
X0180090Y0155652D01*
X0180652Y0155090D01*
X0181119Y0154447D01*
X0181480Y0153739D01*
X0181726Y0152983D01*
X0181850Y0152197D01*
X0181850Y0151800D01*
X0176800Y0151800D01*
X0176800Y0151800D01*
X0176800Y0151800D01*
X0176800Y0156850D01*
X0176403Y0156850D01*
X0175617Y0156726D01*
X0174861Y0156480D01*
X0174153Y0156119D01*
X0173510Y0155652D01*
X0172948Y0155090D01*
X0172094Y0153659D02*
X0166628Y0153659D01*
X0165030Y0152060D02*
X0171750Y0152060D01*
X0171750Y0151800D02*
X0171750Y0151403D01*
X0171874Y0150617D01*
X0172120Y0149861D01*
X0172481Y0149153D01*
X0172948Y0148510D01*
X0173510Y0147948D01*
X0174153Y0147481D01*
X0174861Y0147120D01*
X0175617Y0146874D01*
X0176403Y0146750D01*
X0176800Y0146750D01*
X0177197Y0146750D01*
X0177983Y0146874D01*
X0178739Y0147120D01*
X0179447Y0147481D01*
X0180090Y0147948D01*
X0180652Y0148510D01*
X0181119Y0149153D01*
X0181480Y0149861D01*
X0181726Y0150617D01*
X0181850Y0151403D01*
X0181850Y0151800D01*
X0176800Y0151800D01*
X0176800Y0146750D01*
X0176800Y0151800D01*
X0176800Y0151800D01*
X0171750Y0151800D01*
X0171925Y0150462D02*
X0163900Y0150462D01*
X0163900Y0148863D02*
X0172692Y0148863D01*
X0174578Y0147265D02*
X0163900Y0147265D01*
X0163900Y0145666D02*
X0171950Y0145666D01*
X0171950Y0144068D02*
X0163900Y0144068D01*
X0163900Y0142469D02*
X0171950Y0142469D01*
X0171950Y0140870D02*
X0163900Y0140870D01*
X0163900Y0139272D02*
X0171950Y0139272D01*
X0172164Y0137673D02*
X0163900Y0137673D01*
X0163900Y0136075D02*
X0179131Y0136075D01*
X0180729Y0134476D02*
X0163900Y0134476D01*
X0163900Y0132878D02*
X0182328Y0132878D01*
X0184300Y0134300D02*
X0209300Y0134300D01*
X0211800Y0131800D01*
X0211800Y0031800D01*
X0201800Y0021800D01*
X0039300Y0021800D01*
X0031800Y0029300D01*
X0031800Y0031800D01*
X0036685Y0029744D02*
X0036703Y0029689D01*
X0037096Y0028917D01*
X0037605Y0028217D01*
X0038217Y0027605D01*
X0038917Y0027096D01*
X0039689Y0026703D01*
X0040512Y0026435D01*
X0041367Y0026300D01*
X0041600Y0026300D01*
X0041600Y0031600D01*
X0042000Y0031600D01*
X0042000Y0026300D01*
X0042233Y0026300D01*
X0043088Y0026435D01*
X0043911Y0026703D01*
X0044683Y0027096D01*
X0045383Y0027605D01*
X0045995Y0028217D01*
X0046504Y0028917D01*
X0046897Y0029689D01*
X0046915Y0029744D01*
X0047307Y0028798D01*
X0048798Y0027307D01*
X0050746Y0026500D01*
X0052854Y0026500D01*
X0054802Y0027307D01*
X0056293Y0028798D01*
X0056800Y0030022D01*
X0057307Y0028798D01*
X0058798Y0027307D01*
X0060746Y0026500D01*
X0062854Y0026500D01*
X0064802Y0027307D01*
X0066293Y0028798D01*
X0066800Y0030022D01*
X0067307Y0028798D01*
X0068798Y0027307D01*
X0070746Y0026500D01*
X0072854Y0026500D01*
X0074802Y0027307D01*
X0076293Y0028798D01*
X0076800Y0030022D01*
X0077307Y0028798D01*
X0078798Y0027307D01*
X0080746Y0026500D01*
X0082854Y0026500D01*
X0084802Y0027307D01*
X0086293Y0028798D01*
X0086800Y0030022D01*
X0087307Y0028798D01*
X0088798Y0027307D01*
X0090746Y0026500D01*
X0092854Y0026500D01*
X0094802Y0027307D01*
X0096293Y0028798D01*
X0096800Y0030022D01*
X0097307Y0028798D01*
X0098798Y0027307D01*
X0100746Y0026500D01*
X0102854Y0026500D01*
X0104802Y0027307D01*
X0106293Y0028798D01*
X0106800Y0030022D01*
X0107307Y0028798D01*
X0108798Y0027307D01*
X0110746Y0026500D01*
X0112854Y0026500D01*
X0114802Y0027307D01*
X0116293Y0028798D01*
X0116800Y0030022D01*
X0117307Y0028798D01*
X0118798Y0027307D01*
X0120746Y0026500D01*
X0122854Y0026500D01*
X0124802Y0027307D01*
X0126293Y0028798D01*
X0126800Y0030022D01*
X0127307Y0028798D01*
X0128798Y0027307D01*
X0130746Y0026500D01*
X0132854Y0026500D01*
X0134802Y0027307D01*
X0136293Y0028798D01*
X0136800Y0030022D01*
X0137307Y0028798D01*
X0138798Y0027307D01*
X0140746Y0026500D01*
X0142854Y0026500D01*
X0144802Y0027307D01*
X0146293Y0028798D01*
X0146800Y0030022D01*
X0147307Y0028798D01*
X0148798Y0027307D01*
X0150746Y0026500D01*
X0152854Y0026500D01*
X0154802Y0027307D01*
X0156293Y0028798D01*
X0156800Y0030022D01*
X0157307Y0028798D01*
X0158798Y0027307D01*
X0160746Y0026500D01*
X0162854Y0026500D01*
X0164802Y0027307D01*
X0166293Y0028798D01*
X0166800Y0030022D01*
X0167307Y0028798D01*
X0168798Y0027307D01*
X0170746Y0026500D01*
X0172854Y0026500D01*
X0174802Y0027307D01*
X0176293Y0028798D01*
X0176800Y0030022D01*
X0177307Y0028798D01*
X0178798Y0027307D01*
X0180746Y0026500D01*
X0182854Y0026500D01*
X0184802Y0027307D01*
X0186293Y0028798D01*
X0186800Y0030022D01*
X0187307Y0028798D01*
X0188798Y0027307D01*
X0190746Y0026500D01*
X0192854Y0026500D01*
X0194802Y0027307D01*
X0196293Y0028798D01*
X0196800Y0030022D01*
X0197307Y0028798D01*
X0198798Y0027307D01*
X0200746Y0026500D01*
X0202854Y0026500D01*
X0203284Y0026678D01*
X0200806Y0024200D01*
X0040294Y0024200D01*
X0035995Y0028499D01*
X0036293Y0028798D01*
X0036685Y0029744D01*
X0036366Y0028975D02*
X0037067Y0028975D01*
X0037118Y0027376D02*
X0038532Y0027376D01*
X0038716Y0025778D02*
X0202384Y0025778D01*
X0198728Y0027376D02*
X0194872Y0027376D01*
X0196366Y0028975D02*
X0197234Y0028975D01*
X0203982Y0036967D02*
X0209400Y0036967D01*
X0209400Y0035369D02*
X0205727Y0035369D01*
X0206721Y0033770D02*
X0209400Y0033770D01*
X0208778Y0032172D02*
X0207100Y0032172D01*
X0207029Y0030573D02*
X0207179Y0030573D01*
X0210770Y0027376D02*
X0212611Y0027376D01*
X0212369Y0028975D02*
X0226930Y0028975D01*
X0226930Y0030573D02*
X0213890Y0030573D01*
X0214200Y0032172D02*
X0226931Y0032172D01*
X0226931Y0033770D02*
X0214200Y0033770D01*
X0214200Y0035369D02*
X0226932Y0035369D01*
X0226932Y0036967D02*
X0214200Y0036967D01*
X0214200Y0038566D02*
X0226933Y0038566D01*
X0226933Y0040164D02*
X0214200Y0040164D01*
X0214200Y0041763D02*
X0226934Y0041763D01*
X0226934Y0043361D02*
X0214200Y0043361D01*
X0214200Y0044960D02*
X0226935Y0044960D01*
X0226935Y0046558D02*
X0214200Y0046558D01*
X0214200Y0048157D02*
X0226936Y0048157D01*
X0226936Y0049755D02*
X0214200Y0049755D01*
X0214200Y0051354D02*
X0226937Y0051354D01*
X0226937Y0052952D02*
X0214200Y0052952D01*
X0214200Y0054551D02*
X0226938Y0054551D01*
X0226938Y0056149D02*
X0214200Y0056149D01*
X0214200Y0057748D02*
X0226939Y0057748D01*
X0226939Y0059346D02*
X0214200Y0059346D01*
X0214200Y0060945D02*
X0226940Y0060945D01*
X0226940Y0062543D02*
X0214200Y0062543D01*
X0214200Y0064142D02*
X0226941Y0064142D01*
X0226941Y0065740D02*
X0214200Y0065740D01*
X0214200Y0067339D02*
X0226942Y0067339D01*
X0226942Y0068937D02*
X0214200Y0068937D01*
X0214200Y0070536D02*
X0226943Y0070536D01*
X0226943Y0072134D02*
X0214200Y0072134D01*
X0214200Y0073733D02*
X0226944Y0073733D01*
X0226944Y0075332D02*
X0214200Y0075332D01*
X0214200Y0076930D02*
X0226945Y0076930D01*
X0226945Y0078529D02*
X0214200Y0078529D01*
X0214200Y0080127D02*
X0226946Y0080127D01*
X0226946Y0081726D02*
X0214200Y0081726D01*
X0214200Y0083324D02*
X0226947Y0083324D01*
X0226947Y0084923D02*
X0214200Y0084923D01*
X0214200Y0086521D02*
X0226948Y0086521D01*
X0226948Y0088120D02*
X0214200Y0088120D01*
X0214200Y0089718D02*
X0226949Y0089718D01*
X0226949Y0091317D02*
X0214200Y0091317D01*
X0214200Y0092915D02*
X0226950Y0092915D01*
X0226950Y0094514D02*
X0214200Y0094514D01*
X0214200Y0096112D02*
X0226951Y0096112D01*
X0226951Y0097711D02*
X0214200Y0097711D01*
X0214200Y0099309D02*
X0226952Y0099309D01*
X0226952Y0100908D02*
X0214200Y0100908D01*
X0214200Y0102506D02*
X0226953Y0102506D01*
X0226953Y0104105D02*
X0214200Y0104105D01*
X0214200Y0105703D02*
X0226954Y0105703D01*
X0226955Y0107302D02*
X0214200Y0107302D01*
X0214200Y0108900D02*
X0226955Y0108900D01*
X0226956Y0110499D02*
X0214200Y0110499D01*
X0214200Y0112097D02*
X0226956Y0112097D01*
X0226957Y0113696D02*
X0214200Y0113696D01*
X0214200Y0115294D02*
X0226957Y0115294D01*
X0226958Y0116893D02*
X0214200Y0116893D01*
X0214200Y0118491D02*
X0226958Y0118491D01*
X0226959Y0120090D02*
X0214200Y0120090D01*
X0214200Y0121688D02*
X0226959Y0121688D01*
X0226960Y0123287D02*
X0214200Y0123287D01*
X0214200Y0124885D02*
X0226960Y0124885D01*
X0226961Y0126484D02*
X0214200Y0126484D01*
X0214200Y0128082D02*
X0226961Y0128082D01*
X0226962Y0129681D02*
X0214200Y0129681D01*
X0214200Y0131279D02*
X0226962Y0131279D01*
X0226963Y0132878D02*
X0213951Y0132878D01*
X0213159Y0133835D02*
X0213159Y0133835D01*
X0212518Y0134476D02*
X0226963Y0134476D01*
X0226964Y0136075D02*
X0210919Y0136075D01*
X0208926Y0131279D02*
X0163900Y0131279D01*
X0162651Y0129681D02*
X0209400Y0129681D01*
X0209400Y0128082D02*
X0161052Y0128082D01*
X0158310Y0131279D02*
X0138900Y0131279D01*
X0138900Y0129681D02*
X0156711Y0129681D01*
X0155113Y0128082D02*
X0138900Y0128082D01*
X0138900Y0126484D02*
X0139258Y0126484D01*
X0134700Y0126484D02*
X0134342Y0126484D01*
X0134700Y0128082D02*
X0133900Y0128082D01*
X0133900Y0129681D02*
X0134700Y0129681D01*
X0134700Y0131279D02*
X0132790Y0131279D01*
X0131192Y0132878D02*
X0134700Y0132878D01*
X0134700Y0134476D02*
X0130381Y0134476D01*
X0129941Y0136075D02*
X0134700Y0136075D01*
X0134700Y0137673D02*
X0128014Y0137673D01*
X0138900Y0137673D02*
X0159700Y0137673D01*
X0159700Y0136075D02*
X0138900Y0136075D01*
X0138900Y0134476D02*
X0159700Y0134476D01*
X0159700Y0132878D02*
X0138900Y0132878D01*
X0138900Y0139272D02*
X0159700Y0139272D01*
X0159700Y0140870D02*
X0138900Y0140870D01*
X0144964Y0142469D02*
X0148404Y0142469D01*
X0147019Y0144068D02*
X0146405Y0144068D01*
X0146682Y0148863D02*
X0146687Y0148863D01*
X0147683Y0150462D02*
X0145634Y0150462D01*
X0143900Y0152060D02*
X0150190Y0152060D01*
X0151800Y0152060D02*
X0151800Y0152060D01*
X0151800Y0150462D02*
X0151800Y0150462D01*
X0151800Y0148863D02*
X0151800Y0148863D01*
X0151800Y0147265D02*
X0151800Y0147265D01*
X0151800Y0146800D02*
X0151800Y0141300D01*
X0151800Y0146800D01*
X0151800Y0146800D01*
X0151800Y0145666D02*
X0151800Y0145666D01*
X0151800Y0144068D02*
X0151800Y0144068D01*
X0151800Y0142469D02*
X0151800Y0142469D01*
X0155196Y0142469D02*
X0159700Y0142469D01*
X0159700Y0144068D02*
X0156581Y0144068D01*
X0157189Y0145666D02*
X0159700Y0145666D01*
X0159700Y0147265D02*
X0157295Y0147265D01*
X0156913Y0148863D02*
X0159700Y0148863D01*
X0159700Y0150462D02*
X0155917Y0150462D01*
X0153410Y0152060D02*
X0159700Y0152060D01*
X0160689Y0153659D02*
X0143900Y0153659D01*
X0143900Y0155257D02*
X0162287Y0155257D01*
X0163886Y0156856D02*
X0143900Y0156856D01*
X0143900Y0158454D02*
X0165484Y0158454D01*
X0167083Y0160053D02*
X0143900Y0160053D01*
X0143900Y0161651D02*
X0168681Y0161651D01*
X0170280Y0163250D02*
X0143900Y0163250D01*
X0143900Y0164848D02*
X0171878Y0164848D01*
X0173477Y0166447D02*
X0143900Y0166447D01*
X0143525Y0168045D02*
X0175075Y0168045D01*
X0176800Y0155257D02*
X0176800Y0155257D01*
X0176800Y0153659D02*
X0176800Y0153659D01*
X0176800Y0152060D02*
X0176800Y0152060D01*
X0176800Y0150462D02*
X0176800Y0150462D01*
X0176800Y0148863D02*
X0176800Y0148863D01*
X0176800Y0147265D02*
X0176800Y0147265D01*
X0179022Y0147265D02*
X0226967Y0147265D01*
X0226968Y0148863D02*
X0180908Y0148863D01*
X0181675Y0150462D02*
X0226968Y0150462D01*
X0226969Y0152060D02*
X0181850Y0152060D01*
X0181506Y0153659D02*
X0226969Y0153659D01*
X0226970Y0155257D02*
X0180485Y0155257D01*
X0181650Y0145666D02*
X0226967Y0145666D01*
X0226966Y0144068D02*
X0181650Y0144068D01*
X0181650Y0142469D02*
X0226966Y0142469D01*
X0226965Y0140870D02*
X0181650Y0140870D01*
X0182722Y0139272D02*
X0226965Y0139272D01*
X0226964Y0137673D02*
X0184321Y0137673D01*
X0184300Y0134300D02*
X0176800Y0141800D01*
X0174342Y0126484D02*
X0179258Y0126484D01*
X0177390Y0124885D02*
X0176210Y0124885D01*
X0169258Y0126484D02*
X0164342Y0126484D01*
X0166210Y0124885D02*
X0167390Y0124885D01*
X0184342Y0126484D02*
X0189258Y0126484D01*
X0187390Y0124885D02*
X0186210Y0124885D01*
X0194342Y0126484D02*
X0199258Y0126484D01*
X0197390Y0124885D02*
X0196210Y0124885D01*
X0204342Y0126484D02*
X0209400Y0126484D01*
X0209400Y0124885D02*
X0206210Y0124885D01*
X0206921Y0123287D02*
X0209400Y0123287D01*
X0209400Y0121688D02*
X0207100Y0121688D01*
X0206828Y0120090D02*
X0209400Y0120090D01*
X0209400Y0118491D02*
X0205987Y0118491D01*
X0203803Y0116893D02*
X0209400Y0116893D01*
X0209400Y0115294D02*
X0205801Y0115294D01*
X0206751Y0113696D02*
X0209400Y0113696D01*
X0209400Y0112097D02*
X0207100Y0112097D01*
X0206998Y0110499D02*
X0209400Y0110499D01*
X0209400Y0108900D02*
X0206336Y0108900D01*
X0204790Y0107302D02*
X0209400Y0107302D01*
X0209400Y0105703D02*
X0205392Y0105703D01*
X0206582Y0104105D02*
X0209400Y0104105D01*
X0209400Y0102506D02*
X0207100Y0102506D01*
X0207100Y0100908D02*
X0209400Y0100908D01*
X0209400Y0099309D02*
X0206505Y0099309D01*
X0205206Y0097711D02*
X0209400Y0097711D01*
X0209400Y0096112D02*
X0138900Y0096112D01*
X0138900Y0094514D02*
X0209400Y0094514D01*
X0209400Y0092915D02*
X0138900Y0092915D01*
X0138900Y0091317D02*
X0209400Y0091317D01*
X0209400Y0089718D02*
X0138900Y0089718D01*
X0138900Y0088120D02*
X0209400Y0088120D01*
X0209400Y0086521D02*
X0138900Y0086521D01*
X0138900Y0084923D02*
X0209400Y0084923D01*
X0209400Y0083324D02*
X0138900Y0083324D01*
X0138900Y0081726D02*
X0209400Y0081726D01*
X0209400Y0080127D02*
X0138900Y0080127D01*
X0138900Y0078529D02*
X0209400Y0078529D01*
X0209400Y0076930D02*
X0138900Y0076930D01*
X0138900Y0075332D02*
X0209400Y0075332D01*
X0209400Y0073733D02*
X0138900Y0073733D01*
X0138900Y0072134D02*
X0209400Y0072134D01*
X0209400Y0070536D02*
X0138900Y0070536D01*
X0138900Y0068937D02*
X0209400Y0068937D01*
X0209400Y0067339D02*
X0138900Y0067339D01*
X0138900Y0065740D02*
X0209400Y0065740D01*
X0209400Y0064142D02*
X0138900Y0064142D01*
X0138900Y0062543D02*
X0209400Y0062543D01*
X0209400Y0060945D02*
X0138900Y0060945D01*
X0138900Y0059346D02*
X0209400Y0059346D01*
X0209400Y0057748D02*
X0138900Y0057748D01*
X0134700Y0057748D02*
X0118900Y0057748D01*
X0118900Y0056335D02*
X0118900Y0097265D01*
X0120746Y0096500D01*
X0122854Y0096500D01*
X0124802Y0097307D01*
X0126293Y0098798D01*
X0126800Y0100022D01*
X0127307Y0098798D01*
X0128798Y0097307D01*
X0130746Y0096500D01*
X0132854Y0096500D01*
X0134700Y0097265D01*
X0134700Y0056335D01*
X0132854Y0057100D01*
X0130746Y0057100D01*
X0128798Y0056293D01*
X0127307Y0054802D01*
X0126800Y0053578D01*
X0126293Y0054802D01*
X0124802Y0056293D01*
X0122854Y0057100D01*
X0120746Y0057100D01*
X0118900Y0056335D01*
X0118900Y0059346D02*
X0134700Y0059346D01*
X0134700Y0060945D02*
X0118900Y0060945D01*
X0118900Y0062543D02*
X0134700Y0062543D01*
X0134700Y0064142D02*
X0118900Y0064142D01*
X0118900Y0065740D02*
X0134700Y0065740D01*
X0134700Y0067339D02*
X0118900Y0067339D01*
X0118900Y0068937D02*
X0134700Y0068937D01*
X0134700Y0070536D02*
X0118900Y0070536D01*
X0118900Y0072134D02*
X0134700Y0072134D01*
X0134700Y0073733D02*
X0118900Y0073733D01*
X0118900Y0075332D02*
X0134700Y0075332D01*
X0134700Y0076930D02*
X0118900Y0076930D01*
X0118900Y0078529D02*
X0134700Y0078529D01*
X0134700Y0080127D02*
X0118900Y0080127D01*
X0118900Y0081726D02*
X0134700Y0081726D01*
X0134700Y0083324D02*
X0118900Y0083324D01*
X0118900Y0084923D02*
X0134700Y0084923D01*
X0134700Y0086521D02*
X0118900Y0086521D01*
X0118900Y0088120D02*
X0134700Y0088120D01*
X0134700Y0089718D02*
X0118900Y0089718D01*
X0118900Y0091317D02*
X0134700Y0091317D01*
X0134700Y0092915D02*
X0118900Y0092915D01*
X0118900Y0094514D02*
X0134700Y0094514D01*
X0134700Y0096112D02*
X0118900Y0096112D01*
X0114700Y0096112D02*
X0088900Y0096112D01*
X0088900Y0097265D02*
X0090746Y0096500D01*
X0092854Y0096500D01*
X0094802Y0097307D01*
X0096293Y0098798D01*
X0096800Y0100022D01*
X0097307Y0098798D01*
X0098798Y0097307D01*
X0100746Y0096500D01*
X0102854Y0096500D01*
X0104802Y0097307D01*
X0106293Y0098798D01*
X0106800Y0100022D01*
X0107307Y0098798D01*
X0108798Y0097307D01*
X0110746Y0096500D01*
X0112854Y0096500D01*
X0114700Y0097265D01*
X0114700Y0057670D01*
X0113756Y0056726D01*
X0112854Y0057100D01*
X0110746Y0057100D01*
X0108798Y0056293D01*
X0108287Y0055783D01*
X0107670Y0056400D01*
X0088900Y0075170D01*
X0088900Y0097265D01*
X0088900Y0094514D02*
X0114700Y0094514D01*
X0114700Y0092915D02*
X0088900Y0092915D01*
X0088900Y0091317D02*
X0114700Y0091317D01*
X0114700Y0089718D02*
X0088900Y0089718D01*
X0088900Y0088120D02*
X0114700Y0088120D01*
X0114700Y0086521D02*
X0088900Y0086521D01*
X0088900Y0084923D02*
X0114700Y0084923D01*
X0114700Y0083324D02*
X0088900Y0083324D01*
X0088900Y0081726D02*
X0114700Y0081726D01*
X0114700Y0080127D02*
X0088900Y0080127D01*
X0088900Y0078529D02*
X0114700Y0078529D01*
X0114700Y0076930D02*
X0088900Y0076930D01*
X0088900Y0075332D02*
X0114700Y0075332D01*
X0114700Y0073733D02*
X0090337Y0073733D01*
X0091935Y0072134D02*
X0114700Y0072134D01*
X0114700Y0070536D02*
X0093534Y0070536D01*
X0095132Y0068937D02*
X0114700Y0068937D01*
X0114700Y0067339D02*
X0096731Y0067339D01*
X0098329Y0065740D02*
X0114700Y0065740D01*
X0114700Y0064142D02*
X0099928Y0064142D01*
X0101526Y0062543D02*
X0114700Y0062543D01*
X0114700Y0060945D02*
X0103125Y0060945D01*
X0104723Y0059346D02*
X0114700Y0059346D01*
X0114700Y0057748D02*
X0106322Y0057748D01*
X0107920Y0056149D02*
X0108654Y0056149D01*
X0101030Y0057100D02*
X0100746Y0057100D01*
X0098798Y0056293D01*
X0098287Y0055783D01*
X0097670Y0056400D01*
X0078900Y0075170D01*
X0078900Y0097265D01*
X0080746Y0096500D01*
X0082854Y0096500D01*
X0084700Y0097265D01*
X0084700Y0073430D01*
X0101030Y0057100D01*
X0100382Y0057748D02*
X0096322Y0057748D01*
X0094723Y0059346D02*
X0098784Y0059346D01*
X0097185Y0060945D02*
X0093125Y0060945D01*
X0091526Y0062543D02*
X0095587Y0062543D01*
X0093988Y0064142D02*
X0089928Y0064142D01*
X0088329Y0065740D02*
X0092390Y0065740D01*
X0090791Y0067339D02*
X0086731Y0067339D01*
X0085132Y0068937D02*
X0089193Y0068937D01*
X0087594Y0070536D02*
X0083534Y0070536D01*
X0081935Y0072134D02*
X0085996Y0072134D01*
X0084700Y0073733D02*
X0080337Y0073733D01*
X0078900Y0075332D02*
X0084700Y0075332D01*
X0084700Y0076930D02*
X0078900Y0076930D01*
X0078900Y0078529D02*
X0084700Y0078529D01*
X0084700Y0080127D02*
X0078900Y0080127D01*
X0078900Y0081726D02*
X0084700Y0081726D01*
X0084700Y0083324D02*
X0078900Y0083324D01*
X0078900Y0084923D02*
X0084700Y0084923D01*
X0084700Y0086521D02*
X0078900Y0086521D01*
X0078900Y0088120D02*
X0084700Y0088120D01*
X0084700Y0089718D02*
X0078900Y0089718D01*
X0078900Y0091317D02*
X0084700Y0091317D01*
X0084700Y0092915D02*
X0078900Y0092915D01*
X0078900Y0094514D02*
X0084700Y0094514D01*
X0084700Y0096112D02*
X0078900Y0096112D01*
X0074700Y0096112D02*
X0006600Y0096112D01*
X0006600Y0094514D02*
X0074700Y0094514D01*
X0074700Y0092915D02*
X0006600Y0092915D01*
X0006600Y0091317D02*
X0074700Y0091317D01*
X0074700Y0089718D02*
X0006600Y0089718D01*
X0006600Y0088120D02*
X0074700Y0088120D01*
X0074700Y0086521D02*
X0006600Y0086521D01*
X0006600Y0084923D02*
X0074700Y0084923D01*
X0074700Y0083324D02*
X0006600Y0083324D01*
X0006600Y0081726D02*
X0074700Y0081726D01*
X0074700Y0080127D02*
X0006600Y0080127D01*
X0006600Y0078529D02*
X0074700Y0078529D01*
X0074700Y0076930D02*
X0006600Y0076930D01*
X0006600Y0075332D02*
X0074700Y0075332D01*
X0074700Y0073733D02*
X0006600Y0073733D01*
X0006600Y0072134D02*
X0075996Y0072134D01*
X0077594Y0070536D02*
X0006600Y0070536D01*
X0006600Y0068937D02*
X0079193Y0068937D01*
X0080791Y0067339D02*
X0006600Y0067339D01*
X0006600Y0065740D02*
X0082390Y0065740D01*
X0083988Y0064142D02*
X0006600Y0064142D01*
X0006600Y0062543D02*
X0085587Y0062543D01*
X0087185Y0060945D02*
X0006600Y0060945D01*
X0006600Y0059346D02*
X0088784Y0059346D01*
X0090382Y0057748D02*
X0006600Y0057748D01*
X0006600Y0056149D02*
X0028654Y0056149D01*
X0027203Y0054551D02*
X0006600Y0054551D01*
X0006600Y0052952D02*
X0026541Y0052952D01*
X0026500Y0051354D02*
X0006600Y0051354D01*
X0006600Y0049755D02*
X0026910Y0049755D01*
X0027948Y0048157D02*
X0006600Y0048157D01*
X0006600Y0046558D02*
X0029438Y0046558D01*
X0027464Y0044960D02*
X0006600Y0044960D01*
X0006600Y0043361D02*
X0026710Y0043361D01*
X0026500Y0041763D02*
X0006600Y0041763D01*
X0006600Y0040164D02*
X0026741Y0040164D01*
X0027539Y0038566D02*
X0006600Y0038566D01*
X0006600Y0036967D02*
X0029618Y0036967D01*
X0027873Y0035369D02*
X0006600Y0035369D01*
X0006600Y0033770D02*
X0026879Y0033770D01*
X0026500Y0032172D02*
X0006600Y0032172D01*
X0006600Y0030573D02*
X0026571Y0030573D01*
X0027234Y0028975D02*
X0006600Y0028975D01*
X0006600Y0027376D02*
X0012611Y0027376D01*
X0009797Y0025778D02*
X0006600Y0025778D01*
X0006600Y0024179D02*
X0008199Y0024179D01*
X0007089Y0022581D02*
X0006600Y0022581D01*
X0020989Y0027376D02*
X0028728Y0027376D01*
X0031928Y0025778D02*
X0023803Y0025778D01*
X0025401Y0024179D02*
X0033527Y0024179D01*
X0035125Y0022581D02*
X0026511Y0022581D01*
X0027378Y0020982D02*
X0036724Y0020982D01*
X0041600Y0027376D02*
X0042000Y0027376D01*
X0042000Y0028975D02*
X0041600Y0028975D01*
X0041600Y0030573D02*
X0042000Y0030573D01*
X0042000Y0032000D02*
X0041600Y0032000D01*
X0041600Y0037300D01*
X0041600Y0041600D01*
X0042000Y0041600D01*
X0042000Y0032000D01*
X0042000Y0032172D02*
X0041600Y0032172D01*
X0041600Y0033770D02*
X0042000Y0033770D01*
X0042000Y0035369D02*
X0041600Y0035369D01*
X0041600Y0036967D02*
X0042000Y0036967D01*
X0042000Y0038566D02*
X0041600Y0038566D01*
X0041600Y0040164D02*
X0042000Y0040164D01*
X0042000Y0042000D02*
X0041600Y0042000D01*
X0041600Y0051600D01*
X0042000Y0051600D01*
X0042000Y0047300D01*
X0042000Y0042000D01*
X0042000Y0043361D02*
X0041600Y0043361D01*
X0041600Y0044960D02*
X0042000Y0044960D01*
X0042000Y0046558D02*
X0041600Y0046558D01*
X0041600Y0048157D02*
X0042000Y0048157D01*
X0042000Y0049755D02*
X0041600Y0049755D01*
X0041600Y0051354D02*
X0042000Y0051354D01*
X0042000Y0052952D02*
X0041600Y0052952D01*
X0041600Y0054551D02*
X0042000Y0054551D01*
X0042000Y0056149D02*
X0041600Y0056149D01*
X0038429Y0056149D02*
X0034946Y0056149D01*
X0036397Y0054551D02*
X0037029Y0054551D01*
X0045171Y0056149D02*
X0048654Y0056149D01*
X0047203Y0054551D02*
X0046571Y0054551D01*
X0054946Y0056149D02*
X0058654Y0056149D01*
X0057203Y0054551D02*
X0056397Y0054551D01*
X0064946Y0056149D02*
X0068654Y0056149D01*
X0067203Y0054551D02*
X0066397Y0054551D01*
X0074946Y0056149D02*
X0078654Y0056149D01*
X0077203Y0054551D02*
X0076397Y0054551D01*
X0084946Y0056149D02*
X0088654Y0056149D01*
X0087203Y0054551D02*
X0086397Y0054551D01*
X0097920Y0056149D02*
X0098654Y0056149D01*
X0124946Y0056149D02*
X0128654Y0056149D01*
X0127203Y0054551D02*
X0126397Y0054551D01*
X0144946Y0056149D02*
X0148654Y0056149D01*
X0147203Y0054551D02*
X0146397Y0054551D01*
X0154946Y0056149D02*
X0158654Y0056149D01*
X0157203Y0054551D02*
X0156397Y0054551D01*
X0164946Y0056149D02*
X0168654Y0056149D01*
X0167203Y0054551D02*
X0166397Y0054551D01*
X0174946Y0056149D02*
X0178654Y0056149D01*
X0177203Y0054551D02*
X0176397Y0054551D01*
X0184946Y0056149D02*
X0188654Y0056149D01*
X0187203Y0054551D02*
X0186397Y0054551D01*
X0194946Y0056149D02*
X0198654Y0056149D01*
X0197203Y0054551D02*
X0196397Y0054551D01*
X0204946Y0056149D02*
X0209400Y0056149D01*
X0209400Y0054551D02*
X0206397Y0054551D01*
X0207059Y0052952D02*
X0209400Y0052952D01*
X0209400Y0051354D02*
X0207100Y0051354D01*
X0206690Y0049755D02*
X0209400Y0049755D01*
X0209400Y0048157D02*
X0205652Y0048157D01*
X0204162Y0046558D02*
X0209400Y0046558D01*
X0209400Y0044960D02*
X0206136Y0044960D01*
X0206890Y0043361D02*
X0209400Y0043361D01*
X0209400Y0041763D02*
X0207100Y0041763D01*
X0206859Y0040164D02*
X0209400Y0040164D01*
X0209400Y0038566D02*
X0206061Y0038566D01*
X0209172Y0025778D02*
X0209797Y0025778D01*
X0208199Y0024179D02*
X0207573Y0024179D01*
X0207089Y0022581D02*
X0205975Y0022581D01*
X0206222Y0020982D02*
X0204376Y0020982D01*
X0205794Y0019384D02*
X0027806Y0019384D01*
X0028100Y0017785D02*
X0205500Y0017785D01*
X0205500Y0016187D02*
X0028100Y0016187D01*
X0027906Y0014588D02*
X0205694Y0014588D01*
X0206122Y0012990D02*
X0027478Y0012990D01*
X0026725Y0011391D02*
X0206875Y0011391D01*
X0207827Y0009793D02*
X0025773Y0009793D01*
X0024175Y0008194D02*
X0209425Y0008194D01*
X0226511Y0022581D02*
X0226928Y0022581D01*
X0226928Y0024179D02*
X0225401Y0024179D01*
X0226929Y0025778D02*
X0223803Y0025778D01*
X0220989Y0027376D02*
X0226929Y0027376D01*
X0188728Y0027376D02*
X0184872Y0027376D01*
X0186366Y0028975D02*
X0187234Y0028975D01*
X0178728Y0027376D02*
X0174872Y0027376D01*
X0176366Y0028975D02*
X0177234Y0028975D01*
X0168728Y0027376D02*
X0164872Y0027376D01*
X0166366Y0028975D02*
X0167234Y0028975D01*
X0158728Y0027376D02*
X0154872Y0027376D01*
X0156366Y0028975D02*
X0157234Y0028975D01*
X0148728Y0027376D02*
X0144872Y0027376D01*
X0146366Y0028975D02*
X0147234Y0028975D01*
X0138728Y0027376D02*
X0134872Y0027376D01*
X0136366Y0028975D02*
X0137234Y0028975D01*
X0128728Y0027376D02*
X0124872Y0027376D01*
X0126366Y0028975D02*
X0127234Y0028975D01*
X0118728Y0027376D02*
X0114872Y0027376D01*
X0116366Y0028975D02*
X0117234Y0028975D01*
X0108728Y0027376D02*
X0104872Y0027376D01*
X0106366Y0028975D02*
X0107234Y0028975D01*
X0098728Y0027376D02*
X0094872Y0027376D01*
X0096366Y0028975D02*
X0097234Y0028975D01*
X0088728Y0027376D02*
X0084872Y0027376D01*
X0086366Y0028975D02*
X0087234Y0028975D01*
X0078728Y0027376D02*
X0074872Y0027376D01*
X0076366Y0028975D02*
X0077234Y0028975D01*
X0068728Y0027376D02*
X0064872Y0027376D01*
X0066366Y0028975D02*
X0067234Y0028975D01*
X0058728Y0027376D02*
X0054872Y0027376D01*
X0056366Y0028975D02*
X0057234Y0028975D01*
X0048728Y0027376D02*
X0045068Y0027376D01*
X0046533Y0028975D02*
X0047234Y0028975D01*
X0065489Y0097711D02*
X0068394Y0097711D01*
X0067095Y0099309D02*
X0066704Y0099309D01*
X0057243Y0124885D02*
X0056210Y0124885D01*
X0054342Y0126484D02*
X0058890Y0126484D01*
X0061600Y0126484D02*
X0062000Y0126484D01*
X0049258Y0126484D02*
X0044342Y0126484D01*
X0046210Y0124885D02*
X0047390Y0124885D01*
X0039258Y0126484D02*
X0034342Y0126484D01*
X0036210Y0124885D02*
X0037390Y0124885D01*
X0056600Y0150462D02*
X0057000Y0150462D01*
X0057000Y0152060D02*
X0056600Y0152060D01*
X0052315Y0172841D02*
X0048900Y0172841D01*
X0048900Y0174439D02*
X0051657Y0174439D01*
X0051657Y0179235D02*
X0046943Y0179235D01*
X0046943Y0180833D02*
X0051657Y0180833D01*
X0054700Y0182432D02*
X0027326Y0182432D01*
X0027756Y0184030D02*
X0054700Y0184030D01*
X0054700Y0185629D02*
X0028100Y0185629D01*
X0028100Y0187227D02*
X0054700Y0187227D01*
X0054700Y0188826D02*
X0027956Y0188826D01*
X0027527Y0190424D02*
X0054700Y0190424D01*
X0054700Y0192023D02*
X0026833Y0192023D01*
X0025910Y0193621D02*
X0054700Y0193621D01*
X0054700Y0195220D02*
X0024361Y0195220D01*
X0022048Y0196818D02*
X0054700Y0196818D01*
X0054700Y0198417D02*
X0006600Y0198417D01*
X0006600Y0200015D02*
X0054700Y0200015D01*
X0054700Y0201614D02*
X0006600Y0201614D01*
X0006600Y0203212D02*
X0054700Y0203212D01*
X0054700Y0204811D02*
X0006600Y0204811D01*
X0006600Y0206409D02*
X0054700Y0206409D01*
X0054700Y0208008D02*
X0006600Y0208008D01*
X0006600Y0209606D02*
X0054700Y0209606D01*
X0051259Y0211205D02*
X0006600Y0211205D01*
X0006600Y0212803D02*
X0049566Y0212803D01*
X0048727Y0214402D02*
X0031107Y0214402D01*
X0032125Y0214675D02*
X0035015Y0216343D01*
X0037375Y0218703D01*
X0039043Y0221593D01*
X0039907Y0224816D01*
X0039907Y0228154D01*
X0039043Y0231377D01*
X0037375Y0234267D01*
X0035015Y0236627D01*
X0032125Y0238295D01*
X0028902Y0239159D01*
X0025564Y0239159D01*
X0022341Y0238295D01*
X0019451Y0236627D01*
X0017091Y0234267D01*
X0015423Y0231377D01*
X0014559Y0228154D01*
X0014559Y0224816D01*
X0015423Y0221593D01*
X0017091Y0218703D01*
X0019451Y0216343D01*
X0022341Y0214675D01*
X0025564Y0213811D01*
X0028902Y0213811D01*
X0032125Y0214675D01*
X0034421Y0216001D02*
X0048271Y0216001D01*
X0048271Y0217599D02*
X0036271Y0217599D01*
X0037660Y0219198D02*
X0048727Y0219198D01*
X0049566Y0220796D02*
X0038583Y0220796D01*
X0039258Y0222395D02*
X0051258Y0222395D01*
X0050558Y0225592D02*
X0039907Y0225592D01*
X0039907Y0227190D02*
X0049137Y0227190D01*
X0048475Y0228789D02*
X0039737Y0228789D01*
X0039309Y0230387D02*
X0048271Y0230387D01*
X0048316Y0231986D02*
X0038692Y0231986D01*
X0037769Y0233584D02*
X0048978Y0233584D01*
X0050173Y0235183D02*
X0036459Y0235183D01*
X0034748Y0236781D02*
X0052723Y0236781D01*
X0039686Y0223993D02*
X0102273Y0223993D01*
X0100675Y0222395D02*
X0099665Y0222395D01*
X0100365Y0225592D02*
X0105393Y0225592D01*
X0104106Y0227190D02*
X0101785Y0227190D01*
X0102447Y0228789D02*
X0103432Y0228789D01*
X0102652Y0230387D02*
X0109234Y0230387D01*
X0110587Y0230387D02*
X0117169Y0230387D01*
X0117214Y0231986D02*
X0116492Y0231986D01*
X0115937Y0233584D02*
X0117876Y0233584D01*
X0119070Y0235183D02*
X0114812Y0235183D01*
X0112502Y0236781D02*
X0121621Y0236781D01*
X0125759Y0236781D02*
X0128450Y0236781D01*
X0128450Y0235183D02*
X0128309Y0235183D01*
X0129160Y0238380D02*
X0031810Y0238380D01*
X0022656Y0238380D02*
X0006600Y0238380D01*
X0006600Y0239978D02*
X0130758Y0239978D01*
X0133501Y0236781D02*
X0135401Y0236781D01*
X0132850Y0235183D02*
X0132650Y0235183D01*
X0139538Y0236781D02*
X0149180Y0236781D01*
X0149952Y0237101D02*
X0147555Y0236108D01*
X0145720Y0234274D01*
X0144728Y0231877D01*
X0144728Y0229282D01*
X0145720Y0226886D01*
X0147555Y0225051D01*
X0149952Y0224058D01*
X0152546Y0224058D01*
X0154943Y0225051D01*
X0156777Y0226886D01*
X0157770Y0229282D01*
X0157770Y0231877D01*
X0156777Y0234274D01*
X0154943Y0236108D01*
X0152546Y0237101D01*
X0149952Y0237101D01*
X0153318Y0236781D02*
X0162437Y0236781D01*
X0160126Y0235183D02*
X0155868Y0235183D01*
X0157063Y0233584D02*
X0159002Y0233584D01*
X0158447Y0231986D02*
X0157725Y0231986D01*
X0157770Y0230387D02*
X0164352Y0230387D01*
X0164352Y0229903D02*
X0158338Y0229903D01*
X0158422Y0229265D01*
X0158650Y0228414D01*
X0158987Y0227600D01*
X0159428Y0226837D01*
X0159964Y0226138D01*
X0160587Y0225515D01*
X0161286Y0224979D01*
X0162049Y0224538D01*
X0162863Y0224201D01*
X0163714Y0223973D01*
X0164352Y0223889D01*
X0164352Y0229903D01*
X0164352Y0228789D02*
X0165705Y0228789D01*
X0165705Y0229903D02*
X0165705Y0223889D01*
X0166342Y0223973D01*
X0167193Y0224201D01*
X0168007Y0224538D01*
X0168770Y0224979D01*
X0169469Y0225515D01*
X0170092Y0226138D01*
X0170629Y0226837D01*
X0171069Y0227600D01*
X0171407Y0228414D01*
X0171635Y0229265D01*
X0171719Y0229903D01*
X0165705Y0229903D01*
X0165705Y0230387D02*
X0172287Y0230387D01*
X0172332Y0231986D02*
X0171610Y0231986D01*
X0171055Y0233584D02*
X0172994Y0233584D01*
X0174189Y0235183D02*
X0169930Y0235183D01*
X0167620Y0236781D02*
X0175950Y0236781D01*
X0179092Y0239978D02*
X0226996Y0239978D01*
X0226996Y0238380D02*
X0210944Y0238380D01*
X0211259Y0238295D02*
X0208035Y0239159D01*
X0204698Y0239159D01*
X0201475Y0238295D01*
X0198585Y0236627D01*
X0196225Y0234267D01*
X0194557Y0231377D01*
X0193693Y0228154D01*
X0193693Y0224816D01*
X0194557Y0221593D01*
X0196225Y0218703D01*
X0198585Y0216343D01*
X0201475Y0214675D01*
X0204698Y0213811D01*
X0208035Y0213811D01*
X0211259Y0214675D01*
X0214149Y0216343D01*
X0216509Y0218703D01*
X0218177Y0221593D01*
X0219041Y0224816D01*
X0219041Y0228154D01*
X0218177Y0231377D01*
X0216509Y0234267D01*
X0214149Y0236627D01*
X0211259Y0238295D01*
X0213882Y0236781D02*
X0226995Y0236781D01*
X0226995Y0235183D02*
X0215593Y0235183D01*
X0216903Y0233584D02*
X0226994Y0233584D01*
X0226994Y0231986D02*
X0217826Y0231986D01*
X0218442Y0230387D02*
X0226993Y0230387D01*
X0226993Y0228789D02*
X0218871Y0228789D01*
X0219041Y0227190D02*
X0226992Y0227190D01*
X0226992Y0225592D02*
X0219041Y0225592D01*
X0218820Y0223993D02*
X0226991Y0223993D01*
X0226991Y0222395D02*
X0218392Y0222395D01*
X0217717Y0220796D02*
X0226990Y0220796D01*
X0226990Y0219198D02*
X0216794Y0219198D01*
X0215405Y0217599D02*
X0226989Y0217599D01*
X0226989Y0216001D02*
X0213555Y0216001D01*
X0210241Y0214402D02*
X0226988Y0214402D01*
X0226988Y0212803D02*
X0184034Y0212803D01*
X0184336Y0213106D02*
X0185329Y0215503D01*
X0185329Y0218097D01*
X0184336Y0220494D01*
X0182502Y0222328D01*
X0180105Y0223321D01*
X0177511Y0223321D01*
X0175114Y0222328D01*
X0173279Y0220494D01*
X0172287Y0218097D01*
X0172287Y0215503D01*
X0173279Y0213106D01*
X0175114Y0211272D01*
X0177511Y0210279D01*
X0180105Y0210279D01*
X0182502Y0211272D01*
X0184336Y0213106D01*
X0184873Y0214402D02*
X0202493Y0214402D01*
X0199179Y0216001D02*
X0185329Y0216001D01*
X0185329Y0217599D02*
X0197329Y0217599D01*
X0195940Y0219198D02*
X0184873Y0219198D01*
X0184034Y0220796D02*
X0195017Y0220796D01*
X0194342Y0222395D02*
X0182342Y0222395D01*
X0183042Y0225592D02*
X0193693Y0225592D01*
X0193693Y0227190D02*
X0184462Y0227190D01*
X0185125Y0228789D02*
X0193863Y0228789D01*
X0194291Y0230387D02*
X0185329Y0230387D01*
X0185284Y0231986D02*
X0194908Y0231986D01*
X0195831Y0233584D02*
X0184622Y0233584D01*
X0183427Y0235183D02*
X0197141Y0235183D01*
X0198852Y0236781D02*
X0180877Y0236781D01*
X0180150Y0238380D02*
X0201790Y0238380D01*
X0193914Y0223993D02*
X0166416Y0223993D01*
X0166326Y0223321D02*
X0163731Y0223321D01*
X0161334Y0222328D01*
X0159500Y0220494D01*
X0158507Y0218097D01*
X0158507Y0215503D01*
X0159500Y0213106D01*
X0161334Y0211272D01*
X0163731Y0210279D01*
X0166326Y0210279D01*
X0168722Y0211272D01*
X0170557Y0213106D01*
X0171550Y0215503D01*
X0171550Y0218097D01*
X0170557Y0220494D01*
X0168722Y0222328D01*
X0166326Y0223321D01*
X0165705Y0223993D02*
X0164352Y0223993D01*
X0163640Y0223993D02*
X0146400Y0223993D01*
X0146400Y0222395D02*
X0147714Y0222395D01*
X0147014Y0225592D02*
X0145978Y0225592D01*
X0145594Y0227190D02*
X0144380Y0227190D01*
X0144932Y0228789D02*
X0143786Y0228789D01*
X0143991Y0230387D02*
X0144728Y0230387D01*
X0144773Y0231986D02*
X0143945Y0231986D01*
X0143283Y0233584D02*
X0145435Y0233584D01*
X0146629Y0235183D02*
X0142089Y0235183D01*
X0155483Y0225592D02*
X0160511Y0225592D01*
X0159224Y0227190D02*
X0156903Y0227190D01*
X0157566Y0228789D02*
X0158550Y0228789D01*
X0164352Y0227190D02*
X0165705Y0227190D01*
X0165705Y0225592D02*
X0164352Y0225592D01*
X0161494Y0222395D02*
X0154783Y0222395D01*
X0156475Y0220796D02*
X0159802Y0220796D01*
X0158963Y0219198D02*
X0157314Y0219198D01*
X0157770Y0217599D02*
X0158507Y0217599D01*
X0158507Y0216001D02*
X0157770Y0216001D01*
X0157314Y0214402D02*
X0158963Y0214402D01*
X0159802Y0212803D02*
X0156475Y0212803D01*
X0154782Y0211205D02*
X0161495Y0211205D01*
X0168562Y0211205D02*
X0175275Y0211205D01*
X0173582Y0212803D02*
X0170254Y0212803D01*
X0171094Y0214402D02*
X0172743Y0214402D01*
X0172287Y0216001D02*
X0171550Y0216001D01*
X0171550Y0217599D02*
X0172287Y0217599D01*
X0172742Y0219198D02*
X0171094Y0219198D01*
X0170255Y0220796D02*
X0173581Y0220796D01*
X0175273Y0222395D02*
X0168563Y0222395D01*
X0169546Y0225592D02*
X0174573Y0225592D01*
X0173153Y0227190D02*
X0170832Y0227190D01*
X0171507Y0228789D02*
X0172491Y0228789D01*
X0182341Y0211205D02*
X0226987Y0211205D01*
X0226987Y0209606D02*
X0146400Y0209606D01*
X0146400Y0208008D02*
X0226986Y0208008D01*
X0226986Y0206409D02*
X0146400Y0206409D01*
X0146400Y0204811D02*
X0226985Y0204811D01*
X0226985Y0203212D02*
X0146400Y0203212D01*
X0146400Y0201614D02*
X0147072Y0201614D01*
X0151528Y0201614D02*
X0157072Y0201614D01*
X0155020Y0200015D02*
X0153580Y0200015D01*
X0153617Y0193621D02*
X0154983Y0193621D01*
X0156983Y0192023D02*
X0151616Y0192023D01*
X0146984Y0192023D02*
X0146400Y0192023D01*
X0146400Y0190424D02*
X0206073Y0190424D01*
X0205644Y0188826D02*
X0146400Y0188826D01*
X0146400Y0187227D02*
X0205500Y0187227D01*
X0205500Y0185629D02*
X0146400Y0185629D01*
X0145750Y0184030D02*
X0205844Y0184030D01*
X0206274Y0182432D02*
X0144152Y0182432D01*
X0142180Y0186400D02*
X0123430Y0186400D01*
X0122200Y0185170D01*
X0122180Y0185150D01*
X0120950Y0183920D01*
X0120950Y0182061D01*
X0112594Y0182061D01*
X0111657Y0181124D01*
X0111657Y0178900D01*
X0106943Y0178900D01*
X0106943Y0181124D01*
X0106006Y0182061D01*
X0103900Y0182061D01*
X0103900Y0200170D01*
X0102670Y0201400D01*
X0093054Y0211016D01*
X0094834Y0210279D01*
X0097428Y0210279D01*
X0099495Y0211135D01*
X0109828Y0200802D01*
X0109828Y0196137D01*
X0110766Y0195200D01*
X0113450Y0195200D01*
X0113450Y0195170D01*
X0110428Y0192148D01*
X0110428Y0191963D01*
X0109678Y0191213D01*
X0109678Y0184887D01*
X0110616Y0183950D01*
X0117984Y0183950D01*
X0118922Y0184887D01*
X0118922Y0185950D01*
X0121719Y0185950D01*
X0122506Y0185889D01*
X0122577Y0185950D01*
X0122670Y0185950D01*
X0123228Y0186508D01*
X0131327Y0193450D01*
X0131420Y0193450D01*
X0131978Y0194008D01*
X0132577Y0194522D01*
X0132584Y0194614D01*
X0132650Y0194680D01*
X0132650Y0195469D01*
X0132711Y0196256D01*
X0132650Y0196327D01*
X0132650Y0212397D01*
X0133775Y0211272D01*
X0136172Y0210279D01*
X0138766Y0210279D01*
X0141163Y0211272D01*
X0142200Y0212308D01*
X0142200Y0201335D01*
X0140354Y0202100D01*
X0138246Y0202100D01*
X0136298Y0201293D01*
X0134807Y0199802D01*
X0134000Y0197854D01*
X0134000Y0195746D01*
X0134807Y0193798D01*
X0136298Y0192307D01*
X0138246Y0191500D01*
X0140354Y0191500D01*
X0142200Y0192265D01*
X0142200Y0186420D01*
X0142180Y0186400D01*
X0142200Y0187227D02*
X0124067Y0187227D01*
X0122659Y0185629D02*
X0118922Y0185629D01*
X0118065Y0184030D02*
X0121060Y0184030D01*
X0120950Y0182432D02*
X0103900Y0182432D01*
X0103900Y0184030D02*
X0110535Y0184030D01*
X0109678Y0185629D02*
X0103900Y0185629D01*
X0103900Y0187227D02*
X0109678Y0187227D01*
X0109678Y0188826D02*
X0103900Y0188826D01*
X0103900Y0190424D02*
X0109678Y0190424D01*
X0110428Y0192023D02*
X0103900Y0192023D01*
X0103900Y0193621D02*
X0111902Y0193621D01*
X0110746Y0195220D02*
X0103900Y0195220D01*
X0103900Y0196818D02*
X0109828Y0196818D01*
X0109828Y0198417D02*
X0103900Y0198417D01*
X0103900Y0200015D02*
X0109828Y0200015D01*
X0109016Y0201614D02*
X0102456Y0201614D01*
X0100857Y0203212D02*
X0107418Y0203212D01*
X0105819Y0204811D02*
X0099259Y0204811D01*
X0097660Y0206409D02*
X0104221Y0206409D01*
X0102622Y0208008D02*
X0096062Y0208008D01*
X0094463Y0209606D02*
X0101024Y0209606D01*
X0114428Y0225592D02*
X0115732Y0225592D01*
X0115714Y0227190D02*
X0117330Y0227190D01*
X0117373Y0228789D02*
X0116389Y0228789D01*
X0110587Y0231986D02*
X0109234Y0231986D01*
X0109234Y0233584D02*
X0110587Y0233584D01*
X0110587Y0235183D02*
X0109234Y0235183D01*
X0109234Y0236781D02*
X0110587Y0236781D01*
X0107319Y0236781D02*
X0098199Y0236781D01*
X0100750Y0235183D02*
X0105008Y0235183D01*
X0103884Y0233584D02*
X0101945Y0233584D01*
X0102607Y0231986D02*
X0103329Y0231986D01*
X0077732Y0235183D02*
X0073191Y0235183D01*
X0074386Y0233584D02*
X0076537Y0233584D01*
X0075875Y0231986D02*
X0075048Y0231986D01*
X0075093Y0230387D02*
X0075830Y0230387D01*
X0076034Y0228789D02*
X0074888Y0228789D01*
X0074226Y0227190D02*
X0076697Y0227190D01*
X0078117Y0225592D02*
X0072806Y0225592D01*
X0072106Y0222395D02*
X0078817Y0222395D01*
X0077125Y0220796D02*
X0073798Y0220796D01*
X0074637Y0219198D02*
X0076286Y0219198D01*
X0075830Y0217599D02*
X0075093Y0217599D01*
X0075093Y0216001D02*
X0075830Y0216001D01*
X0076286Y0214402D02*
X0074637Y0214402D01*
X0073798Y0212803D02*
X0077125Y0212803D01*
X0078818Y0211205D02*
X0072105Y0211205D01*
X0076943Y0180833D02*
X0081657Y0180833D01*
X0081657Y0179235D02*
X0076943Y0179235D01*
X0078900Y0174439D02*
X0081657Y0174439D01*
X0082315Y0172841D02*
X0078900Y0172841D01*
X0091943Y0164848D02*
X0096457Y0164848D01*
X0096457Y0165513D02*
X0096457Y0162902D01*
X0096579Y0162444D01*
X0096816Y0162033D01*
X0097151Y0161698D01*
X0097562Y0161461D01*
X0098020Y0161339D01*
X0101025Y0161339D01*
X0101025Y0165513D01*
X0096457Y0165513D01*
X0096457Y0163250D02*
X0091943Y0163250D01*
X0091119Y0161651D02*
X0097233Y0161651D01*
X0101025Y0161651D02*
X0102575Y0161651D01*
X0102575Y0163250D02*
X0101025Y0163250D01*
X0101025Y0164848D02*
X0102575Y0164848D01*
X0104700Y0160053D02*
X0088900Y0160053D01*
X0088900Y0158454D02*
X0104700Y0158454D01*
X0104700Y0156856D02*
X0088900Y0156856D01*
X0088900Y0155257D02*
X0104700Y0155257D01*
X0104700Y0153659D02*
X0088900Y0153659D01*
X0101398Y0152060D02*
X0104700Y0152060D01*
X0102966Y0150462D02*
X0102300Y0150462D01*
X0113900Y0151335D02*
X0113900Y0158430D01*
X0117008Y0161539D01*
X0120950Y0161539D01*
X0120950Y0150145D01*
X0119802Y0151293D01*
X0117854Y0152100D01*
X0115746Y0152100D01*
X0113900Y0151335D01*
X0113900Y0152060D02*
X0115649Y0152060D01*
X0117951Y0152060D02*
X0120950Y0152060D01*
X0120950Y0150462D02*
X0120634Y0150462D01*
X0120950Y0153659D02*
X0113900Y0153659D01*
X0113900Y0155257D02*
X0120950Y0155257D01*
X0120950Y0156856D02*
X0113900Y0156856D01*
X0113924Y0158454D02*
X0120950Y0158454D01*
X0120950Y0160053D02*
X0115522Y0160053D01*
X0125150Y0172841D02*
X0127315Y0172841D01*
X0126657Y0174439D02*
X0125150Y0174439D01*
X0125150Y0176038D02*
X0126657Y0176038D01*
X0126657Y0177636D02*
X0125150Y0177636D01*
X0125150Y0179235D02*
X0126657Y0179235D01*
X0126657Y0180833D02*
X0125150Y0180833D01*
X0125932Y0188826D02*
X0142200Y0188826D01*
X0142200Y0190424D02*
X0127797Y0190424D01*
X0129662Y0192023D02*
X0136983Y0192023D01*
X0134983Y0193621D02*
X0131591Y0193621D01*
X0132650Y0195220D02*
X0134218Y0195220D01*
X0134000Y0196818D02*
X0132650Y0196818D01*
X0132650Y0198417D02*
X0134233Y0198417D01*
X0135020Y0200015D02*
X0132650Y0200015D01*
X0132650Y0201614D02*
X0137072Y0201614D01*
X0141528Y0201614D02*
X0142200Y0201614D01*
X0142200Y0203212D02*
X0132650Y0203212D01*
X0132650Y0204811D02*
X0142200Y0204811D01*
X0142200Y0206409D02*
X0132650Y0206409D01*
X0132650Y0208008D02*
X0142200Y0208008D01*
X0142200Y0209606D02*
X0132650Y0209606D01*
X0132650Y0211205D02*
X0133936Y0211205D01*
X0141003Y0211205D02*
X0142200Y0211205D01*
X0146400Y0211205D02*
X0147715Y0211205D01*
X0161528Y0201614D02*
X0226984Y0201614D01*
X0226984Y0200015D02*
X0163580Y0200015D01*
X0164367Y0198417D02*
X0226983Y0198417D01*
X0226983Y0196818D02*
X0222048Y0196818D01*
X0224361Y0195220D02*
X0226982Y0195220D01*
X0226982Y0193621D02*
X0225910Y0193621D01*
X0226833Y0192023D02*
X0226981Y0192023D01*
X0226978Y0180833D02*
X0226403Y0180833D01*
X0226977Y0179235D02*
X0225215Y0179235D01*
X0223528Y0177636D02*
X0226977Y0177636D01*
X0226976Y0176038D02*
X0220295Y0176038D01*
X0213305Y0176038D02*
X0136943Y0176038D01*
X0136943Y0177636D02*
X0210072Y0177636D01*
X0208385Y0179235D02*
X0136943Y0179235D01*
X0136943Y0180833D02*
X0207197Y0180833D01*
X0206767Y0192023D02*
X0161616Y0192023D01*
X0163617Y0193621D02*
X0207690Y0193621D01*
X0209239Y0195220D02*
X0164382Y0195220D01*
X0164600Y0196818D02*
X0211552Y0196818D01*
X0189579Y0169644D02*
X0141926Y0169644D01*
X0142200Y0192023D02*
X0141616Y0192023D01*
X0111657Y0180833D02*
X0106943Y0180833D01*
X0106943Y0179235D02*
X0111657Y0179235D01*
X0144342Y0126484D02*
X0149258Y0126484D01*
X0147390Y0124885D02*
X0146210Y0124885D01*
X0146505Y0099309D02*
X0147095Y0099309D01*
X0148394Y0097711D02*
X0145206Y0097711D01*
X0155206Y0097711D02*
X0158394Y0097711D01*
X0157095Y0099309D02*
X0156505Y0099309D01*
X0165206Y0097711D02*
X0168394Y0097711D01*
X0167095Y0099309D02*
X0166505Y0099309D01*
X0175206Y0097711D02*
X0178394Y0097711D01*
X0177095Y0099309D02*
X0176505Y0099309D01*
X0185206Y0097711D02*
X0188394Y0097711D01*
X0187095Y0099309D02*
X0186505Y0099309D01*
X0195206Y0097711D02*
X0198394Y0097711D01*
X0197095Y0099309D02*
X0196505Y0099309D01*
X0128394Y0097711D02*
X0125206Y0097711D01*
X0126505Y0099309D02*
X0127095Y0099309D01*
X0108394Y0097711D02*
X0105206Y0097711D01*
X0106505Y0099309D02*
X0107095Y0099309D01*
X0098394Y0097711D02*
X0095206Y0097711D01*
X0096505Y0099309D02*
X0097095Y0099309D01*
X0036657Y0176038D02*
X0020295Y0176038D01*
X0023528Y0177636D02*
X0036657Y0177636D01*
X0036657Y0179235D02*
X0025215Y0179235D01*
X0026403Y0180833D02*
X0036657Y0180833D01*
X0011552Y0196818D02*
X0006600Y0196818D01*
X0006600Y0195220D02*
X0009239Y0195220D01*
X0007690Y0193621D02*
X0006600Y0193621D01*
X0006600Y0192023D02*
X0006767Y0192023D01*
X0006600Y0214402D02*
X0023359Y0214402D01*
X0020045Y0216001D02*
X0006600Y0216001D01*
X0006600Y0217599D02*
X0018195Y0217599D01*
X0016806Y0219198D02*
X0006600Y0219198D01*
X0006600Y0220796D02*
X0015883Y0220796D01*
X0015208Y0222395D02*
X0006600Y0222395D01*
X0006600Y0223993D02*
X0014780Y0223993D01*
X0014559Y0225592D02*
X0006600Y0225592D01*
X0006600Y0227190D02*
X0014559Y0227190D01*
X0014729Y0228789D02*
X0006600Y0228789D01*
X0006600Y0230387D02*
X0015158Y0230387D01*
X0015774Y0231986D02*
X0006600Y0231986D01*
X0006600Y0233584D02*
X0016697Y0233584D01*
X0018007Y0235183D02*
X0006600Y0235183D01*
X0006600Y0236781D02*
X0019718Y0236781D01*
X0006600Y0241577D02*
X0226997Y0241577D01*
X0226997Y0243175D02*
X0006600Y0243175D01*
X0006600Y0244774D02*
X0226998Y0244774D01*
X0226998Y0246372D02*
X0006600Y0246372D01*
D18*
X0036800Y0244300D03*
X0014300Y0209300D03*
X0039300Y0199300D03*
X0011800Y0166800D03*
X0036800Y0136800D03*
X0011800Y0126800D03*
X0011800Y0109300D03*
X0011800Y0091800D03*
X0011800Y0071800D03*
X0011800Y0051800D03*
X0011800Y0034300D03*
X0070550Y0079300D03*
X0081800Y0079300D03*
X0106800Y0079300D03*
X0131800Y0078050D03*
X0141800Y0078050D03*
X0126800Y0134300D03*
X0126800Y0156800D03*
X0116800Y0156800D03*
X0094300Y0184300D03*
X0084300Y0184300D03*
X0076800Y0136800D03*
X0138050Y0189300D03*
X0149300Y0189300D03*
X0166800Y0200550D03*
X0191800Y0166800D03*
X0191800Y0154300D03*
X0209300Y0166800D03*
X0219300Y0209300D03*
X0191800Y0241800D03*
X0119300Y0244300D03*
X0159300Y0159300D03*
X0221800Y0124300D03*
X0221800Y0106800D03*
X0221800Y0089300D03*
X0221800Y0071800D03*
X0221800Y0054300D03*
X0221800Y0034300D03*
X0204300Y0078050D03*
X0124300Y0011800D03*
D19*
X0129300Y0036800D02*
X0131800Y0039300D01*
X0131800Y0041800D01*
X0129300Y0036800D02*
X0099300Y0036800D01*
X0096800Y0039300D01*
X0096800Y0054300D01*
X0076800Y0074300D01*
X0076800Y0124300D01*
X0061800Y0139300D01*
X0061800Y0159300D01*
X0056800Y0164300D01*
X0056800Y0166288D01*
X0056800Y0176800D02*
X0046800Y0176800D01*
X0046800Y0160550D01*
X0041800Y0155550D01*
X0035550Y0155550D01*
X0026800Y0146800D01*
X0041800Y0176800D02*
X0041800Y0177312D01*
X0041800Y0176800D02*
X0046800Y0176800D01*
X0056800Y0176800D02*
X0056800Y0177312D01*
X0056800Y0216800D01*
X0054792Y0216800D01*
X0068572Y0216800D02*
X0069300Y0216800D01*
X0069300Y0181800D01*
X0071800Y0179300D01*
X0071800Y0177312D01*
X0071800Y0176800D01*
X0076800Y0176800D01*
X0076800Y0156800D01*
X0066800Y0146800D01*
X0086800Y0166288D02*
X0086800Y0074300D01*
X0106800Y0054300D01*
X0106800Y0049300D01*
X0109300Y0046800D01*
X0119300Y0046800D01*
X0121800Y0049300D01*
X0121800Y0051800D01*
X0116800Y0056800D02*
X0111800Y0051800D01*
X0116800Y0056800D02*
X0116800Y0124300D01*
X0111800Y0129300D01*
X0111800Y0159300D01*
X0116800Y0164300D01*
X0116800Y0166288D01*
X0116800Y0176800D02*
X0116800Y0177312D01*
X0116800Y0176800D02*
X0106800Y0176800D01*
X0106800Y0146800D01*
X0126800Y0134300D02*
X0131800Y0129300D01*
X0131800Y0121800D01*
X0123050Y0123050D02*
X0121800Y0121800D01*
X0123050Y0123050D02*
X0123050Y0183050D01*
X0124300Y0184300D01*
X0143050Y0184300D01*
X0144300Y0185550D01*
X0144300Y0224300D01*
X0139300Y0229300D01*
X0137469Y0230580D01*
X0130550Y0236800D02*
X0133050Y0239300D01*
X0176800Y0239300D01*
X0178050Y0238050D01*
X0178050Y0231337D01*
X0178808Y0230580D01*
X0130550Y0236800D02*
X0130550Y0195550D01*
X0121800Y0188050D01*
X0116072Y0188050D01*
X0112528Y0188050D02*
X0112528Y0191278D01*
X0115550Y0194300D01*
X0115550Y0198928D01*
X0115922Y0199300D01*
X0115922Y0210789D01*
X0109910Y0216800D01*
X0104300Y0223050D02*
X0116160Y0223050D01*
X0123690Y0230580D01*
X0104300Y0223050D02*
X0098050Y0216800D01*
X0096800Y0216800D01*
X0096131Y0216800D01*
X0096800Y0216800D02*
X0112678Y0200922D01*
X0112678Y0199300D01*
X0101800Y0199300D02*
X0101800Y0177312D01*
X0101800Y0176800D01*
X0106800Y0176800D01*
X0086800Y0176800D02*
X0086800Y0177312D01*
X0086800Y0176800D02*
X0076800Y0176800D01*
X0101800Y0199300D02*
X0084300Y0216800D01*
X0082351Y0216800D01*
X0131800Y0177312D02*
X0131800Y0176800D01*
X0141800Y0166800D01*
X0141800Y0146800D01*
X0136800Y0159300D02*
X0136800Y0056800D01*
X0141800Y0051800D01*
X0151800Y0121800D02*
X0161800Y0131800D01*
X0161800Y0151800D01*
X0176800Y0166800D01*
X0191800Y0166800D01*
X0136800Y0159300D02*
X0131800Y0164300D01*
X0131800Y0166288D01*
M02*
